<svg width="191" height="540" viewBox="0 0 191 540" fill="none" xmlns="http://www.w3.org/2000/svg">
<path d="M248.63 0.822239C120.031 0.56419 15.5596 107.914 15.3094 240.618C15.0592 373.323 119.125 481.091 247.724 481.349C376.322 481.607 480.794 374.257 481.044 241.553C481.294 108.849 377.228 1.08029 248.63 0.822239Z" stroke="#D5DAE1" stroke-width="0.70873"/>
<path d="M266.023 57.7951C137.424 57.537 32.9527 164.887 32.7025 297.591C32.4523 430.295 136.518 538.064 265.117 538.322C393.716 538.58 498.187 431.23 498.437 298.526C498.687 165.821 394.621 58.0531 266.023 57.7951Z" stroke="#D5DAE1" stroke-width="0.70873"/>
<path d="M17.3309 208.958L13.2895 220.899L1.00392 223.065L12.8636 227.492L15.3232 240.041L19.3646 228.101L31.6502 225.935L19.7905 221.507L17.3309 208.958Z" fill="#EFAC00"/>
</svg>
