<svg width="191" height="536" viewBox="0 0 191 536" fill="none" xmlns="http://www.w3.org/2000/svg">
<path d="M248.63 1.44594C120.028 1.19012 15.5595 107.612 15.3094 239.164C15.0592 370.715 119.122 477.552 247.724 477.808C376.325 478.063 480.794 371.641 481.044 240.09C481.294 108.539 377.231 1.70176 248.63 1.44594Z" stroke="#D5DAE1" stroke-width="0.70873"/>
<path d="M266.015 57.9219C137.413 57.6638 32.9466 164.084 32.6986 295.635C32.4506 427.187 136.515 534.026 265.117 534.284C393.718 534.542 498.185 428.121 498.433 296.57C498.681 165.019 394.616 58.1799 266.015 57.9219Z" stroke="#D5DAE1" stroke-width="0.70873"/>
<path d="M17.3309 207.777L13.2895 219.614L1.0039 221.762L12.8636 226.151L15.3232 238.591L19.3646 226.755L31.6502 224.607L19.7905 220.218L17.3309 207.777Z" fill="#EFAC00"/>
</svg>
