<svg width="60" height="60" viewBox="0 0 60 60" fill="none" xmlns="http://www.w3.org/2000/svg">
<path d="M54.6346 26.96C54.6346 26.92 54.6228 26.8804 54.6134 26.8405V26.8146C54.6134 26.784 54.5969 26.7515 54.5875 26.7209L54.571 26.6695L54.5522 26.6205C54.5405 26.5899 54.5263 26.5598 54.5122 26.5292H54.5126C54.3342 26.1536 53.9974 25.878 53.5943 25.7772C52.2313 25.2931 51.1168 24.2863 50.4981 22.9788L50.4698 22.9251L50.4534 22.8898V22.8734L50.411 22.8032L50.3644 22.7448L50.3244 22.6934L50.2753 22.6326L50.2424 22.5974L50.1746 22.5295L50.1444 22.5103L50.0554 22.4378C49.7624 22.2218 49.397 22.1277 49.0363 22.1755L48.912 22.199H48.8837L48.7853 22.2273L48.7293 22.2484L48.6591 22.2767H48.6355L48.5747 22.3072L48.5465 22.3214L48.5469 22.3206C47.7603 22.7569 46.8745 22.9835 45.975 22.9788C44.5057 22.9796 43.0964 22.3974 42.0558 21.3605C41.0151 20.3235 40.4281 18.9164 40.4237 17.4475C40.4143 16.2738 40.7884 15.1293 41.4895 14.1877C41.5177 14.1501 41.5432 14.1128 41.5667 14.0728C41.5903 14.0352 41.6111 13.9956 41.6299 13.9533C41.6487 13.9133 41.6652 13.8737 41.6789 13.8313C41.693 13.789 41.7056 13.7471 41.7165 13.7047C41.7165 13.6694 41.733 13.6345 41.7377 13.5969V13.5687V13.4679V13.4032V13.3095V13.2696V13.1735V13.1359C41.7377 13.1053 41.7377 13.0727 41.7189 13.0422V13.0022L41.7122 12.9093L41.6981 12.8603L41.6699 12.7901L41.6464 12.734L41.6181 12.678L41.5828 12.6101L41.5499 12.5611L41.5075 12.498L41.4652 12.4443L41.4209 12.3882L41.3625 12.3275L41.3138 12.3004C40.1512 11.2486 39.4897 9.75331 39.494 8.18554V8.00755V7.87857V7.86249C39.494 7.82015 39.4877 7.77899 39.4752 7.73821V7.73861C39.3775 7.25953 39.0376 6.86553 38.578 6.69854C32.9656 4.63448 26.7961 4.66499 21.2038 6.7844C15.6121 8.90417 10.9727 12.9709 8.13994 18.2368L8.12111 18.2721C6.18252 21.8786 5.16926 25.9099 5.17237 30.0046C5.19982 35.3324 6.92746 40.5126 10.1041 44.79C13.2807 49.0675 17.7398 52.22 22.8326 53.7878C22.8848 53.8066 22.9377 53.8223 22.9918 53.8348C25.2704 54.4888 27.629 54.8228 29.9997 54.8275C31.5608 54.8306 33.1186 54.684 34.6515 54.3896C34.702 54.3825 34.7519 54.3723 34.8013 54.3594C40.4431 53.2449 45.5231 50.2077 49.1751 45.7662C52.8273 41.3247 54.8251 35.7542 54.8275 30.0042C54.8287 28.9864 54.7636 27.9695 54.6334 26.96L54.6346 26.96ZM17.514 11.8694C18.746 13.0193 19.2703 14.7388 18.8904 16.3803C18.51 18.0217 17.2826 19.3358 15.6707 19.8275C14.0586 20.3191 12.3071 19.9134 11.0751 18.7635C12.7004 16.029 14.8965 13.6771 17.514 11.8694ZM33.4679 51.7457C30.4489 52.2169 27.3657 52.0707 24.4056 51.3148C24.3256 50.9726 24.2856 50.6221 24.286 50.2705C24.286 48.5859 25.1847 47.0294 26.6442 46.1869C28.1033 45.3448 29.9011 45.3448 31.3602 46.1869C32.8192 47.0294 33.7184 48.5858 33.7184 50.2705C33.7145 50.7727 33.6302 51.271 33.4679 51.7457ZM36.4825 51.0431H36.4821C36.5103 50.782 36.5244 50.5194 36.5244 50.2563C36.5244 47.5685 35.09 45.0845 32.7617 43.7402C30.4329 42.3962 27.5641 42.3962 25.2357 43.7402C22.9073 45.0845 21.4729 47.5685 21.4729 50.2563V50.3081C17.8905 48.8018 14.7704 46.3754 12.4282 43.2748C10.0865 40.1741 8.60625 36.5094 8.13807 32.6524C7.66987 28.7954 8.22982 24.8829 9.76146 21.3124C11.7582 22.7818 14.3501 23.1738 16.6918 22.3607C19.0335 21.5476 20.8247 19.6336 21.4807 17.2434C22.1364 14.8535 21.5729 12.2935 19.9738 10.3995C25.1631 7.78263 31.1695 7.29336 36.7146 9.03677C36.8829 10.6806 37.535 12.2382 38.5882 13.512C37.9416 14.7186 37.6059 16.0677 37.6114 17.4367C37.613 19.6533 38.4949 21.7786 40.0634 23.3451C41.6319 24.9117 43.7586 25.7911 45.9757 25.7899C46.8787 25.7934 47.7764 25.648 48.6319 25.359C49.4699 26.5572 50.609 27.5137 51.9343 28.1315C51.9904 28.7522 52.0186 29.3799 52.0186 30.0051C52.0155 34.7109 50.5059 39.2922 47.7108 43.0784C44.9157 46.8648 40.9816 49.6569 36.485 51.0463L36.4825 51.0431ZM30.0011 22.9796C28.3695 22.9796 26.8046 23.6277 25.6505 24.781C24.4965 25.9348 23.8484 27.4995 23.848 29.1308C23.848 30.7621 24.4958 32.3271 25.6493 33.4809C26.8029 34.6347 28.3679 35.2831 29.9995 35.2835C31.6312 35.2839 33.1965 34.6363 34.3505 33.4829C35.5049 32.33 36.1535 30.7653 36.1543 29.134C36.1523 27.5027 35.5038 25.9388 34.3501 24.7851C33.1965 23.6313 31.6328 22.982 30.0011 22.9797V22.9796ZM30.0011 32.4781C29.1142 32.4781 28.2633 32.1256 27.6359 31.4984C27.0089 30.8715 26.6564 30.0207 26.6564 29.1339C26.6564 28.2471 27.0089 27.3964 27.6359 26.7692C28.2633 26.1423 29.1143 25.7898 30.0011 25.7898C30.888 25.7898 31.739 26.1423 32.3664 26.7692C32.9934 27.3964 33.3459 28.2472 33.3459 29.1339C33.3435 30.0195 32.9902 30.8683 32.3632 31.4941C31.7362 32.1202 30.8869 32.4722 30.0011 32.4734L30.0011 32.4781ZM29.0644 17.7508C28.5385 17.2231 28.2437 16.5084 28.2444 15.7639C28.2452 15.019 28.5417 14.3051 29.0687 13.7786C29.5957 13.2525 30.3101 12.9569 31.0551 12.9569C31.8002 12.9569 32.5146 13.2525 33.0416 13.7786C33.5686 14.3052 33.8651 15.019 33.8659 15.7639C33.8666 16.5084 33.5718 17.2231 33.0459 17.7508C32.5181 18.2793 31.8014 18.5757 31.0543 18.5749C30.307 18.5741 29.591 18.2758 29.0643 17.7461L29.0644 17.7508ZM18.5874 32.3075C19.1132 32.8348 19.4081 33.5495 19.4073 34.2944C19.4062 35.0389 19.1097 35.7531 18.5827 36.2792C18.0557 36.8054 17.3413 37.1014 16.5966 37.1014C15.8516 37.1014 15.1372 36.8054 14.6102 36.2792C14.0832 35.7531 13.7867 35.0389 13.7859 34.2944C13.7848 33.5495 14.0796 32.8348 14.6055 32.3075C15.1329 31.7782 15.8493 31.481 16.5967 31.481C17.3437 31.481 18.06 31.7782 18.5874 32.3075ZM43.8206 35.6257C44.3465 36.1534 44.6413 36.8677 44.6402 37.6126C44.6394 38.3574 44.3429 39.0713 43.8159 39.5974C43.2889 40.124 42.5745 40.4196 41.8295 40.4196C41.0848 40.4196 40.3704 40.124 39.8434 39.5974C39.3164 39.0713 39.0199 38.3575 39.0188 37.6126C39.018 36.8677 39.3129 36.1534 39.8387 35.6257C40.3661 35.0964 41.0825 34.7992 41.8295 34.7992C42.5769 34.7992 43.2932 35.0964 43.8206 35.6257Z" fill="#80818C"/>
</svg>
