<svg width="200" height="180" viewBox="0 0 200 180" fill="none" xmlns="http://www.w3.org/2000/svg">
<path d="M170.768 46.3052C177.368 46.3052 182.867 51.7849 182.867 58.3605C182.867 64.9361 177.368 70.4158 170.768 70.4158C164.169 70.4158 158.669 64.9361 158.669 58.3605C158.669 51.7849 164.169 46.3052 170.768 46.3052ZM170.768 61.9226C172.968 61.9226 174.618 60.2787 174.618 58.0868C174.618 55.895 172.968 54.2511 170.768 54.2511C168.568 54.2511 166.918 55.895 166.918 58.0868C166.918 60.2787 168.568 61.9226 170.768 61.9226Z" fill="#2B2E43"/>
<path d="M131.171 93.7C124.572 93.7 119.072 88.2203 119.072 81.6447C119.072 75.0691 124.572 69.5894 131.171 69.5894C137.771 69.5894 143.27 75.0691 143.27 81.6447C143.27 88.2203 137.771 93.7 131.171 93.7ZM131.171 77.8089C128.971 77.8089 127.321 79.4528 127.321 81.6447C127.321 83.8366 129.246 85.4805 131.171 85.4805C133.096 85.4805 135.021 83.8366 135.021 81.6447C135.021 79.4528 133.371 77.8089 131.171 77.8089Z" fill="#2B2E43"/>
<path d="M123.748 132.334C123.748 125.758 129.248 120.278 135.847 120.278C142.447 120.278 147.947 125.758 147.947 132.334C147.947 138.909 142.447 144.389 135.847 144.389C129.248 144.389 123.748 138.909 123.748 132.334ZM135.847 135.895C138.047 135.895 139.697 134.252 139.697 132.06C139.697 129.868 138.047 128.224 135.847 128.224C133.648 128.224 131.998 129.868 131.998 132.06C131.998 134.252 133.648 135.895 135.847 135.895Z" fill="#2B2E43"/>
<path d="M119.349 175.075C125.948 175.075 131.448 180.554 131.448 187.13C131.448 193.706 125.948 199.185 119.349 199.185C112.749 199.185 107.25 193.706 107.25 187.13C107.25 180.554 112.749 175.075 119.349 175.075ZM119.349 190.692C121.549 190.692 123.198 189.048 123.198 186.856C123.198 184.664 121.549 183.021 119.349 183.021C117.149 183.021 115.499 184.664 115.499 186.856C115.499 189.048 117.424 190.692 119.349 190.692Z" fill="#2B2E43"/>
<path d="M42.078 153.432C35.4785 153.432 29.979 147.952 29.979 141.376C29.979 134.801 35.4785 129.321 42.078 129.321C48.6775 129.321 54.1771 134.801 54.1771 141.376C54.1771 147.952 48.6775 153.432 42.078 153.432ZM42.078 137.814C39.8782 137.814 38.2283 139.458 38.2283 141.65C38.2283 143.842 39.8782 145.486 42.078 145.486C44.2778 145.486 45.9277 143.842 45.9277 141.65C45.9277 139.458 44.2778 137.814 42.078 137.814Z" fill="#2B2E43"/>
<path d="M83.5983 172.063C83.5983 178.639 78.0987 184.118 71.4992 184.118C64.8997 184.118 59.4001 178.639 59.4001 172.063C59.4001 165.487 64.8997 160.008 71.4992 160.008C78.0987 160.008 83.5983 165.487 83.5983 172.063ZM67.9242 172.063C67.9242 174.255 69.574 175.899 71.7739 175.899C73.9737 175.899 75.6236 174.255 75.6236 172.063C75.6236 169.871 73.9737 168.227 71.7739 168.227C69.574 168.227 67.9242 170.145 67.9242 172.063Z" fill="#2B2E43"/>
<path d="M81.3984 129.872C74.7989 129.872 69.2994 124.393 69.2994 117.817C69.2994 111.241 74.7989 105.762 81.3984 105.762C87.9979 105.762 93.4975 111.241 93.4975 117.817C93.4975 124.393 87.9979 129.872 81.3984 129.872ZM81.3984 114.255C79.1986 114.255 77.5487 115.899 77.5487 118.091C77.5487 120.283 79.1986 121.926 81.3984 121.926C83.5982 121.926 85.2481 120.283 85.2481 118.091C85.2481 115.899 83.5982 114.255 81.3984 114.255Z" fill="#2B2E43"/>
<path d="M182.32 102.467C182.32 95.8918 187.82 90.4121 194.419 90.4121C201.019 90.4121 206.519 95.8918 206.519 102.467C206.519 109.043 201.019 114.523 194.419 114.523C187.82 114.523 182.32 109.043 182.32 102.467ZM194.419 106.029C196.619 106.029 198.269 104.385 198.269 102.193C198.269 100.002 196.619 98.3577 194.419 98.3577C192.22 98.3577 190.57 100.002 190.57 102.193C190.57 104.385 192.22 106.029 194.419 106.029Z" fill="#2B2E43"/>
<path d="M180.667 148.497C187.267 148.497 192.766 153.977 192.766 160.552C192.766 167.128 187.267 172.608 180.667 172.608C174.068 172.608 168.568 167.128 168.568 160.552C168.568 153.977 174.068 148.497 180.667 148.497ZM180.667 164.388C182.867 164.388 184.517 162.744 184.517 160.552C184.517 158.361 182.867 156.717 180.667 156.717C178.467 156.717 176.818 158.361 176.818 160.552C176.818 162.744 178.742 164.388 180.667 164.388Z" fill="#2B2E43"/>
<path d="M93.774 1.91789L98.4487 1.09594C103.673 0.273985 108.898 0 114.397 0C126.497 0 138.046 1.91789 148.77 5.20571C150.42 4.93173 152.07 4.65774 153.995 4.65774C178.743 2.73985 209.54 15.6171 232.635 36.9879C257.384 59.7284 270.857 89.593 270.857 120.83C270.857 184.946 218.611 237 154.266 237C136.392 237 120.169 232.068 119.619 231.794C115.219 230.424 112.744 229.328 110.82 228.506C51.9742 226.589 3.58105 180.285 0.275024 121.38L3.05176e-05 117.818L3.57477 116.996C12.924 115.078 20.8981 109.599 26.3977 101.379L28.0475 98.9129L30.7973 99.4609C32.1722 99.7349 33.8221 99.7349 35.472 99.7349C46.4711 99.7349 56.6456 93.7072 61.8699 84.3917L62.9698 82.1998H65.4447H67.3695H68.1944C85.7931 82.1998 100.092 67.9526 100.092 50.4176C100.092 43.5677 97.8921 36.992 93.7678 31.2387L92.1179 29.0468L93.4928 26.5809C95.6926 23.0191 97.0675 18.635 97.0675 13.9776C97.0675 11.5117 96.7925 9.04589 95.6926 6.30604L93.774 1.91789ZM154.269 228.502C213.94 228.502 262.614 180.006 262.614 120.549C262.614 91.7799 249.965 64.1077 227.142 42.7369C209.818 26.5721 187.82 15.8864 168.296 13.1466C204.318 32.5992 229.067 70.4097 229.067 113.973C229.067 170.14 187.82 216.991 134.197 226.31C139.697 227.68 146.847 228.502 154.271 228.502H154.269ZM67.9229 90.4134H67.6479C60.7731 101.099 48.6741 107.674 35.4751 107.674H31.9004C26.1258 115.62 18.1515 121.1 9.07748 123.839C14.0271 178.088 59.6736 220.006 114.669 220.006C172.965 220.006 220.814 172.333 220.814 113.975C220.814 67.3981 190.292 27.6718 148.22 13.7002H147.395V13.1522C136.946 9.86439 125.947 7.9465 114.397 7.9465C111.098 7.9465 107.523 8.22049 104.223 8.49447C104.498 10.4124 104.773 12.0563 104.773 13.9742C104.773 19.1799 103.673 24.1119 101.473 28.4957C105.598 35.0713 107.797 42.4686 107.797 50.4145C108.072 72.3332 89.9234 90.4162 67.9251 90.4162L67.9229 90.4134Z" fill="#2B2E43"/>
<path d="M55.2769 38.6339C55.2769 32.0583 60.7765 26.5786 67.376 26.5786C73.9755 26.5786 79.475 32.0583 79.475 38.6339C79.475 45.2096 73.9755 50.6893 67.376 50.6893C60.7765 50.6893 55.2769 45.2096 55.2769 38.6339ZM71.2257 38.6339C71.2257 36.4421 69.5758 34.7982 67.376 34.7982C65.1761 34.7982 63.5263 36.4421 63.5263 38.6339C63.5263 40.8258 65.1761 42.4697 67.376 42.4697C69.5758 42.4697 71.2257 40.5518 71.2257 38.6339Z" fill="#2B2E43"/>
<path d="M42.625 75.0751C42.625 81.6507 37.1254 87.1304 30.5259 87.1304C23.9264 87.1304 18.4269 81.6507 18.4269 75.0751C18.4269 68.4995 23.9264 63.0198 30.5259 63.0198C37.1254 63.0198 42.625 68.4995 42.625 75.0751ZM30.5259 71.5133C28.3261 71.5133 26.6762 73.1572 26.6762 75.3491C26.6762 77.541 28.3261 79.1849 30.5259 79.1849C32.7258 79.1849 34.3756 77.541 34.3756 75.3491C34.3756 73.1572 32.7258 71.5133 30.5259 71.5133Z" fill="#2B2E43"/>
<path d="M18.7033 38.6338C18.7033 34.5241 22.003 31.2366 26.1274 31.2366C30.2517 31.2366 33.5515 34.5244 33.5515 38.6338C33.5515 42.7433 30.2517 46.0311 26.1274 46.0311C22.003 46.0311 18.7033 42.7433 18.7033 38.6338ZM26.9526 38.6338C26.9526 38.0859 26.6776 37.8119 26.1277 37.8119C25.5777 37.8119 25.3028 38.0859 25.3028 38.6338C25.3028 39.1818 25.5777 39.4558 26.1277 39.4558C26.6776 39.4558 26.9526 39.1818 26.9526 38.6338Z" fill="#2B2E43"/>
</svg>
