<svg width="200" height="139" viewBox="0 0 200 139" fill="none" xmlns="http://www.w3.org/2000/svg">
<path d="M73.9055 34.1918C69.0324 34.1918 64.9716 38.238 64.9716 43.0934C64.9716 47.9488 69.0324 51.995 73.9055 51.995C78.7785 51.995 82.8394 47.9488 82.8394 43.0934C82.8394 38.238 78.7785 34.1918 73.9055 34.1918ZM73.9055 45.7236C72.2811 45.7236 71.0629 44.5098 71.0629 42.8913C71.0629 41.2728 72.2811 40.059 73.9055 40.059C75.5298 40.059 76.7481 41.2728 76.7481 42.8913C76.7481 44.5098 75.5298 45.7236 73.9055 45.7236Z" fill="#EEF0F3"/>
<path d="M103.144 69.1878C108.017 69.1878 112.078 65.1416 112.078 60.2861C112.078 55.4307 108.017 51.3845 103.144 51.3845C98.2707 51.3845 94.2098 55.4307 94.2098 60.2861C94.2098 65.1416 98.2707 69.1878 103.144 69.1878ZM103.144 57.4538C104.768 57.4538 105.986 58.6677 105.986 60.2861C105.986 61.9046 104.565 63.1185 103.144 63.1185C101.722 63.1185 100.301 61.9046 100.301 60.2861C100.301 58.6677 101.519 57.4538 103.144 57.4538Z" fill="#EEF0F3"/>
<path d="M108.625 97.7146C108.625 92.8592 104.564 88.813 99.6907 88.813C94.8177 88.813 90.7568 92.8592 90.7568 97.7146C90.7568 102.57 94.8177 106.616 99.6907 106.616C104.564 106.616 108.625 102.57 108.625 97.7146ZM99.6907 100.345C98.0664 100.345 96.8481 99.1308 96.8481 97.5123C96.8481 95.8938 98.0664 94.68 99.6907 94.68C101.315 94.68 102.533 95.8938 102.533 97.5123C102.533 99.1308 101.315 100.345 99.6907 100.345Z" fill="#EEF0F3"/>
<path d="M111.873 129.275C107 129.275 102.939 133.321 102.939 138.176C102.939 143.032 107 147.078 111.873 147.078C116.746 147.078 120.807 143.032 120.807 138.176C120.807 133.321 116.746 129.275 111.873 129.275ZM111.873 140.807C110.249 140.807 109.031 139.593 109.031 137.974C109.031 136.356 110.249 135.142 111.873 135.142C113.498 135.142 114.716 136.356 114.716 137.974C114.716 139.593 113.295 140.807 111.873 140.807Z" fill="#EEF0F3"/>
<path d="M168.93 113.294C173.803 113.294 177.864 109.247 177.864 104.392C177.864 99.5365 173.803 95.4904 168.93 95.4904C164.057 95.4904 159.996 99.5365 159.996 104.392C159.996 109.247 164.057 113.294 168.93 113.294ZM168.93 101.762C170.554 101.762 171.772 102.976 171.772 104.594C171.772 106.213 170.554 107.426 168.93 107.426C167.305 107.426 166.087 106.213 166.087 104.594C166.087 102.976 167.305 101.762 168.93 101.762Z" fill="#EEF0F3"/>
<path d="M138.271 127.051C138.271 131.906 142.332 135.952 147.205 135.952C152.078 135.952 156.139 131.906 156.139 127.051C156.139 122.195 152.078 118.149 147.205 118.149C142.332 118.149 138.271 122.195 138.271 127.051ZM149.845 127.051C149.845 128.669 148.627 129.883 147.002 129.883C145.378 129.883 144.16 128.669 144.16 127.051C144.16 125.432 145.378 124.218 147.002 124.218C148.627 124.218 149.845 125.634 149.845 127.051Z" fill="#EEF0F3"/>
<path d="M139.896 95.8972C144.769 95.8972 148.83 91.851 148.83 86.9956C148.83 82.1402 144.769 78.094 139.896 78.094C135.023 78.094 130.962 82.1402 130.962 86.9956C130.962 91.851 135.023 95.8972 139.896 95.8972ZM139.896 84.3653C141.52 84.3653 142.738 85.5792 142.738 87.1977C142.738 88.8162 141.52 90.03 139.896 90.03C138.271 90.03 137.053 88.8162 137.053 87.1977C137.053 85.5792 138.271 84.3653 139.896 84.3653Z" fill="#EEF0F3"/>
<path d="M65.3753 75.6616C65.3753 70.8062 61.3144 66.76 56.4414 66.76C51.5683 66.76 47.5074 70.8062 47.5074 75.6616C47.5074 80.5171 51.5683 84.5632 56.4414 84.5632C61.3144 84.5632 65.3753 80.5171 65.3753 75.6616ZM56.4414 78.2916C54.817 78.2916 53.5987 77.0778 53.5987 75.4593C53.5987 73.8408 54.817 72.627 56.4414 72.627C58.0657 72.627 59.284 73.8408 59.284 75.4593C59.284 77.0778 58.0657 78.2916 56.4414 78.2916Z" fill="#EEF0F3"/>
<path d="M66.5959 109.65C61.7229 109.65 57.662 113.696 57.662 118.551C57.662 123.407 61.7229 127.453 66.5959 127.453C71.4689 127.453 75.5298 123.407 75.5298 118.551C75.5298 113.696 71.4689 109.65 66.5959 109.65ZM66.5959 121.384C64.9715 121.384 63.7533 120.17 63.7533 118.551C63.7533 116.933 64.9715 115.719 66.5959 115.719C68.2202 115.719 69.4385 116.933 69.4385 118.551C69.4385 120.17 68.0172 121.384 66.5959 121.384Z" fill="#EEF0F3"/>
<path d="M130.758 1.41617L127.306 0.809238C123.448 0.202309 119.59 0 115.529 0C106.595 0 98.0676 1.41617 90.1487 3.84388C88.9304 3.64157 87.7122 3.43926 86.2909 3.43926C68.017 2.02309 45.2761 11.5316 28.2228 27.3118C9.94889 44.1032 0 66.1552 0 89.2208C0 136.564 38.5782 175 86.0904 175C99.2884 175 111.268 171.358 111.674 171.156C114.923 170.145 116.75 169.335 118.171 168.728C161.622 167.312 197.356 133.122 199.797 89.6266L200 86.9965L197.36 86.3896C190.457 84.9734 184.569 80.9275 180.508 74.8577L179.29 73.037L177.259 73.4416C176.244 73.6439 175.026 73.6439 173.808 73.6439C165.686 73.6439 158.173 69.1931 154.315 62.3146L153.503 60.6961H151.676H150.255H149.645C136.651 60.6961 126.092 50.176 126.092 37.2282C126.092 32.1702 127.717 27.3148 130.762 23.0665L131.98 21.448L130.965 19.6273C129.341 16.9972 128.326 13.7601 128.326 10.321C128.326 8.50024 128.529 6.67945 129.341 4.65636L130.758 1.41617ZM86.088 168.725C42.0274 168.725 6.08665 132.916 6.08665 89.0127C6.08665 67.77 15.4266 47.3369 32.2795 31.5568C45.071 19.6208 61.3144 11.7305 75.7308 9.70739C49.1323 24.0711 30.8579 51.9903 30.8579 84.1573C30.8579 125.631 61.3144 160.226 100.909 167.106C96.8482 168.118 91.5691 168.725 86.0867 168.725H86.088ZM149.846 66.761H150.049C155.125 74.6508 164.059 79.5062 173.805 79.5062H176.445C180.709 85.3734 186.597 89.4196 193.297 91.4423C189.642 131.5 155.937 162.452 115.329 162.452C72.2834 162.452 36.9516 127.25 36.9516 84.1591C36.9516 49.7665 59.4891 20.4328 90.555 10.1162H91.1641V9.71155C98.8798 7.28384 107.002 5.86767 115.529 5.86767C117.966 5.86767 120.606 6.06998 123.042 6.27229C122.839 7.68845 122.636 8.90231 122.636 10.3185C122.636 14.1624 123.448 17.8042 125.073 21.0411C122.027 25.8965 120.403 31.3587 120.403 37.2259C120.2 53.4106 133.601 66.763 149.844 66.763L149.846 66.761Z" fill="#EEF0F3"/>
<path d="M159.184 28.527C159.184 23.6716 155.123 19.6254 150.25 19.6254C145.377 19.6254 141.316 23.6716 141.316 28.527C141.316 33.3824 145.377 37.4286 150.25 37.4286C155.123 37.4286 159.184 33.3824 159.184 28.527ZM147.407 28.527C147.407 26.9085 148.625 25.6947 150.25 25.6947C151.874 25.6947 153.092 26.9085 153.092 28.527C153.092 30.1455 151.874 31.3593 150.25 31.3593C148.625 31.3593 147.407 29.9431 147.407 28.527Z" fill="#EEF0F3"/>
<path d="M168.526 55.4353C168.526 60.2907 172.587 64.3369 177.46 64.3369C182.333 64.3369 186.394 60.2907 186.394 55.4353C186.394 50.5799 182.333 46.5337 177.46 46.5337C172.587 46.5337 168.526 50.5799 168.526 55.4353ZM177.46 52.8053C179.084 52.8053 180.302 54.0191 180.302 55.6376C180.302 57.2561 179.084 58.4699 177.46 58.4699C175.835 58.4699 174.617 57.2561 174.617 55.6376C174.617 54.0191 175.835 52.8053 177.46 52.8053Z" fill="#EEF0F3"/>
<path d="M186.19 28.5271C186.19 25.4924 183.753 23.0649 180.708 23.0649C177.662 23.0649 175.226 25.4927 175.226 28.5271C175.226 31.5615 177.662 33.9892 180.708 33.9892C183.753 33.9892 186.19 31.5615 186.19 28.5271ZM180.098 28.5271C180.098 28.1224 180.301 27.9201 180.707 27.9201C181.114 27.9201 181.317 28.1224 181.317 28.5271C181.317 28.9317 181.114 29.134 180.707 29.134C180.301 29.134 180.098 28.9317 180.098 28.5271Z" fill="#EEF0F3"/>
</svg>
