<svg width="183" height="172" viewBox="0 0 183 172" fill="none" xmlns="http://www.w3.org/2000/svg">
<mask id="mask0_101_3044" style="mask-type:alpha" maskUnits="userSpaceOnUse" x="0" y="0" width="183" height="172">
<rect width="183" height="172" rx="8" fill="#FF5621"/>
</mask>
<g mask="url(#mask0_101_3044)">
<path d="M204.579 107.563C204.579 107.426 204.539 107.29 204.506 107.153V107.064C204.506 106.959 204.45 106.847 204.417 106.742L204.361 106.566L204.296 106.397C204.256 106.292 204.207 106.189 204.159 106.084H204.16C203.548 104.794 202.391 103.848 201.007 103.502C196.328 101.84 192.501 98.3835 190.377 93.8943L190.28 93.7099L190.223 93.5887V93.5322L190.078 93.2913L189.918 93.0907L189.781 92.9144L189.612 92.7057L189.499 92.5846L189.266 92.3517L189.163 92.2858L188.857 92.0368C187.851 91.2951 186.597 90.9721 185.358 91.1363L184.931 91.217H184.834L184.497 91.3139L184.304 91.3866L184.063 91.4835H183.982L183.774 91.5885L183.677 91.637L183.678 91.6343C180.977 93.1324 177.936 93.9104 174.848 93.8943C169.803 93.897 164.965 91.8981 161.392 88.3379C157.819 84.7777 155.803 79.9467 155.788 74.9034C155.756 70.8736 157.04 66.9443 159.448 63.7115C159.544 63.5823 159.632 63.4544 159.713 63.3171C159.794 63.1879 159.865 63.0519 159.929 62.9066C159.994 62.7693 160.051 62.6333 160.098 62.488C160.146 62.3426 160.189 62.1986 160.227 62.0532C160.227 61.9321 160.284 61.8123 160.3 61.6831V61.5862V61.2402V61.0181V60.6964V60.5591V60.2294V60.1002C160.3 59.9952 160.3 59.8834 160.235 59.7785V59.6412L160.212 59.3222L160.164 59.1539L160.067 58.913L159.986 58.7205L159.889 58.528L159.768 58.2952L159.655 58.1269L159.509 57.9102L159.364 57.7258L159.212 57.5333L159.011 57.3247L158.844 57.2318C154.853 53.6206 152.581 48.4867 152.596 43.104V42.4929V42.0501V41.9949C152.596 41.8495 152.575 41.7082 152.532 41.5682V41.5696C152.196 39.9247 151.029 38.572 149.451 37.9987C130.182 30.912 109 31.0168 89.7998 38.2935C70.6019 45.5713 54.6733 59.5337 44.9473 77.6135L44.8827 77.7346C38.2269 90.1167 34.748 103.958 34.7587 118.016C34.8529 136.308 40.7845 154.094 51.6909 168.78C62.5972 183.465 77.9068 194.289 95.3922 199.672C95.5712 199.736 95.753 199.79 95.9388 199.833C103.762 202.078 111.86 203.225 119.999 203.241C125.359 203.252 130.707 202.749 135.97 201.738C136.144 201.714 136.315 201.679 136.485 201.634C155.855 197.808 173.296 187.38 185.835 172.131C198.374 156.882 205.233 137.756 205.241 118.015C205.245 114.52 205.022 111.029 204.575 107.563L204.579 107.563ZM77.1317 55.7521C81.3616 59.6999 83.1617 65.6036 81.8572 71.2392C80.5513 76.8748 76.3373 81.3868 70.8029 83.0749C65.2682 84.7627 59.2545 83.3696 55.0246 79.4216C60.6048 70.0332 68.145 61.9583 77.1317 55.7521ZM131.907 192.661C121.542 194.278 110.956 193.776 100.793 191.181C100.518 190.006 100.381 188.803 100.382 187.596C100.382 181.812 103.468 176.468 108.479 173.575C113.488 170.684 119.661 170.684 124.67 173.575C129.68 176.468 132.767 181.811 132.767 187.596C132.753 189.32 132.464 191.031 131.907 192.661ZM142.257 190.249H142.255C142.352 189.352 142.401 188.45 142.401 187.547C142.401 178.319 137.476 169.791 129.482 165.175C121.486 160.561 111.637 160.561 103.643 165.175C95.6486 169.791 90.7239 178.319 90.7239 187.547V187.725C78.4241 182.553 67.7118 174.223 59.6705 163.577C51.6305 152.931 46.5484 140.349 44.9409 127.107C43.3335 113.865 45.256 100.432 50.5146 88.1729C57.3699 93.2178 66.2687 94.5638 74.3087 91.772C82.3486 88.9803 88.4985 82.4091 90.7508 74.2025C93.0017 65.9974 91.0672 57.2079 85.5769 50.7053C103.393 41.7207 124.015 40.0409 143.054 46.0266C143.631 51.6705 145.87 57.018 149.486 61.3914C147.266 65.5343 146.114 70.1661 146.133 74.8662C146.138 82.4766 149.166 89.7734 154.551 95.152C159.936 100.531 167.238 103.55 174.85 103.546C177.951 103.558 181.032 103.058 183.97 102.066C186.847 106.18 190.758 109.464 195.308 111.585C195.501 113.716 195.598 115.871 195.598 118.018C195.587 134.174 190.404 149.904 180.807 162.903C171.211 175.903 157.704 185.489 142.265 190.259L142.257 190.249ZM120.004 93.8971C114.402 93.8971 109.029 96.122 105.067 100.082C101.105 104.043 98.8797 109.415 98.8783 115.016C98.8783 120.617 101.102 125.99 105.063 129.951C109.024 133.913 114.397 136.139 119.999 136.141C125.601 136.142 130.975 133.918 134.937 129.958C138.9 126 141.127 120.628 141.13 115.027C141.123 109.426 138.897 104.057 134.936 100.096C130.975 96.1344 125.606 93.9053 120.004 93.8974V93.8971ZM120.004 126.508C116.959 126.508 114.038 125.298 111.884 123.145C109.731 120.992 108.521 118.072 108.521 115.027C108.521 111.982 109.731 109.061 111.884 106.908C114.038 104.756 116.959 103.545 120.004 103.545C123.049 103.545 125.971 104.756 128.125 106.908C130.277 109.061 131.488 111.982 131.488 115.027C131.48 118.067 130.267 120.982 128.114 123.13C125.961 125.28 123.045 126.488 120.004 126.492L120.004 126.508ZM116.788 75.9448C114.983 74.1331 113.97 71.6792 113.973 69.1232C113.975 66.5657 114.993 64.1147 116.803 62.307C118.612 60.5007 121.065 59.4858 123.623 59.4858C126.181 59.4858 128.634 60.5007 130.443 62.307C132.253 64.1147 133.27 66.5657 133.273 69.1232C133.276 71.6792 132.263 74.133 130.458 75.9448C128.646 77.7592 126.185 78.7768 123.62 78.7741C121.054 78.7714 118.596 77.7471 116.788 75.9286L116.788 75.9448ZM80.817 125.923C82.6224 127.733 83.6348 130.187 83.6321 132.744C83.6281 135.3 82.6103 137.753 80.8009 139.559C78.9915 141.365 76.5386 142.382 73.982 142.382C71.4241 142.382 68.9712 141.365 67.1618 139.559C65.3524 137.753 64.3346 135.3 64.3319 132.744C64.3279 130.187 65.3403 127.733 67.1457 125.923C68.9564 124.106 71.4162 123.085 73.9821 123.085C76.5468 123.085 79.0062 124.106 80.817 125.923ZM167.451 137.315C169.256 139.127 170.269 141.579 170.265 144.137C170.262 146.694 169.244 149.145 167.435 150.952C165.626 152.759 163.173 153.774 160.615 153.774C158.058 153.774 155.605 152.759 153.796 150.952C151.986 149.145 150.969 146.694 150.965 144.137C150.962 141.579 151.974 139.127 153.78 137.315C155.59 135.498 158.05 134.478 160.615 134.478C163.181 134.478 165.64 135.498 167.451 137.315Z" fill="#EEF0F3"/>
</g>
</svg>
