<svg width="24" height="24" viewBox="0 0 24 24" fill="none" xmlns="http://www.w3.org/2000/svg">
<path d="M12 13C12.5933 13 13.1734 12.8241 13.6667 12.4944C14.1601 12.1648 14.5446 11.6962 14.7716 11.1481C14.9987 10.5999 15.0581 9.99668 14.9424 9.41474C14.8266 8.8328 14.5409 8.29825 14.1213 7.87869C13.7018 7.45913 13.1672 7.17341 12.5853 7.05766C12.0033 6.9419 11.4001 7.00131 10.8519 7.22837C10.3038 7.45544 9.83523 7.83995 9.50559 8.3333C9.17594 8.82665 9 9.40667 9 10C9 10.7957 9.31607 11.5587 9.87868 12.1213C10.4413 12.6839 11.2043 13 12 13ZM12 9.00001C12.1978 9.00001 12.3911 9.05866 12.5556 9.16854C12.72 9.27842 12.8482 9.4346 12.9239 9.61733C12.9996 9.80005 13.0194 10.0011 12.9808 10.1951C12.9422 10.3891 12.847 10.5673 12.7071 10.7071C12.5673 10.847 12.3891 10.9422 12.1951 10.9808C12.0011 11.0194 11.8 10.9996 11.6173 10.9239C11.4346 10.8482 11.2784 10.72 11.1685 10.5556C11.0586 10.3911 11 10.1978 11 10C11 9.7348 11.1054 9.48044 11.2929 9.29291C11.4804 9.10537 11.7348 9.00001 12 9.00001ZM21.59 18.16C21.1017 16.5405 20.2106 15.0714 19 13.89C19.6739 12.6721 20.0183 11.2994 19.9992 9.9076C19.9802 8.51581 19.5984 7.15306 18.8914 5.95402C18.1845 4.75497 17.177 3.76112 15.9684 3.07066C14.7598 2.3802 13.3919 2.01703 12 2.01703C10.6081 2.01703 9.24023 2.3802 8.03163 3.07066C6.82302 3.76112 5.81548 4.75497 5.10856 5.95402C4.40163 7.15306 4.01978 8.51581 4.00075 9.9076C3.98171 11.2994 4.32613 12.6721 5 13.89C3.78231 15.0675 2.8871 16.5377 2.4 18.16C2.26983 18.6049 2.24452 19.0739 2.32607 19.5302C2.40761 19.9865 2.59379 20.4177 2.87 20.79C3.15141 21.1685 3.5181 21.4753 3.94031 21.6856C4.36252 21.8958 4.82835 22.0035 5.3 22H18.7C19.17 22.002 19.6338 21.8935 20.0541 21.6833C20.4745 21.4731 20.8396 21.1672 21.12 20.79C21.3962 20.4177 21.5824 19.9865 21.6639 19.5302C21.7455 19.0739 21.7202 18.6049 21.59 18.16ZM12 4.00001C13.1867 4.00001 14.3467 4.35191 15.3334 5.01119C16.3201 5.67048 17.0891 6.60756 17.5433 7.70391C17.9974 8.80027 18.1162 10.0067 17.8847 11.1706C17.6532 12.3344 17.0818 13.4035 16.2426 14.2427C15.4035 15.0818 14.3344 15.6532 13.1705 15.8847C12.0067 16.1162 10.8003 15.9974 9.7039 15.5433C8.60754 15.0892 7.67047 14.3201 7.01118 13.3334C6.35189 12.3467 6 11.1867 6 10C6 8.40871 6.63214 6.88259 7.75736 5.75737C8.88257 4.63215 10.4087 4.00001 12 4.00001ZM19.52 19.59C19.4259 19.7188 19.3024 19.8232 19.1597 19.8945C19.0171 19.9658 18.8595 20.002 18.7 20H5.3C5.14053 20.002 4.98289 19.9658 4.84024 19.8945C4.6976 19.8232 4.57408 19.7188 4.48 19.59C4.39008 19.4661 4.3298 19.3233 4.30379 19.1725C4.27779 19.0216 4.28675 18.8668 4.33 18.72C4.68896 17.5113 5.33382 16.4068 6.21 15.5C6.9571 16.2836 7.85547 16.9074 8.85071 17.3336C9.84595 17.7598 10.9173 17.9795 12 17.9795C13.0827 17.9795 14.154 17.7598 15.1493 17.3336C16.1445 16.9074 17.0429 16.2836 17.79 15.5C18.6662 16.4068 19.311 17.5113 19.67 18.72C19.7132 18.8668 19.7222 19.0216 19.6962 19.1725C19.6702 19.3233 19.6099 19.4661 19.52 19.59Z" fill="black"/>
</svg>
