<svg width="16" height="16" viewBox="0 0 16 16" fill="none" xmlns="http://www.w3.org/2000/svg">
<path d="M14.3434 2.51209C13.9768 2.13839 13.5417 1.84194 13.0627 1.63969C12.5837 1.43743 12.0704 1.33333 11.5519 1.33333C11.0335 1.33333 10.5201 1.43743 10.0411 1.63969C9.56215 1.84194 9.12698 2.13839 8.76046 2.51209L7.99981 3.28729L7.23916 2.51209C6.49882 1.75759 5.4947 1.33372 4.44771 1.33372C3.40071 1.33372 2.39659 1.75759 1.65626 2.51209C0.915918 3.26659 0.5 4.28991 0.5 5.35693C0.5 6.42396 0.915918 7.44728 1.65626 8.20178L2.41691 8.97698L7.99981 14.6667L13.5827 8.97698L14.3434 8.20178C14.71 7.82825 15.0009 7.38475 15.1994 6.89663C15.3979 6.4085 15.5 5.8853 15.5 5.35693C15.5 4.82856 15.3979 4.30537 15.1994 3.81724C15.0009 3.32911 14.71 2.88562 14.3434 2.51209Z" fill="#F02E2E" stroke="#F02E2E" stroke-linecap="round" stroke-linejoin="round"/>
</svg>
