<svg width="20" height="20" viewBox="0 0 20 20" fill="none" xmlns="http://www.w3.org/2000/svg">
<path d="M9.99999 5.83334C9.1759 5.83334 8.37032 6.07771 7.68511 6.53555C6.99991 6.99339 6.46586 7.64413 6.15049 8.40549C5.83513 9.16685 5.75261 10.0046 5.91338 10.8129C6.07416 11.6211 6.47099 12.3636 7.05371 12.9463C7.63643 13.529 8.37886 13.9258 9.18711 14.0866C9.99537 14.2474 10.8331 14.1649 11.5945 13.8495C12.3559 13.5341 13.0066 13.0001 13.4644 12.3149C13.9223 11.6297 14.1667 10.8241 14.1667 10C14.1667 8.89494 13.7277 7.83513 12.9463 7.05373C12.1649 6.27233 11.1051 5.83334 9.99999 5.83334V5.83334ZM9.99999 12.5C9.50554 12.5 9.02219 12.3534 8.61106 12.0787C8.19994 11.804 7.87951 11.4135 7.69029 10.9567C7.50107 10.4999 7.45156 9.99723 7.54803 9.51228C7.64449 9.02733 7.88259 8.58187 8.23222 8.23224C8.58185 7.88261 9.02731 7.6445 9.51226 7.54804C9.99722 7.45158 10.4999 7.50109 10.9567 7.69031C11.4135 7.87953 11.804 8.19996 12.0787 8.61108C12.3534 9.0222 12.5 9.50555 12.5 10C12.5 10.663 12.2366 11.2989 11.7678 11.7678C11.2989 12.2366 10.663 12.5 9.99999 12.5ZM14.1667 5.00001C14.0018 5.00001 13.8407 5.04888 13.7037 5.14045C13.5666 5.23202 13.4598 5.36216 13.3968 5.51444C13.3337 5.66671 13.3172 5.83426 13.3493 5.99591C13.3815 6.15756 13.4609 6.30605 13.5774 6.42259C13.6939 6.53914 13.8424 6.61851 14.0041 6.65066C14.1657 6.68281 14.3333 6.66631 14.4856 6.60324C14.6378 6.54017 14.768 6.43335 14.8595 6.29631C14.9511 6.15927 15 5.99816 15 5.83334C15 5.61232 14.9122 5.40036 14.7559 5.24408C14.5996 5.0878 14.3877 5.00001 14.1667 5.00001ZM18.2833 6.86667C18.2695 6.15452 18.1342 5.44996 17.8833 4.78334C17.6506 4.17673 17.293 3.62583 16.8336 3.16642C16.3742 2.70701 15.8233 2.34935 15.2167 2.11667C14.55 1.86575 13.8455 1.73048 13.1333 1.71667C12.325 1.66667 12.0583 1.66667 9.99999 1.66667C7.94166 1.66667 7.67499 1.66667 6.86666 1.71667C6.15451 1.73048 5.44995 1.86575 4.78332 2.11667C4.17671 2.34935 3.62582 2.70701 3.1664 3.16642C2.70699 3.62583 2.34934 4.17673 2.11666 4.78334C1.86574 5.44996 1.73046 6.15452 1.71666 6.86667C1.66666 7.68334 1.66666 7.95001 1.66666 10C1.66666 12.05 1.66666 12.3167 1.71666 13.1333C1.73046 13.8455 1.86574 14.5501 2.11666 15.2167C2.34934 15.8233 2.70699 16.3742 3.1664 16.8336C3.62582 17.293 4.17671 17.6507 4.78332 17.8833C5.44995 18.1343 6.15451 18.2695 6.86666 18.2833C7.69999 18.2833 7.94166 18.3333 9.99999 18.3333C12.0583 18.3333 12.325 18.3333 13.1333 18.2833C13.8455 18.2695 14.55 18.1343 15.2167 17.8833C15.8233 17.6507 16.3742 17.293 16.8336 16.8336C17.293 16.3742 17.6506 15.8233 17.8833 15.2167C18.1342 14.5501 18.2695 13.8455 18.2833 13.1333C18.2833 12.3 18.3333 12.05 18.3333 10C18.3333 7.95001 18.3333 7.68334 18.2833 6.86667ZM16.6167 13.0583C16.602 13.5872 16.5036 14.1104 16.325 14.6083C16.1773 15.002 15.9439 15.3578 15.6417 15.65C15.3512 15.9524 14.9947 16.1834 14.6 16.325C14.1008 16.5109 13.5742 16.6123 13.0417 16.625C12.2583 16.625 12.0167 16.6667 9.99166 16.6667C7.96666 16.6667 7.73332 16.6667 6.94999 16.6667C6.41834 16.6529 5.89228 16.5545 5.39166 16.375C4.99804 16.2273 4.64222 15.9939 4.34999 15.6917C4.04762 15.4012 3.81659 15.0447 3.67499 14.65C3.48983 14.1535 3.38845 13.6297 3.37499 13.1C3.37499 12.2667 3.37499 12.0583 3.37499 10.0417C3.37499 8.02501 3.37499 7.78334 3.37499 6.98334C3.38935 6.45101 3.49069 5.92462 3.67499 5.42501C3.81879 5.03387 4.0496 4.68052 4.34999 4.39167C4.64047 4.0893 4.997 3.85827 5.39166 3.71667C5.89082 3.53075 6.41748 3.42936 6.94999 3.41667C7.73332 3.33334 7.97499 3.33334 9.99999 3.33334C12.025 3.33334 12.2667 3.33334 13.05 3.33334C13.5851 3.34695 14.1144 3.44829 14.6167 3.63334C15.0078 3.77714 15.3611 4.00795 15.65 4.30834C15.9524 4.59882 16.1834 4.95535 16.325 5.35001C16.529 5.85714 16.6446 6.39549 16.6667 6.94167C16.6667 7.77501 16.7083 7.98334 16.7083 10C16.7083 12.0167 16.6667 12.2583 16.6667 13.0583H16.6167Z" fill="#959AAA"/>
</svg>
