<svg width="12" height="14" viewBox="0 0 12 14" fill="none" xmlns="http://www.w3.org/2000/svg">
<path d="M0.999982 6H8.58998L5.28998 2.71C5.10168 2.5217 4.99589 2.2663 4.99589 2C4.99589 1.7337 5.10168 1.4783 5.28998 1.29C5.47829 1.1017 5.73368 0.995909 5.99998 0.995909C6.26628 0.995909 6.52168 1.1017 6.70998 1.29L11.71 6.29C11.801 6.3851 11.8724 6.49725 11.92 6.62C12.02 6.86346 12.02 7.13654 11.92 7.38C11.8724 7.50275 11.801 7.6149 11.71 7.71L6.70998 12.71C6.61702 12.8037 6.50642 12.8781 6.38456 12.9289C6.2627 12.9797 6.13199 13.0058 5.99998 13.0058C5.86797 13.0058 5.73726 12.9797 5.6154 12.9289C5.49355 12.8781 5.38294 12.8037 5.28998 12.71C5.19625 12.617 5.12186 12.5064 5.07109 12.3846C5.02032 12.2627 4.99418 12.132 4.99418 12C4.99418 11.868 5.02032 11.7373 5.07109 11.6154C5.12186 11.4936 5.19625 11.383 5.28998 11.29L8.58998 8H0.999982C0.734765 8 0.480411 7.89464 0.292874 7.70711C0.105338 7.51957 -1.81198e-05 7.26522 -1.81198e-05 7C-1.81198e-05 6.73478 0.105338 6.48043 0.292874 6.29289C0.480411 6.10536 0.734765 6 0.999982 6Z" fill="#2B2E43"/>
</svg>
