<svg width="163" height="382" viewBox="0 0 163 382" fill="none" xmlns="http://www.w3.org/2000/svg">
<path d="M-12.7055 0.814841C73.6589 0.641539 143.834 72.7379 144.002 161.88C144.17 251.022 74.2674 323.399 -12.097 323.572C-98.4614 323.746 -168.636 251.649 -168.804 162.507C-168.972 73.3656 -99.0699 0.988142 -12.7055 0.814841Z" stroke="#D5DAE1"/>
<path d="M-42.096 57.648C44.2683 57.4747 114.443 129.571 114.611 218.713C114.779 307.855 44.8768 380.232 -41.4876 380.406C-127.852 380.579 -198.027 308.482 -198.195 219.341C-198.363 130.199 -128.46 57.8213 -42.096 57.648Z" stroke="#D5DAE1"/>
<path d="M143.285 177.589L144.335 193.499L158.645 200.149L142.708 201.697L135.614 216.234L134.564 200.323L120.254 193.674L136.191 192.126L143.285 177.589Z" fill="#FC7F39"/>
</svg>
