<svg width="18" height="18" viewBox="0 0 18 18" fill="none" xmlns="http://www.w3.org/2000/svg">
<path d="M16.5 4.34991C15.9363 4.59448 15.3401 4.75616 14.73 4.82991C15.3736 4.4454 15.856 3.8405 16.0875 3.12741C15.4827 3.48746 14.8206 3.74114 14.13 3.87741C13.6684 3.37684 13.0537 3.04364 12.3824 2.93005C11.711 2.81647 11.0209 2.92893 10.4203 3.24981C9.81978 3.57068 9.3427 4.08181 9.06393 4.70304C8.78516 5.32427 8.72047 6.02046 8.88 6.68241C7.65707 6.62056 6.46083 6.30213 5.36899 5.74781C4.27715 5.19349 3.31413 4.41568 2.5425 3.46491C2.27185 3.93754 2.12964 4.47278 2.13 5.01741C2.12904 5.5232 2.25316 6.02138 2.49132 6.46759C2.72947 6.9138 3.07426 7.2942 3.495 7.57491C3.00598 7.56161 2.52741 7.43039 2.1 7.19241V7.22991C2.10367 7.93858 2.352 8.62423 2.80299 9.17089C3.25398 9.71754 3.87994 10.0916 4.575 10.2299C4.30744 10.3113 4.02966 10.3543 3.75 10.3574C3.55642 10.3552 3.36332 10.3376 3.1725 10.3049C3.37043 10.9145 3.75347 11.4473 4.26831 11.829C4.78315 12.2108 5.40418 12.4226 6.045 12.4349C4.9629 13.2864 3.62691 13.7511 2.25 13.7549C1.9993 13.7557 1.7488 13.7407 1.5 13.7099C2.90582 14.6176 4.54411 15.0995 6.2175 15.0974C7.37227 15.1094 8.51785 14.8912 9.58734 14.4555C10.6568 14.0198 11.6288 13.3753 12.4464 12.5598C13.264 11.7442 13.911 10.774 14.3494 9.70559C14.7879 8.63723 15.009 7.49221 15 6.33741C15 6.20991 15 6.07491 15 5.93991C15.5885 5.50102 16.0961 4.96298 16.5 4.34991Z" fill="#FF5621"/>
</svg>
