<svg width="18" height="18" viewBox="0 0 18 18" fill="none" xmlns="http://www.w3.org/2000/svg">
<path d="M15.3525 1.5001H2.64748C2.50467 1.49812 2.36286 1.52429 2.23016 1.57712C2.09746 1.62994 1.97646 1.7084 1.87408 1.80799C1.7717 1.90758 1.68994 2.02637 1.63348 2.15756C1.57701 2.28876 1.54694 2.42979 1.54498 2.5726V15.4276C1.54694 15.5704 1.57701 15.7115 1.63348 15.8426C1.68994 15.9738 1.7717 16.0926 1.87408 16.1922C1.97646 16.2918 2.09746 16.3703 2.23016 16.4231C2.36286 16.4759 2.50467 16.5021 2.64748 16.5001H15.3525C15.4953 16.5021 15.6371 16.4759 15.7698 16.4231C15.9025 16.3703 16.0235 16.2918 16.1259 16.1922C16.2283 16.0926 16.31 15.9738 16.3665 15.8426C16.423 15.7115 16.453 15.5704 16.455 15.4276V2.5726C16.453 2.42979 16.423 2.28876 16.3665 2.15756C16.31 2.02637 16.2283 1.90758 16.1259 1.80799C16.0235 1.7084 15.9025 1.62994 15.7698 1.57712C15.6371 1.52429 15.4953 1.49812 15.3525 1.5001ZM6.06748 14.0551H3.81748V7.3051H6.06748V14.0551ZM4.94248 6.3601C4.63218 6.3601 4.33459 6.23684 4.11517 6.01742C3.89575 5.798 3.77248 5.50041 3.77248 5.1901C3.77248 4.8798 3.89575 4.58221 4.11517 4.36279C4.33459 4.14337 4.63218 4.0201 4.94248 4.0201C5.10725 4.00142 5.27411 4.01775 5.43214 4.06802C5.59016 4.11829 5.73579 4.20137 5.85948 4.31183C5.98316 4.42228 6.08213 4.55761 6.14989 4.70897C6.21764 4.86032 6.25267 5.02428 6.25267 5.1901C6.25267 5.35593 6.21764 5.51989 6.14989 5.67124C6.08213 5.8226 5.98316 5.95793 5.85948 6.06838C5.73579 6.17884 5.59016 6.26192 5.43214 6.31219C5.27411 6.36246 5.10725 6.37879 4.94248 6.3601ZM14.1825 14.0551H11.9325V10.4326C11.9325 9.5251 11.61 8.9326 10.7925 8.9326C10.5395 8.93446 10.2931 9.01381 10.0866 9.15998C9.88009 9.30615 9.72335 9.51211 9.63748 9.7501C9.57879 9.92638 9.55336 10.112 9.56248 10.2976V14.0476H7.31248C7.31248 14.0476 7.31248 7.9126 7.31248 7.2976H9.56248V8.2501C9.76688 7.89543 10.0642 7.60324 10.4223 7.40501C10.7805 7.20677 11.1859 7.10999 11.595 7.1251C13.095 7.1251 14.1825 8.09261 14.1825 10.1701V14.0551Z" fill="#FF5621"/>
</svg>
