<svg width="18" height="18" viewBox="0 0 18 18" fill="none" xmlns="http://www.w3.org/2000/svg">
<path d="M15.3525 1.50001H2.64748C2.50467 1.49803 2.36286 1.5242 2.23016 1.57703C2.09746 1.62985 1.97646 1.7083 1.87408 1.8079C1.7717 1.90749 1.68994 2.02628 1.63348 2.15747C1.57701 2.28866 1.54694 2.4297 1.54498 2.57251V15.4275C1.54694 15.5703 1.57701 15.7114 1.63348 15.8426C1.68994 15.9737 1.7717 16.0925 1.87408 16.1921C1.97646 16.2917 2.09746 16.3702 2.23016 16.423C2.36286 16.4758 2.50467 16.502 2.64748 16.5H15.3525C15.4953 16.502 15.6371 16.4758 15.7698 16.423C15.9025 16.3702 16.0235 16.2917 16.1259 16.1921C16.2283 16.0925 16.31 15.9737 16.3665 15.8426C16.423 15.7114 16.453 15.5703 16.455 15.4275V2.57251C16.453 2.4297 16.423 2.28866 16.3665 2.15747C16.31 2.02628 16.2283 1.90749 16.1259 1.8079C16.0235 1.7083 15.9025 1.62985 15.7698 1.57703C15.6371 1.5242 15.4953 1.49803 15.3525 1.50001V1.50001ZM6.06748 14.055H3.81748V7.30501H6.06748V14.055ZM4.94248 6.36001C4.63218 6.36001 4.33459 6.23675 4.11517 6.01733C3.89575 5.79791 3.77248 5.50032 3.77248 5.19001C3.77248 4.87971 3.89575 4.58212 4.11517 4.3627C4.33459 4.14328 4.63218 4.02001 4.94248 4.02001C5.10725 4.00133 5.27411 4.01765 5.43214 4.06793C5.59016 4.1182 5.73579 4.20128 5.85948 4.31173C5.98316 4.42219 6.08213 4.55752 6.14989 4.70887C6.21764 4.86023 6.25267 5.02419 6.25267 5.19001C6.25267 5.35584 6.21764 5.5198 6.14989 5.67115C6.08213 5.8225 5.98316 5.95784 5.85948 6.06829C5.73579 6.17875 5.59016 6.26183 5.43214 6.3121C5.27411 6.36237 5.10725 6.3787 4.94248 6.36001V6.36001ZM14.1825 14.055H11.9325V10.4325C11.9325 9.52501 11.61 8.93251 10.7925 8.93251C10.5395 8.93437 10.2931 9.01372 10.0866 9.15989C9.88009 9.30606 9.72335 9.51202 9.63748 9.75001C9.57879 9.92629 9.55336 10.1119 9.56248 10.2975V14.0475H7.31248C7.31248 14.0475 7.31248 7.91251 7.31248 7.29751H9.56248V8.25001C9.76688 7.89534 10.0642 7.60315 10.4223 7.40491C10.7805 7.20668 11.1859 7.1099 11.595 7.12501C13.095 7.12501 14.1825 8.09251 14.1825 10.17V14.055Z" fill="black"/>
</svg>
