<svg width="18" height="18" viewBox="0 0 18 18" fill="none" xmlns="http://www.w3.org/2000/svg">
<path d="M9 7.14C8.63213 7.14 8.27251 7.24909 7.96664 7.45347C7.66076 7.65785 7.42236 7.94834 7.28158 8.28821C7.1408 8.62808 7.10397 9.00206 7.17574 9.36287C7.24751 9.72367 7.42466 10.0551 7.68478 10.3152C7.94491 10.5753 8.27633 10.7525 8.63713 10.8243C8.99794 10.896 9.37192 10.8592 9.71179 10.7184C10.0517 10.5776 10.3422 10.3392 10.5465 10.0334C10.7509 9.72749 10.86 9.36787 10.86 9C10.86 8.75574 10.8119 8.51387 10.7184 8.28821C10.6249 8.06254 10.4879 7.8575 10.3152 7.68478C10.1425 7.51206 9.93746 7.37506 9.71179 7.28158C9.48613 7.18811 9.24426 7.14 9 7.14V7.14ZM16.4475 5.3025C16.4436 4.72332 16.3369 4.14943 16.1325 3.6075C15.982 3.21094 15.749 2.85082 15.4491 2.55089C15.1492 2.25096 14.7891 2.01804 14.3925 1.8675C13.8506 1.6631 13.2767 1.55645 12.6975 1.5525C11.73 1.5 11.445 1.5 9 1.5C6.555 1.5 6.27 1.5 5.3025 1.5525C4.72332 1.55645 4.14943 1.6631 3.6075 1.8675C3.21094 2.01804 2.85082 2.25096 2.55089 2.55089C2.25096 2.85082 2.01804 3.21094 1.8675 3.6075C1.6631 4.14943 1.55645 4.72332 1.5525 5.3025C1.5 6.27 1.5 6.555 1.5 9C1.5 11.445 1.5 11.73 1.5525 12.6975C1.56057 13.2787 1.66708 13.8544 1.8675 14.4C2.01737 14.7947 2.2501 15.1528 2.55 15.45C2.84865 15.7517 3.20954 15.9847 3.6075 16.1325C4.14943 16.3369 4.72332 16.4436 5.3025 16.4475C6.27 16.5 6.555 16.5 9 16.5C11.445 16.5 11.73 16.5 12.6975 16.4475C13.2767 16.4436 13.8506 16.3369 14.3925 16.1325C14.7905 15.9847 15.1514 15.7517 15.45 15.45C15.7499 15.1528 15.9826 14.7947 16.1325 14.4C16.3367 13.8554 16.4433 13.2791 16.4475 12.6975C16.5 11.73 16.5 11.445 16.5 9C16.5 6.555 16.5 6.27 16.4475 5.3025V5.3025ZM14.5425 11.3025C14.5184 11.7653 14.4197 12.2212 14.25 12.6525C14.1044 13.0123 13.8879 13.3391 13.6135 13.6135C13.3391 13.8879 13.0123 14.1044 12.6525 14.25C12.2171 14.4102 11.7587 14.4988 11.295 14.5125C10.7025 14.5125 10.545 14.5125 9 14.5125C7.455 14.5125 7.2975 14.5125 6.705 14.5125C6.2413 14.4988 5.78287 14.4102 5.3475 14.25C4.97558 14.1118 4.63971 13.8913 4.365 13.605C4.09325 13.3359 3.88338 13.0109 3.75 12.6525C3.58917 12.2176 3.50296 11.7586 3.495 11.295C3.495 10.7025 3.495 10.545 3.495 9C3.495 7.455 3.495 7.2975 3.495 6.705C3.50296 6.24137 3.58917 5.78241 3.75 5.3475C3.88821 4.97558 4.10871 4.63971 4.395 4.365C4.66525 4.09472 4.98995 3.88507 5.3475 3.75C5.78287 3.5898 6.2413 3.50116 6.705 3.4875V3.4875C7.2975 3.4875 7.455 3.4875 9 3.4875C10.545 3.4875 10.7025 3.4875 11.295 3.4875C11.7587 3.50116 12.2171 3.5898 12.6525 3.75C13.0244 3.88821 13.3603 4.10871 13.635 4.395C13.9068 4.66406 14.1166 4.9891 14.25 5.3475C14.4102 5.78287 14.4988 6.2413 14.5125 6.705C14.5125 7.2975 14.5125 7.455 14.5125 9C14.5125 10.545 14.565 10.7025 14.5425 11.295V11.3025ZM13.3425 5.7225C13.2532 5.48024 13.1124 5.26023 12.9298 5.07766C12.7473 4.89509 12.5273 4.7543 12.285 4.665C11.9524 4.5497 11.602 4.49384 11.25 4.5C10.665 4.5 10.5 4.5 9 4.5C7.5 4.5 7.335 4.5 6.75 4.5C6.3962 4.50346 6.0458 4.56948 5.715 4.695C5.47645 4.78024 5.25877 4.91528 5.07644 5.09115C4.89411 5.26702 4.7513 5.47968 4.6575 5.715C4.54858 6.04902 4.49537 6.3987 4.5 6.75C4.5 7.335 4.5 7.5 4.5 9C4.5 10.5 4.5 10.665 4.5 11.25C4.50744 11.6034 4.57333 11.9531 4.695 12.285C4.7843 12.5273 4.92509 12.7473 5.10766 12.9298C5.29023 13.1124 5.51024 13.2532 5.7525 13.3425C6.0725 13.4602 6.40924 13.526 6.75 13.5375V13.5375C7.335 13.5375 7.5 13.5375 9 13.5375C10.5 13.5375 10.665 13.5375 11.25 13.5375C11.6038 13.534 11.9542 13.468 12.285 13.3425C12.5273 13.2532 12.7473 13.1124 12.9298 12.9298C13.1124 12.7473 13.2532 12.5273 13.3425 12.285C13.468 11.9542 13.534 11.6038 13.5375 11.25C13.5375 10.665 13.5375 10.5 13.5375 9C13.5375 7.5 13.5375 7.335 13.5375 6.75C13.5377 6.39585 13.4716 6.04479 13.3425 5.715V5.7225ZM9 11.865C8.62412 11.865 8.25192 11.7908 7.90475 11.6468C7.55757 11.5027 7.24223 11.2915 6.97679 11.0254C6.71134 10.7593 6.50102 10.4434 6.35786 10.0958C6.2147 9.74827 6.14151 9.37588 6.1425 9V9C6.1425 8.43304 6.31072 7.87882 6.62587 7.40751C6.94101 6.93621 7.3889 6.569 7.91285 6.35238C8.4368 6.13575 9.01324 6.07946 9.5692 6.19061C10.1252 6.30177 10.6356 6.57538 11.036 6.97681C11.4364 7.37823 11.7087 7.88943 11.8184 8.44568C11.9281 9.00193 11.8703 9.57822 11.6523 10.1016C11.4343 10.625 11.0659 11.0719 10.5937 11.3858C10.1216 11.6997 9.56696 11.8665 9 11.865V11.865ZM12 6.6975C11.8342 6.67995 11.6808 6.60167 11.5693 6.47773C11.4578 6.35379 11.3961 6.19297 11.3961 6.02625C11.3961 5.85953 11.4578 5.69871 11.5693 5.57477C11.6808 5.45083 11.8342 5.37255 12 5.355V5.355C12.1658 5.37255 12.3192 5.45083 12.4307 5.57477C12.5422 5.69871 12.6039 5.85953 12.6039 6.02625C12.6039 6.19297 12.5422 6.35379 12.4307 6.47773C12.3192 6.60167 12.1658 6.67995 12 6.6975Z" fill="black"/>
</svg>
