<svg width="24" height="24" viewBox="0 0 24 24" fill="none" xmlns="http://www.w3.org/2000/svg">
<path d="M12 0C5.37258 0 0 5.37258 0 12C0 18.6274 5.37258 24 12 24C18.6274 24 24 18.6274 24 12C23.9923 5.37578 18.6242 0.00771476 12 0Z" fill="#C3F9E6"/>
<path d="M17.368 8.168C17.2936 8.09302 17.2051 8.03351 17.1076 7.99289C17.0102 7.95228 16.9056 7.93137 16.8 7.93137C16.6944 7.93137 16.5898 7.95228 16.4923 7.99289C16.3948 8.03351 16.3064 8.09302 16.232 8.168L10.272 14.136L7.76798 11.624C7.69077 11.5494 7.59961 11.4908 7.49973 11.4514C7.39985 11.412 7.29319 11.3927 7.18584 11.3946C7.0785 11.3964 6.97257 11.4194 6.87411 11.4622C6.77564 11.505 6.68657 11.5668 6.61198 11.644C6.53739 11.7212 6.47874 11.8124 6.43938 11.9123C6.40002 12.0121 6.38071 12.1188 6.38257 12.2261C6.38443 12.3335 6.40741 12.4394 6.4502 12.5379C6.493 12.6363 6.55477 12.7254 6.63198 12.8L9.70398 15.872C9.77835 15.947 9.86684 16.0065 9.96432 16.0471C10.0618 16.0877 10.1664 16.1086 10.272 16.1086C10.3776 16.1086 10.4822 16.0877 10.5796 16.0471C10.6771 16.0065 10.7656 15.947 10.84 15.872L17.368 9.344C17.4492 9.26909 17.514 9.17817 17.5583 9.07697C17.6026 8.97577 17.6255 8.86649 17.6255 8.756C17.6255 8.64552 17.6026 8.53624 17.5583 8.43504C17.514 8.33384 17.4492 8.24292 17.368 8.168Z" fill="#00AD6F"/>
</svg>
