<svg width="192" height="542" viewBox="0 0 192 542" fill="none" xmlns="http://www.w3.org/2000/svg">
<path d="M-47.1364 0.947657C75.7747 0.70102 175.634 103.304 175.873 230.152C176.112 357 76.6406 460.003 -46.2705 460.25C-169.182 460.496 -269.041 357.893 -269.28 231.045C-269.519 104.198 -170.047 1.19429 -47.1364 0.947657Z" stroke="#D5DAE1"/>
<path d="M-88.9225 81.7501C33.9886 81.5035 133.848 184.107 134.087 310.954C134.326 437.802 34.8544 540.805 -88.0566 541.052C-210.968 541.299 -310.827 438.695 -311.066 311.848C-311.305 185 -211.834 81.9968 -88.9225 81.7501Z" stroke="#D5DAE1"/>
<path d="M172.308 275.038L171.849 290.976L185.466 298.949L169.454 298.983L161.017 312.784L161.476 296.846L147.859 288.873L163.871 288.839L172.308 275.038Z" fill="#FC7F39"/>
</svg>
