<svg width="192" height="542" viewBox="0 0 192 542" fill="none" xmlns="http://www.w3.org/2000/svg">
<path d="M-47.1364 0.947657C75.7747 0.70102 175.634 103.304 175.873 230.152C176.112 357 76.6406 460.003 -46.2705 460.25C-169.182 460.496 -269.041 357.893 -269.28 231.045C-269.519 104.198 -170.047 1.19429 -47.1364 0.947657Z" stroke="#80818C"/>
<path d="M-88.9225 81.7501C33.9886 81.5035 133.848 184.107 134.087 310.954C134.326 437.802 34.8544 540.805 -88.0566 541.052C-210.968 541.299 -310.827 438.695 -311.066 311.848C-311.305 185 -211.834 81.9968 -88.9225 81.7501Z" stroke="#80818C"/>
<path d="M171.885 276.454L171.466 290.975L171.46 291.192L171.648 291.302L184.07 298.575L169.463 298.606L169.242 298.607L169.127 298.795L161.441 311.368L161.859 296.847L161.865 296.63L161.678 296.52L149.255 289.247L163.863 289.216L164.083 289.215L164.198 289.027L171.885 276.454Z" fill="#FC7F39" stroke="#80818C" stroke-width="0.76"/>
</svg>
