<svg width="10" height="10" viewBox="0 0 10 10" fill="none" xmlns="http://www.w3.org/2000/svg">
<path d="M9.28239 4.46754L5.5324 0.717544C5.46107 0.649264 5.37696 0.59574 5.2849 0.560044C5.1023 0.485031 4.89749 0.485031 4.7149 0.560044C4.62283 0.59574 4.53872 0.649264 4.4674 0.717544L0.717395 4.46754C0.647466 4.53747 0.591996 4.62049 0.55415 4.71186C0.516305 4.80322 0.496826 4.90115 0.496826 5.00004C0.496826 5.19977 0.576167 5.39132 0.717395 5.53254C0.858623 5.67377 1.05017 5.75311 1.2499 5.75311C1.44962 5.75311 1.64117 5.67377 1.7824 5.53254L4.2499 3.05754V8.75004C4.2499 8.94896 4.32891 9.13972 4.46957 9.28037C4.61022 9.42103 4.80098 9.50004 4.9999 9.50004C5.19881 9.50004 5.38957 9.42103 5.53023 9.28037C5.67088 9.13972 5.7499 8.94896 5.7499 8.75004V3.05754L8.2174 5.53254C8.28712 5.60284 8.37007 5.65864 8.46146 5.69671C8.55286 5.73479 8.65089 5.75439 8.7499 5.75439C8.8489 5.75439 8.94693 5.73479 9.03833 5.69671C9.12972 5.65864 9.21267 5.60284 9.28239 5.53254C9.35269 5.46282 9.40849 5.37987 9.44656 5.28848C9.48464 5.19708 9.50424 5.09905 9.50424 5.00004C9.50424 4.90104 9.48464 4.80301 9.44656 4.71161C9.40849 4.62022 9.35269 4.53727 9.28239 4.46754Z" fill="#0BB678"/>
</svg>
