<svg width="10" height="10" viewBox="0 0 10 10" fill="none" xmlns="http://www.w3.org/2000/svg">
<path d="M9.28239 5.53246L5.5324 9.28246C5.46107 9.35074 5.37696 9.40426 5.2849 9.43996C5.1023 9.51497 4.89749 9.51497 4.7149 9.43996C4.62283 9.40426 4.53872 9.35074 4.4674 9.28246L0.717395 5.53246C0.647466 5.46253 0.591996 5.37951 0.55415 5.28814C0.516305 5.19678 0.496826 5.09885 0.496826 4.99996C0.496826 4.80023 0.576167 4.60868 0.717395 4.46746C0.858623 4.32623 1.05017 4.24689 1.2499 4.24689C1.44962 4.24689 1.64117 4.32623 1.7824 4.46746L4.2499 6.94246V1.24996C4.2499 1.05104 4.32891 0.860278 4.46957 0.719625C4.61022 0.578973 4.80098 0.499956 4.9999 0.499956C5.19881 0.499956 5.38957 0.578973 5.53023 0.719625C5.67088 0.860278 5.7499 1.05104 5.7499 1.24996V6.94246L8.2174 4.46746C8.28712 4.39716 8.37007 4.34136 8.46146 4.30329C8.55286 4.26521 8.65089 4.24561 8.7499 4.24561C8.8489 4.24561 8.94693 4.26521 9.03833 4.30329C9.12972 4.34136 9.21267 4.39716 9.28239 4.46746C9.35269 4.53718 9.40849 4.62013 9.44656 4.71152C9.48464 4.80292 9.50424 4.90095 9.50424 4.99996C9.50424 5.09896 9.48464 5.19699 9.44656 5.28839C9.40849 5.37978 9.35269 5.46273 9.28239 5.53246Z" fill="#E10808"/>
</svg>
