<svg width="72" height="72" viewBox="0 0 72 72" fill="none" xmlns="http://www.w3.org/2000/svg">
<path fill-rule="evenodd" clip-rule="evenodd" d="M36 71C55.33 71 71 55.33 71 36C71 16.67 55.33 1 36 1C16.67 1 1 16.67 1 36C1 55.33 16.67 71 36 71Z" stroke="#F2F4FC"/>
<path fill-rule="evenodd" clip-rule="evenodd" d="M36 60C49.2548 60 60 49.2548 60 36C60 22.7452 49.2548 12 36 12C22.7452 12 12 22.7452 12 36C12 49.2548 22.7452 60 36 60Z" fill="#9FE2FF"/>
<path d="M45.84 29.56C45.7072 28.7084 45.3081 27.9207 44.7 27.31C44.0892 26.7019 43.3016 26.3028 42.45 26.17C40.6879 25.9039 38.8908 25.9854 37.16 26.41C37.0917 26.424 37.0248 26.4441 36.96 26.47C34.4274 27.1083 32.1153 28.4216 30.27 30.27C28.4141 32.1286 27.0943 34.4537 26.45 37C26.45 37.06 26.45 37.12 26.4 37.19C25.9754 38.9241 25.8939 40.7246 26.16 42.49C26.3028 43.3238 26.7011 44.0926 27.3 44.69C27.9108 45.2981 28.6984 45.6972 29.55 45.83C30.2377 45.9418 30.9333 45.9986 31.63 46C32.7291 45.9936 33.8235 45.856 34.89 45.59H35.03C37.5659 44.948 39.8816 43.6337 41.7331 41.7858C43.5845 39.9378 44.9032 37.6246 45.55 35.09C45.55 35.03 45.55 34.97 45.6 34.9C46.0299 33.153 46.1114 31.3385 45.84 29.56ZM40.37 28C40.9596 27.9969 41.5483 28.0437 42.13 28.14C42.2116 28.1573 42.2919 28.1807 42.37 28.21L41 29.59L39.46 28.05C39.76 28 40.07 28 40.37 28ZM31.67 31.67C33.1755 30.1726 35.032 29.0759 37.07 28.48L39.59 31L37.44 33.15L36.71 32.42C36.617 32.3263 36.5064 32.2519 36.3846 32.2011C36.2627 32.1503 36.132 32.1242 36 32.1242C35.868 32.1242 35.7373 32.1503 35.6154 32.2011C35.4936 32.2519 35.383 32.3263 35.29 32.42C35.1038 32.6073 34.9992 32.8608 34.9992 33.125C34.9992 33.3892 35.1038 33.6426 35.29 33.83L36.02 34.56L34.56 36L33.83 35.27C33.6426 35.0837 33.3892 34.9792 33.125 34.9792C32.8608 34.9792 32.6074 35.0837 32.42 35.27C32.3263 35.3629 32.2519 35.4735 32.2011 35.5954C32.1503 35.7173 32.1242 35.848 32.1242 35.98C32.1242 36.112 32.1503 36.2427 32.2011 36.3646C32.2519 36.4864 32.3263 36.597 32.42 36.69L33.15 37.42L31 39.59L28.49 37.08C29.0796 35.0385 30.1731 33.1781 31.67 31.67ZM28.21 42.37C28.1807 42.2918 28.1573 42.2116 28.14 42.13C27.9886 41.2486 27.9416 40.3524 28 39.46L29.59 41L28.21 42.37ZM29.87 43.86C29.7884 43.8426 29.7082 43.8192 29.63 43.79L31 42.41L32.54 44C31.6476 44.0584 30.7514 44.0114 29.87 43.86ZM40.33 40.33C38.8219 41.8269 36.9615 42.9204 34.92 43.51L32.41 41L34.56 38.85L35.29 39.58C35.3826 39.6732 35.4926 39.7473 35.6138 39.798C35.7351 39.8487 35.8651 39.8751 35.9965 39.8755C36.1279 39.876 36.2581 39.8506 36.3796 39.8007C36.5012 39.7509 36.6118 39.6776 36.705 39.585C36.7982 39.4924 36.8723 39.3824 36.923 39.2611C36.9738 39.1399 37.0001 39.0099 37.0006 38.8785C37.001 38.7471 36.9756 38.6169 36.9258 38.4954C36.8759 38.3738 36.8026 38.2632 36.71 38.17L36 37.44L37.44 36L38.17 36.73C38.2634 36.8227 38.3743 36.896 38.4961 36.9458C38.6179 36.9955 38.7484 37.0207 38.88 37.02C39.0778 37.0192 39.2709 36.9597 39.4348 36.8491C39.5988 36.7386 39.7263 36.5819 39.8013 36.3988C39.8762 36.2158 39.8952 36.0147 39.8558 35.8208C39.8164 35.627 39.7204 35.4493 39.58 35.31L38.85 34.58L41 32.41L43.51 34.92C42.9204 36.9614 41.8269 38.8218 40.33 40.33ZM44 32.54L42.41 31L43.79 29.63C43.8193 29.7081 43.8427 29.7884 43.86 29.87C44.0114 30.7514 44.0584 31.6476 44 32.54Z" fill="black"/>
</svg>
