<svg width="72" height="72" viewBox="0 0 72 72" fill="none" xmlns="http://www.w3.org/2000/svg">
<path fill-rule="evenodd" clip-rule="evenodd" d="M36 71C55.33 71 71 55.33 71 36C71 16.67 55.33 1 36 1C16.67 1 1 16.67 1 36C1 55.33 16.67 71 36 71Z" stroke="#F2F4FC"/>
<path fill-rule="evenodd" clip-rule="evenodd" d="M36 60C49.2548 60 60 49.2548 60 36C60 22.7452 49.2548 12 36 12C22.7452 12 12 22.7452 12 36C12 49.2548 22.7452 60 36 60Z" fill="#C3F9E6"/>
<path d="M38.36 38.23C37.6915 38.769 36.8587 39.0629 36 39.0629C35.1413 39.0629 34.3085 38.769 33.64 38.23C33.4358 38.0603 33.1725 37.9786 32.9081 38.003C32.6437 38.0274 32.3997 38.1558 32.23 38.36C32.0603 38.5642 31.9786 38.8275 32.003 39.0919C32.0274 39.3563 32.1558 39.6003 32.36 39.77C33.3813 40.6226 34.6696 41.0896 36 41.0896C37.3304 41.0896 38.6187 40.6226 39.64 39.77C39.8442 39.6003 39.9726 39.3563 39.997 39.0919C40.0214 38.8275 39.9397 38.5642 39.77 38.36C39.686 38.2589 39.5828 38.1753 39.4665 38.1141C39.3501 38.0528 39.2229 38.0151 39.0919 38.003C38.8275 37.9786 38.5642 38.0603 38.36 38.23ZM33.21 34.54C33.3974 34.7263 33.6508 34.8308 33.915 34.8308C34.1792 34.8308 34.4326 34.7263 34.62 34.54C34.8063 34.3526 34.9108 34.0992 34.9108 33.835C34.9108 33.5708 34.8063 33.3174 34.62 33.13C34.0477 32.587 33.2889 32.2843 32.5 32.2843C31.7111 32.2843 30.9523 32.587 30.38 33.13C30.2753 33.2196 30.1903 33.33 30.1303 33.454C30.0703 33.5781 30.0365 33.7132 30.0312 33.8509C30.0259 33.9887 30.0491 34.126 30.0994 34.2543C30.1496 34.3826 30.2259 34.4992 30.3234 34.5967C30.4208 34.6941 30.5374 34.7704 30.6657 34.8206C30.794 34.8709 30.9313 34.8941 31.0691 34.8888C31.2068 34.8835 31.3419 34.8497 31.466 34.7897C31.59 34.7297 31.7004 34.6447 31.79 34.54C31.883 34.4463 31.9936 34.3719 32.1154 34.3211C32.2373 34.2703 32.368 34.2442 32.5 34.2442C32.632 34.2442 32.7627 34.2703 32.8846 34.3211C33.0064 34.3719 33.117 34.4463 33.21 34.54ZM41.62 33.13C41.0477 32.587 40.2889 32.2843 39.5 32.2843C38.7111 32.2843 37.9523 32.587 37.38 33.13C37.2162 33.3213 37.1306 33.5674 37.1403 33.8191C37.15 34.0707 37.2543 34.3095 37.4324 34.4876C37.6105 34.6657 37.8493 34.77 38.101 34.7797C38.3526 34.7894 38.5987 34.7038 38.79 34.54C38.883 34.4463 38.9936 34.3719 39.1154 34.3211C39.2373 34.2703 39.368 34.2442 39.5 34.2442C39.632 34.2442 39.7627 34.2703 39.8846 34.3211C40.0064 34.3719 40.117 34.4463 40.21 34.54C40.3974 34.7263 40.6508 34.8308 40.915 34.8308C41.1792 34.8308 41.4326 34.7263 41.62 34.54C41.8063 34.3526 41.9108 34.0992 41.9108 33.835C41.9108 33.5708 41.8063 33.3174 41.62 33.13ZM36 26C34.0222 26 32.0888 26.5865 30.4443 27.6853C28.7998 28.7841 27.5181 30.3459 26.7612 32.1732C26.0043 34.0004 25.8063 36.0111 26.1922 37.9509C26.578 39.8907 27.5304 41.6725 28.9289 43.0711C30.3275 44.4696 32.1093 45.422 34.0491 45.8079C35.9889 46.1937 37.9996 45.9957 39.8268 45.2388C41.6541 44.4819 43.2159 43.2002 44.3147 41.5557C45.4135 39.9112 46 37.9778 46 36C46 34.6868 45.7413 33.3864 45.2388 32.1732C44.7363 30.9599 43.9997 29.8575 43.0711 28.9289C42.1425 28.0003 41.0401 27.2638 39.8268 26.7612C38.6136 26.2587 37.3132 26 36 26ZM36 44C34.4178 44 32.871 43.5308 31.5554 42.6518C30.2398 41.7727 29.2145 40.5233 28.609 39.0615C28.0035 37.5997 27.845 35.9911 28.1537 34.4393C28.4624 32.8874 29.2243 31.462 30.3432 30.3431C31.462 29.2243 32.8874 28.4624 34.4393 28.1537C35.9911 27.845 37.5997 28.0035 39.0615 28.609C40.5233 29.2145 41.7727 30.2398 42.6518 31.5554C43.5308 32.871 44 34.4177 44 36C44 38.1217 43.1572 40.1566 41.6569 41.6569C40.1566 43.1571 38.1217 44 36 44Z" fill="black"/>
</svg>
