<svg width="72" height="72" viewBox="0 0 72 72" fill="none" xmlns="http://www.w3.org/2000/svg">
<path fill-rule="evenodd" clip-rule="evenodd" d="M36 71C55.33 71 71 55.33 71 36C71 16.67 55.33 1 36 1C16.67 1 1 16.67 1 36C1 55.33 16.67 71 36 71Z" stroke="#F2F4FC"/>
<path fill-rule="evenodd" clip-rule="evenodd" d="M36 60C49.2548 60 60 49.2548 60 36C60 22.7452 49.2548 12 36 12C22.7452 12 12 22.7452 12 36C12 49.2548 22.7452 60 36 60Z" fill="#FFC7B7"/>
<path d="M43 44H29C28.7348 44 28.4804 44.1054 28.2929 44.2929C28.1054 44.4804 28 44.7348 28 45C28 45.2652 28.1054 45.5196 28.2929 45.7071C28.4804 45.8946 28.7348 46 29 46H43C43.2652 46 43.5196 45.8946 43.7071 45.7071C43.8946 45.5196 44 45.2652 44 45C44 44.7348 43.8946 44.4804 43.7071 44.2929C43.5196 44.1054 43.2652 44 43 44ZM35.29 41.71C35.3851 41.801 35.4972 41.8724 35.62 41.92C35.7397 41.9729 35.8691 42.0002 36 42.0002C36.1309 42.0002 36.2603 41.9729 36.38 41.92C36.5028 41.8724 36.6149 41.801 36.71 41.71L40.71 37.71C40.8983 37.5217 41.0041 37.2663 41.0041 37C41.0041 36.7337 40.8983 36.4783 40.71 36.29C40.5217 36.1017 40.2663 35.9959 40 35.9959C39.7337 35.9959 39.4783 36.1017 39.29 36.29L37 38.59V27C37 26.7348 36.8946 26.4804 36.7071 26.2929C36.5196 26.1054 36.2652 26 36 26C35.7348 26 35.4804 26.1054 35.2929 26.2929C35.1054 26.4804 35 26.7348 35 27V38.59L32.71 36.29C32.6168 36.1968 32.5061 36.1228 32.3842 36.0723C32.2624 36.0219 32.1319 35.9959 32 35.9959C31.8681 35.9959 31.7376 36.0219 31.6158 36.0723C31.4939 36.1228 31.3832 36.1968 31.29 36.29C31.1968 36.3832 31.1228 36.4939 31.0723 36.6158C31.0219 36.7376 30.9959 36.8681 30.9959 37C30.9959 37.1319 31.0219 37.2624 31.0723 37.3842C31.1228 37.5061 31.1968 37.6168 31.29 37.71L35.29 41.71Z" fill="black"/>
</svg>
