<svg width="24" height="24" viewBox="0 0 24 24" fill="none" xmlns="http://www.w3.org/2000/svg">
<path d="M12.0001 15.5C11.8023 15.5 11.609 15.5587 11.4445 15.6685C11.2801 15.7784 11.1519 15.9346 11.0762 16.1173C11.0005 16.3 10.9807 16.5011 11.0193 16.6951C11.0579 16.8891 11.1531 17.0673 11.293 17.2071C11.4328 17.347 11.611 17.4422 11.805 17.4808C11.999 17.5194 12.2001 17.4996 12.3828 17.4239C12.5655 17.3482 12.7217 17.22 12.8316 17.0556C12.9415 16.8911 13.0001 16.6978 13.0001 16.5C13.0001 16.2348 12.8947 15.9804 12.7072 15.7929C12.5197 15.6054 12.2653 15.5 12.0001 15.5ZM12.0001 2C11.8125 2 11.6251 2.00951 11.4385 2.0285C8.83958 2.17313 6.39969 3.32602 4.63779 5.24194C2.87589 7.15786 1.93103 9.6856 2.0042 12.2875C2.07737 14.8893 3.1628 17.36 5.02959 19.1738C6.89638 20.9877 9.39721 22.0017 12.0001 22C12.1877 22 12.3751 21.9905 12.5618 21.9715C15.1606 21.8269 17.6005 20.674 19.3624 18.7581C21.1243 16.8421 22.0692 14.3144 21.996 11.7125C21.9228 9.11068 20.8374 6.64003 18.9706 4.82616C17.1038 3.01229 14.603 1.99834 12.0001 2ZM12.0001 20C10.3759 20.0023 8.78963 19.5094 7.45268 18.5872C6.11573 17.6649 5.09165 16.357 4.51694 14.8379C3.94223 13.3188 3.8442 11.6606 4.23592 10.0844C4.62763 8.50815 5.49049 7.08874 6.70945 6.01538C6.47691 6.8326 6.43745 7.69268 6.59418 8.52776C6.75091 9.36284 7.09954 10.1501 7.61257 10.8274C8.1256 11.5047 8.78899 12.0535 9.55041 12.4305C10.3118 12.8076 11.1504 13.0025 12.0001 13C12.9284 13 13.8186 13.3688 14.475 14.0251C15.1314 14.6815 15.5001 15.5717 15.5001 16.5C15.5001 17.4283 15.1314 18.3185 14.475 18.9749C13.8186 19.6313 12.9284 20 12.0001 20ZM17.2908 17.9846C17.5233 17.1674 17.5628 16.3073 17.406 15.4722C17.2493 14.6372 16.9007 13.8499 16.3876 13.1726C15.8746 12.4953 15.2112 11.9465 14.4498 11.5695C13.6884 11.1924 12.8498 10.9975 12.0001 11C11.0718 11 10.1816 10.6313 9.52523 9.97488C8.86885 9.3185 8.5001 8.42826 8.5001 7.5C8.5001 6.57174 8.86885 5.68151 9.52523 5.02513C10.1816 4.36875 11.0718 4 12.0001 4C13.6243 3.99774 15.2106 4.49059 16.5475 5.41285C17.8845 6.3351 18.9086 7.64296 19.4833 9.16207C20.058 10.6812 20.156 12.3394 19.7643 13.9156C19.3726 15.4919 18.5097 16.9113 17.2908 17.9846ZM12.0001 6.5C11.8023 6.5 11.609 6.55865 11.4445 6.66853C11.2801 6.77841 11.1519 6.93459 11.0762 7.11732C11.0005 7.30004 10.9807 7.50111 11.0193 7.69509C11.0579 7.88907 11.1531 8.06726 11.293 8.20711C11.4328 8.34696 11.611 8.4422 11.805 8.48079C11.999 8.51937 12.2001 8.49957 12.3828 8.42388C12.5655 8.34819 12.7217 8.22002 12.8316 8.05557C12.9415 7.89112 13.0001 7.69778 13.0001 7.5C13.0001 7.23479 12.8947 6.98043 12.7072 6.7929C12.5197 6.60536 12.2653 6.5 12.0001 6.5Z" fill="black"/>
</svg>
