<svg width="32" height="32" viewBox="0 0 32 32" fill="none" xmlns="http://www.w3.org/2000/svg">
<path d="M29.3333 6.77332C29.3344 5.96027 29.0941 5.1652 28.643 4.48882C28.1918 3.81245 27.55 3.28522 26.7989 2.97393C26.0478 2.66264 25.2212 2.58131 24.4239 2.74023C23.6265 2.89915 22.8943 3.29118 22.3199 3.86665L18.5733 7.61332L9.91992 4.73332C9.68953 4.6609 9.4438 4.65242 9.20896 4.70878C8.97413 4.76514 8.75901 4.88423 8.58658 5.05332L5.41325 8.19998C5.26289 8.35209 5.15133 8.53813 5.08798 8.74241C5.02463 8.94669 5.01135 9.16321 5.04926 9.3737C5.08718 9.58419 5.17517 9.78247 5.30582 9.95181C5.43647 10.1211 5.60593 10.2566 5.79992 10.3466L12.7066 13.48L9.23992 16.9466L6.95992 15.8C6.71375 15.6668 6.43189 15.6144 6.15429 15.6503C5.8767 15.6862 5.61743 15.8085 5.41325 16L3.05325 18.4133C2.80492 18.6631 2.66553 19.0011 2.66553 19.3533C2.66553 19.7056 2.80492 20.0435 3.05325 20.2933L11.7066 28.9466C11.9564 29.195 12.2943 29.3344 12.6466 29.3344C12.9988 29.3344 13.3368 29.195 13.5866 28.9466L15.9999 26.5867C16.2 26.3886 16.3323 26.1323 16.3778 25.8545C16.4233 25.5766 16.3797 25.2915 16.2533 25.04L15.1066 22.76L18.5733 19.2933L21.7066 26.2C21.7967 26.394 21.9321 26.5634 22.1014 26.6941C22.2708 26.8247 22.469 26.9127 22.6795 26.9506C22.89 26.9886 23.1065 26.9753 23.3108 26.9119C23.5151 26.8486 23.7011 26.737 23.8533 26.5867L26.9999 23.44C27.169 23.2676 27.2881 23.0524 27.3445 22.8176C27.4008 22.5828 27.3923 22.337 27.3199 22.1066L24.4399 13.4533L28.1333 9.67998C28.5162 9.2994 28.8195 8.84638 29.0256 8.34733C29.2316 7.84829 29.3362 7.31321 29.3333 6.77332V6.77332ZM26.2399 7.79998L21.9199 12.12C21.7508 12.2924 21.6317 12.5075 21.5754 12.7424C21.519 12.9772 21.5275 13.2229 21.5999 13.4533L24.4799 22.0933L23.2799 23.2933L20.1466 16.4C20.0577 16.2042 19.9227 16.0328 19.7532 15.9005C19.5837 15.7682 19.3847 15.6788 19.1733 15.64C18.96 15.6011 18.7405 15.6147 18.5337 15.6798C18.3269 15.7448 18.1391 15.8593 17.9866 16.0133L12.4933 21.56C12.296 21.757 12.1655 22.0109 12.1201 22.2859C12.0746 22.561 12.1166 22.8433 12.2399 23.0933L13.3333 25.3333L12.5866 26.08L5.87992 19.36L6.66658 18.6666L8.94658 19.8133C9.19657 19.9367 9.47894 19.9786 9.75398 19.9331C10.029 19.8877 10.2829 19.7572 10.4799 19.56L15.9999 14.0133C16.1531 13.8613 16.2671 13.6744 16.3322 13.4686C16.3972 13.2628 16.4113 13.0443 16.3733 12.8319C16.3353 12.6194 16.2462 12.4194 16.1138 12.2489C15.9815 12.0785 15.8097 11.9427 15.6133 11.8533L8.66658 8.71998L9.86658 7.51998L18.5066 10.4C18.737 10.4724 18.9827 10.4809 19.2175 10.4245C19.4524 10.3682 19.6675 10.2491 19.8399 10.08L24.1599 5.75998C24.2928 5.62412 24.4515 5.51617 24.6266 5.44247C24.8018 5.36877 24.9899 5.3308 25.1799 5.3308C25.37 5.3308 25.5581 5.36877 25.7332 5.44247C25.9084 5.51617 26.0671 5.62412 26.1999 5.75998C26.339 5.88884 26.449 6.04588 26.5226 6.22062C26.5961 6.39536 26.6316 6.58378 26.6266 6.77332C26.6338 6.96158 26.6033 7.14939 26.5369 7.3257C26.4705 7.50201 26.3695 7.66326 26.2399 7.79998V7.79998Z" fill="#1E2238"/>
</svg>
