<svg width="32" height="32" viewBox="0 0 32 32" fill="none" xmlns="http://www.w3.org/2000/svg">
<path d="M29.1198 7.41335C28.9427 6.27791 28.4106 5.2277 27.5998 4.41335V4.41335C26.7855 3.60253 25.7353 3.07043 24.5998 2.89335C22.2504 2.53857 19.8542 2.64728 17.5465 3.21335C17.4554 3.23202 17.3662 3.25879 17.2798 3.29335C13.903 4.14446 10.8202 5.89551 8.35983 8.36002C5.88529 10.8381 4.12562 13.9383 3.26649 17.3334C3.26649 17.4134 3.26649 17.4933 3.19983 17.5867C2.63372 19.8989 2.52501 22.2994 2.87983 24.6534C3.07016 25.7651 3.60133 26.7901 4.39983 27.5867C5.21418 28.3975 6.26438 28.9296 7.39983 29.1067C8.31679 29.2558 9.24416 29.3316 10.1732 29.3334C11.6386 29.3249 13.0979 29.1414 14.5198 28.7867H14.7065C18.0877 27.9307 21.1753 26.1784 23.6439 23.7144C26.1125 21.2505 27.8707 18.1662 28.7332 14.7867C28.7332 14.7067 28.7332 14.6267 28.7998 14.5333C29.373 12.204 29.4817 9.78467 29.1198 7.41335V7.41335ZM21.8265 5.33335C22.6126 5.3292 23.3976 5.39164 24.1732 5.52002C24.282 5.54314 24.389 5.57433 24.4932 5.61335L22.6665 7.45335L20.6132 5.40002C21.0132 5.33335 21.4265 5.33335 21.8265 5.33335ZM10.2265 10.2267C12.2339 8.23017 14.7091 6.76795 17.4265 5.97335L20.7865 9.33335L17.9198 12.2L16.9465 11.2267C16.8225 11.1017 16.6751 11.0025 16.5126 10.9348C16.3501 10.8671 16.1758 10.8323 15.9998 10.8323C15.8238 10.8323 15.6495 10.8671 15.4871 10.9348C15.3246 11.0025 15.1771 11.1017 15.0532 11.2267C14.8048 11.4765 14.6654 11.8144 14.6654 12.1667C14.6654 12.5189 14.8048 12.8569 15.0532 13.1067L16.0265 14.08L14.0798 16L13.1065 15.0267C12.8567 14.7783 12.5187 14.639 12.1665 14.639C11.8142 14.639 11.4763 14.7783 11.2265 15.0267C11.1015 15.1506 11.0023 15.2981 10.9346 15.4606C10.8669 15.6231 10.8321 15.7973 10.8321 15.9733C10.8321 16.1494 10.8669 16.3236 10.9346 16.4861C11.0023 16.6486 11.1015 16.7961 11.2265 16.92L12.1998 17.8934L9.33316 20.7867L5.98649 17.44C6.77259 14.7181 8.23065 12.2375 10.2265 10.2267V10.2267ZM5.61316 24.4934C5.57414 24.3892 5.54295 24.2822 5.51983 24.1734C5.31794 22.9981 5.25528 21.8032 5.33316 20.6134L7.45316 22.6667L5.61316 24.4934ZM7.82649 26.48C7.71766 26.4569 7.61069 26.4257 7.50649 26.3867L9.33316 24.5467L11.3865 26.6667C10.1966 26.7446 9.0017 26.6819 7.82649 26.48V26.48ZM21.7732 21.7734C19.7623 23.7692 17.2818 25.2273 14.5598 26.0134L11.2132 22.6667L14.0798 19.8L15.0532 20.7734C15.1766 20.8977 15.3233 20.9965 15.4849 21.0641C15.6466 21.1317 15.8199 21.1668 15.9951 21.1674C16.1703 21.168 16.3439 21.1341 16.506 21.0677C16.6681 21.0012 16.8155 20.9035 16.9398 20.78C17.0641 20.6566 17.1629 20.5099 17.2305 20.3482C17.2982 20.1866 17.3333 20.0133 17.3339 19.8381C17.3345 19.6629 17.3006 19.4893 17.2342 19.3272C17.1677 19.1651 17.0699 19.0177 16.9465 18.8934L15.9998 17.92L17.9198 16L18.8932 16.9733C19.0177 17.0969 19.1655 17.1947 19.328 17.261C19.4904 17.3274 19.6644 17.361 19.8398 17.36C20.1035 17.3589 20.361 17.2796 20.5796 17.1322C20.7983 16.9848 20.9683 16.7759 21.0682 16.5318C21.1681 16.2878 21.1934 16.0196 21.1409 15.7612C21.0884 15.5028 20.9604 15.2657 20.7732 15.08L19.7998 14.1067L22.6665 11.2133L26.0132 14.56C25.2271 17.282 23.769 19.7625 21.7732 21.7734V21.7734ZM26.6665 11.3867L24.5465 9.33335L26.3865 7.50668C26.4255 7.61088 26.4567 7.71785 26.4798 7.82668C26.6817 9.00189 26.7444 10.1968 26.6665 11.3867Z" fill="#1E2238"/>
</svg>
