<svg width="213" height="400" viewBox="0 0 213 400" fill="none" xmlns="http://www.w3.org/2000/svg">
<path d="M189.635 0.7015C94.3165 0.510231 16.8762 80.08 16.6908 178.449C16.5053 276.818 93.645 356.698 188.964 356.89C284.283 357.081 361.723 277.511 361.909 179.142C362.094 80.7727 284.954 0.892769 189.635 0.7015Z" stroke="#D5DAE1" stroke-width="0.70873"/>
<path d="M202.535 42.9541C107.216 42.7628 29.7754 122.333 29.59 220.702C29.4045 319.071 106.544 398.951 201.863 399.142C297.182 399.333 374.622 319.764 374.808 221.394C374.993 123.025 297.853 43.1453 202.535 42.9541Z" stroke="#D5DAE1" stroke-width="0.70873"/>
<path d="M17.3309 175.958L13.2895 187.899L1.00391 190.065L12.8636 194.492L15.3232 207.041L19.3646 195.101L31.6502 192.935L19.7905 188.507L17.3309 175.958Z" fill="#EFAC00"/>
</svg>
