<svg width="16" height="15" viewBox="0 0 16 15" fill="none" xmlns="http://www.w3.org/2000/svg">
<path d="M7.04896 0.927051C7.34831 0.00574082 8.65172 0.0057413 8.95107 0.927052L10.0206 4.21885C10.1545 4.63087 10.5385 4.90983 10.9717 4.90983H14.4329C15.4016 4.90983 15.8044 6.14945 15.0207 6.71885L12.2205 8.75329C11.87 9.00793 11.7234 9.4593 11.8572 9.87132L12.9268 13.1631C13.2262 14.0844 12.1717 14.8506 11.388 14.2812L8.5878 12.2467C8.23731 11.9921 7.76272 11.9921 7.41223 12.2467L4.61206 14.2812C3.82835 14.8506 2.77387 14.0844 3.07322 13.1631L4.14279 9.87132C4.27666 9.4593 4.13 9.00793 3.77952 8.75329L0.979348 6.71885C0.195634 6.14945 0.59841 4.90983 1.56713 4.90983H5.02833C5.46156 4.90983 5.84551 4.63087 5.97939 4.21885L7.04896 0.927051Z" fill="#FACC15"/>
</svg>
