<svg width="18" height="17" viewBox="0 0 18 17" fill="none" xmlns="http://www.w3.org/2000/svg">
<path d="M7.95389 1.31977C8.28318 0.306332 9.71693 0.306332 10.0462 1.31977L11.2227 4.94075C11.37 5.39398 11.7924 5.70083 12.2689 5.70083H16.0762C17.1418 5.70083 17.5849 7.06441 16.7228 7.69075L13.6426 9.92864C13.2571 10.2087 13.0957 10.7052 13.243 11.1585L14.4195 14.7795C14.7488 15.7929 13.5889 16.6356 12.7268 16.0093L9.64662 13.7714C9.26108 13.4913 8.73903 13.4913 8.35349 13.7714L5.2733 16.0093C4.41122 16.6356 3.25129 15.7929 3.58058 14.7795L4.75711 11.1585C4.90437 10.7052 4.74304 10.2087 4.35751 9.92864L1.27732 7.69075C0.415237 7.06441 0.85829 5.70083 1.92389 5.70083H5.73121C6.20775 5.70083 6.6301 5.39398 6.77737 4.94075L7.95389 1.31977Z" fill="#FACC15"/>
</svg>
