<svg width="24" height="24" viewBox="0 0 24 24" fill="none" xmlns="http://www.w3.org/2000/svg">
<path d="M7 9L11.38 12.49C11.5565 12.6295 11.775 12.7054 12 12.7054C12.225 12.7054 12.4435 12.6295 12.62 12.49L17 9M20 19H4C3.73478 19 3.48043 18.8946 3.29289 18.7071C3.10536 18.5196 3 18.2652 3 18V6C3 5.73478 3.10536 5.48043 3.29289 5.29289C3.48043 5.10536 3.73478 5 4 5H20C20.2652 5 20.5196 5.10536 20.7071 5.29289C20.8946 5.48043 21 5.73478 21 6V18C21 18.2652 20.8946 18.5196 20.7071 18.7071C20.5196 18.8946 20.2652 19 20 19Z" stroke="#FF460C" stroke-width="2" stroke-linecap="round" stroke-linejoin="round"/>
</svg>
