<svg width="21" height="20" viewBox="0 0 21 20" fill="none" xmlns="http://www.w3.org/2000/svg">
<path d="M18.3398 7.32L4.33976 0.319999C3.78725 0.0450077 3.16338 -0.0528909 2.55319 0.0396503C1.94301 0.132191 1.37622 0.410669 0.93009 0.837114C0.483963 1.26356 0.180212 1.81722 0.0602519 2.42261C-0.0597082 3.028 0.00996047 3.65565 0.259759 4.22L2.65976 9.59C2.71422 9.71983 2.74226 9.85921 2.74226 10C2.74226 10.1408 2.71422 10.2802 2.65976 10.41L0.259759 15.78C0.0564592 16.2367 -0.0294852 16.737 0.00973622 17.2354C0.0489576 17.7337 0.212101 18.2144 0.484341 18.6337C0.756581 19.053 1.12928 19.3976 1.56858 19.6362C2.00788 19.8748 2.49984 19.9999 2.99976 20C3.46799 19.9953 3.92925 19.886 4.34976 19.68L18.3498 12.68C18.8464 12.4302 19.2638 12.0473 19.5555 11.5741C19.8471 11.1009 20.0016 10.5559 20.0016 10C20.0016 9.44411 19.8471 8.89915 19.5555 8.42592C19.2638 7.95269 18.8464 7.56981 18.3498 7.32H18.3398ZM17.4498 10.89L3.44976 17.89C3.26592 17.9783 3.05949 18.0082 2.85815 17.9758C2.6568 17.9435 2.47017 17.8503 2.32327 17.7089C2.17638 17.5674 2.07624 17.3844 2.03629 17.1844C1.99634 16.9844 2.01849 16.777 2.09976 16.59L4.48976 11.22C4.5207 11.1483 4.54741 11.0748 4.56976 11H11.4598C11.725 11 11.9793 10.8946 12.1669 10.7071C12.3544 10.5196 12.4598 10.2652 12.4598 10C12.4598 9.73478 12.3544 9.48043 12.1669 9.29289C11.9793 9.10536 11.725 9 11.4598 9H4.56976C4.54741 8.92517 4.5207 8.85171 4.48976 8.78L2.09976 3.41C2.01849 3.22296 1.99634 3.01555 2.03629 2.81557C2.07624 2.61559 2.17638 2.4326 2.32327 2.29115C2.47017 2.14969 2.6568 2.05653 2.85815 2.02415C3.05949 1.99177 3.26592 2.02173 3.44976 2.11L17.4498 9.11C17.6136 9.19392 17.751 9.32141 17.847 9.47844C17.943 9.63548 17.9938 9.81595 17.9938 10C17.9938 10.184 17.943 10.3645 17.847 10.5216C17.751 10.6786 17.6136 10.8061 17.4498 10.89V10.89Z" fill="#FFF2EE"/>
</svg>
