<svg width="112" height="39" viewBox="0 0 112 39" fill="none" xmlns="http://www.w3.org/2000/svg">
<path d="M51.3701 26.9409C49.7145 26.9409 48.4197 26.6043 47.4858 25.9311C46.5519 25.2579 46.0566 24.3112 46 23.091H49.0141C49.0707 23.4556 49.29 23.7852 49.672 24.0798C50.0683 24.3603 50.6555 24.5005 51.4338 24.5005C52.0281 24.5005 52.5163 24.4023 52.8984 24.206C53.2946 23.9956 53.4927 23.7011 53.4927 23.3224C53.4927 22.9858 53.3441 22.7193 53.0469 22.523C52.7498 22.3126 52.2191 22.1653 51.455 22.0812L50.5423 21.997C49.1414 21.8568 48.0872 21.4711 47.3797 20.8399C46.6863 20.2088 46.3396 19.4023 46.3396 18.4206C46.3396 17.6071 46.5448 16.9269 46.9552 16.3799C47.3655 15.8329 47.9315 15.4192 48.6532 15.1387C49.389 14.8582 50.2239 14.7179 51.1578 14.7179C52.6578 14.7179 53.8677 15.0475 54.7874 15.7067C55.7072 16.3519 56.1883 17.2915 56.2308 18.5258H53.2167C53.1601 18.1471 52.962 17.8315 52.6224 17.5791C52.2828 17.3126 51.7805 17.1793 51.1154 17.1793C50.5918 17.1793 50.1744 17.2775 49.8631 17.4739C49.5518 17.6702 49.3961 17.9367 49.3961 18.2733C49.3961 18.5959 49.5305 18.8413 49.7994 19.0096C50.0683 19.1779 50.5069 19.2972 51.1154 19.3673L52.0281 19.4514C53.4573 19.6057 54.5681 19.9984 55.3605 20.6296C56.153 21.2607 56.5492 22.1092 56.5492 23.1751C56.5492 23.9465 56.3369 24.6197 55.9124 25.1948C55.4879 25.7558 54.8865 26.1906 54.1082 26.4991C53.3299 26.7937 52.4172 26.9409 51.3701 26.9409Z" fill="white"/>
<path d="M65.3507 26.5833V23.1751H64.7776V19.4725C64.7776 18.8834 64.6361 18.4416 64.3531 18.1471C64.0701 17.8526 63.6173 17.7053 62.9947 17.7053C62.6833 17.7053 62.273 17.7123 61.7636 17.7263C61.2542 17.7404 60.7306 17.7614 60.1929 17.7894C59.6551 17.8175 59.167 17.8455 58.7283 17.8736V15.0335C59.0538 15.0054 59.4358 14.9774 59.8745 14.9493C60.3131 14.9213 60.766 14.9002 61.2329 14.8862C61.6999 14.8722 62.1386 14.8652 62.5489 14.8652C63.7376 14.8652 64.7352 15.0335 65.5417 15.3701C66.3625 15.7067 66.9851 16.2186 67.4096 16.9059C67.8341 17.5791 68.0464 18.4486 68.0464 19.5146V26.5833H65.3507ZM61.6362 26.8778C60.8013 26.8778 60.0655 26.7305 59.4287 26.436C58.8061 26.1415 58.3179 25.7207 57.9642 25.1737C57.6104 24.6127 57.4335 23.9465 57.4335 23.1751C57.4335 22.3336 57.6529 21.6464 58.0915 21.1134C58.5302 20.5664 59.1457 20.1667 59.9382 19.9143C60.7306 19.6478 61.6433 19.5146 62.6763 19.5146H65.1597V21.3869H62.655C62.0607 21.3869 61.6008 21.5342 61.2754 21.8287C60.9641 22.1092 60.8084 22.4949 60.8084 22.9858C60.8084 23.4486 60.9641 23.8273 61.2754 24.1218C61.6008 24.4023 62.0607 24.5426 62.655 24.5426C63.0371 24.5426 63.3767 24.4795 63.6739 24.3533C63.9852 24.213 64.2399 23.9816 64.438 23.659C64.6361 23.3364 64.7493 22.8876 64.7776 22.3126L65.5842 23.1541C65.5134 23.9535 65.3153 24.6268 64.9899 25.1737C64.6786 25.7207 64.2399 26.1415 63.6739 26.436C63.122 26.7305 62.4428 26.8778 61.6362 26.8778Z" fill="white"/>
<path d="M75.7885 26.7305C74.614 26.7305 73.6659 26.5903 72.9442 26.3098C72.2225 26.0153 71.6919 25.5314 71.3523 24.8582C71.0268 24.1709 70.8641 23.2453 70.8641 22.0812V11.9409H74.0267V22.2074C74.0267 22.7544 74.1682 23.1751 74.4512 23.4697C74.7484 23.7502 75.1658 23.8904 75.7035 23.8904H77.4228V26.7305H75.7885ZM69.1024 17.516V15.0545H77.4228V17.516H69.1024Z" fill="white"/>
<path d="M83.2088 26.9409C81.8645 26.9409 80.8315 26.5131 80.1099 25.6576C79.3882 24.788 79.0274 23.4837 79.0274 21.7446V15.0545H82.4235V21.9129C82.4235 22.53 82.6004 23.0209 82.9541 23.3855C83.3079 23.7502 83.7819 23.9325 84.3762 23.9325C84.9847 23.9325 85.48 23.7432 85.862 23.3645C86.2441 22.9858 86.4351 22.4739 86.4351 21.8287V15.0545H89.8312V26.5833H87.1356V21.7235H87.3691C87.3691 22.8876 87.2134 23.8624 86.9021 24.6478C86.6049 25.4192 86.1592 25.9942 85.5649 26.3729C84.9706 26.7516 84.2347 26.9409 83.3574 26.9409H83.2088Z" fill="white"/>
<path d="M92.5382 26.5833V15.0545H95.2339V19.9984H95.1702C95.1702 18.3715 95.5169 17.1162 96.2102 16.2326C96.9178 15.3491 97.9366 14.9073 99.2667 14.9073H99.7125V17.8105H98.8634C97.9295 17.8105 97.2078 18.0629 96.6984 18.5678C96.189 19.0587 95.9343 19.774 95.9343 20.7137V26.5833H92.5382Z" fill="white"/>
<path d="M101.048 26.5833V15.0545H103.743V19.9984H103.552C103.552 18.8203 103.701 17.8385 103.998 17.0531C104.309 16.2677 104.776 15.6786 105.399 15.2859C106.021 14.8932 106.778 14.6969 107.67 14.6969H107.819C109.177 14.6969 110.21 15.1387 110.917 16.0223C111.639 16.8918 112 18.2172 112 19.9984V26.5833H108.604V19.8091C108.604 19.192 108.42 18.6871 108.052 18.2944C107.684 17.9016 107.189 17.7053 106.566 17.7053C105.929 17.7053 105.413 17.9087 105.017 18.3154C104.635 18.7081 104.444 19.227 104.444 19.8722V26.5833H101.048Z" fill="white"/>
<path d="M14.6745 0.879543C16.7323 -0.293181 19.2677 -0.293181 21.3255 0.879542L32.6745 7.34704C34.7323 8.51977 36 10.6871 36 13.0325V25.9675C36 28.313 34.7323 30.4802 32.6745 31.653L21.3255 38.1205C19.2677 39.2932 16.7323 39.2932 14.6745 38.1205L3.32554 31.653C1.26769 30.4802 0 28.313 0 25.9675V13.0325C0 10.6871 1.26769 8.51977 3.32554 7.34705L14.6745 0.879543Z" fill="#FF460C"/>
<path d="M29.2481 19.1079C29.2481 25.2451 24.2729 30.2203 18.1357 30.2203C11.9984 30.2203 7.02325 25.2451 7.02325 19.1079C7.02325 12.9707 11.9984 7.99548 18.1357 7.99548C24.2729 7.99548 29.2481 12.9707 29.2481 19.1079Z" fill="url(#paint0_linear_213_3468)"/>
<path opacity="0.4" d="M17.848 18.8194C21.5946 16.1891 26.0625 16.0946 27.8273 18.6084C29.5922 21.1223 27.9856 25.2924 24.239 27.9227C20.4924 30.5531 16.0245 30.6475 14.2596 28.1337C12.4948 25.6198 14.1014 21.4497 17.848 18.8194Z" fill="url(#paint1_linear_213_3468)"/>
<circle cx="13.5897" cy="14.5619" r="3.53577" transform="rotate(180 13.5897 14.5619)" fill="url(#paint2_linear_213_3468)"/>
<circle cx="10.559" cy="19.613" r="1.51533" transform="rotate(180 10.559 19.613)" fill="url(#paint3_linear_213_3468)"/>
<defs>
<linearGradient id="paint0_linear_213_3468" x1="10.2755" y1="11.1878" x2="26.8734" y2="26.6001" gradientUnits="userSpaceOnUse">
<stop stop-color="white"/>
<stop offset="1" stop-color="white" stop-opacity="0.37"/>
</linearGradient>
<linearGradient id="paint1_linear_213_3468" x1="22.5525" y1="28.9482" x2="19.8123" y2="24.8553" gradientUnits="userSpaceOnUse">
<stop stop-color="#FFF5DA"/>
<stop offset="1" stop-color="white" stop-opacity="0"/>
</linearGradient>
<linearGradient id="paint2_linear_213_3468" x1="16.3111" y1="16.7505" x2="10.3833" y2="12.0082" gradientUnits="userSpaceOnUse">
<stop stop-color="#F9A48A"/>
<stop offset="1" stop-color="#FFD5C7"/>
</linearGradient>
<linearGradient id="paint3_linear_213_3468" x1="11.7253" y1="20.5509" x2="9.18484" y2="18.5185" gradientUnits="userSpaceOnUse">
<stop stop-color="#F9A48A"/>
<stop offset="1" stop-color="#FFD5C7"/>
</linearGradient>
</defs>
</svg>
