<svg width="112" height="39" viewBox="0 0 112 39" fill="none" xmlns="http://www.w3.org/2000/svg">
<path d="M51.3701 26.9409C49.7145 26.9409 48.4197 26.6043 47.4858 25.931C46.5519 25.2578 46.0566 24.3111 46 23.0909H49.0141C49.0707 23.4556 49.29 23.7852 49.672 24.0797C50.0683 24.3602 50.6555 24.5005 51.4338 24.5005C52.0281 24.5005 52.5163 24.4023 52.8984 24.2059C53.2946 23.9956 53.4927 23.701 53.4927 23.3223C53.4927 22.9857 53.3441 22.7193 53.0469 22.5229C52.7498 22.3125 52.2191 22.1653 51.455 22.0811L50.5423 21.997C49.1414 21.8567 48.0872 21.471 47.3797 20.8399C46.6863 20.2087 46.3396 19.4023 46.3396 18.4205C46.3396 17.6071 46.5448 16.9268 46.9552 16.3798C47.3655 15.8329 47.9315 15.4191 48.6532 15.1386C49.389 14.8581 50.2239 14.7179 51.1578 14.7179C52.6578 14.7179 53.8677 15.0474 54.7874 15.7066C55.7072 16.3518 56.1883 17.2915 56.2308 18.5257H53.2167C53.1601 18.147 52.962 17.8315 52.6224 17.579C52.2828 17.3125 51.7805 17.1793 51.1154 17.1793C50.5918 17.1793 50.1744 17.2775 49.8631 17.4738C49.5518 17.6702 49.3961 17.9366 49.3961 18.2733C49.3961 18.5958 49.5305 18.8413 49.7994 19.0096C50.0683 19.1779 50.5069 19.2971 51.1154 19.3672L52.0281 19.4514C53.4573 19.6057 54.5681 19.9984 55.3605 20.6295C56.153 21.2606 56.5492 22.1092 56.5492 23.1751C56.5492 23.9465 56.3369 24.6197 55.9124 25.1947C55.4879 25.7557 54.8865 26.1905 54.1082 26.4991C53.3299 26.7936 52.4172 26.9409 51.3701 26.9409Z" fill="black"/>
<path d="M65.3507 26.5832V23.1751H64.7776V19.4724C64.7776 18.8834 64.6361 18.4416 64.3531 18.147C64.0701 17.8525 63.6173 17.7052 62.9947 17.7052C62.6833 17.7052 62.273 17.7122 61.7636 17.7263C61.2542 17.7403 60.7306 17.7613 60.1929 17.7894C59.6551 17.8174 59.167 17.8455 58.7283 17.8735V15.0334C59.0538 15.0054 59.4358 14.9773 59.8745 14.9493C60.3131 14.9212 60.766 14.9002 61.2329 14.8862C61.6999 14.8721 62.1386 14.8651 62.5489 14.8651C63.7376 14.8651 64.7352 15.0334 65.5417 15.37C66.3625 15.7066 66.9851 16.2186 67.4096 16.9058C67.8341 17.579 68.0464 18.4486 68.0464 19.5145V26.5832H65.3507ZM61.6362 26.8777C60.8013 26.8777 60.0655 26.7305 59.4287 26.4359C58.8061 26.1414 58.3179 25.7207 57.9642 25.1737C57.6104 24.6127 57.4335 23.9465 57.4335 23.1751C57.4335 22.3336 57.6529 21.6463 58.0915 21.1134C58.5302 20.5664 59.1457 20.1667 59.9382 19.9142C60.7306 19.6477 61.6433 19.5145 62.6763 19.5145H65.1597V21.3869H62.655C62.0607 21.3869 61.6008 21.5341 61.2754 21.8287C60.9641 22.1092 60.8084 22.4949 60.8084 22.9857C60.8084 23.4486 60.9641 23.8273 61.2754 24.1218C61.6008 24.4023 62.0607 24.5425 62.655 24.5425C63.0371 24.5425 63.3767 24.4794 63.6739 24.3532C63.9852 24.2129 64.2399 23.9815 64.438 23.6589C64.6361 23.3364 64.7493 22.8876 64.7776 22.3125L65.5842 23.154C65.5134 23.9535 65.3153 24.6267 64.9899 25.1737C64.6786 25.7207 64.2399 26.1414 63.6739 26.4359C63.122 26.7305 62.4428 26.8777 61.6362 26.8777Z" fill="black"/>
<path d="M75.7885 26.7305C74.614 26.7305 73.6659 26.5902 72.9442 26.3097C72.2225 26.0152 71.6919 25.5313 71.3523 24.8581C71.0268 24.1709 70.8641 23.2452 70.8641 22.0811V11.9409H74.0267V22.2073C74.0267 22.7543 74.1682 23.1751 74.4512 23.4696C74.7484 23.7501 75.1658 23.8904 75.7035 23.8904H77.4228V26.7305H75.7885ZM69.1024 17.5159V15.0545H77.4228V17.5159H69.1024Z" fill="black"/>
<path d="M83.2088 26.9409C81.8645 26.9409 80.8315 26.5131 80.1099 25.6575C79.3882 24.788 79.0274 23.4836 79.0274 21.7445V15.0545H82.4235V21.9128C82.4235 22.5299 82.6004 23.0208 82.9541 23.3855C83.3079 23.7501 83.7819 23.9324 84.3762 23.9324C84.9847 23.9324 85.48 23.7431 85.862 23.3644C86.2441 22.9857 86.4351 22.4738 86.4351 21.8287V15.0545H89.8312V26.5832H87.1356V21.7235H87.3691C87.3691 22.8876 87.2134 23.8623 86.9021 24.6477C86.6049 25.4191 86.1592 25.9942 85.5649 26.3728C84.9706 26.7515 84.2347 26.9409 83.3574 26.9409H83.2088Z" fill="black"/>
<path d="M92.5382 26.5832V15.0545H95.2339V19.9984H95.1702C95.1702 18.3714 95.5169 17.1162 96.2102 16.2326C96.9178 15.349 97.9366 14.9072 99.2667 14.9072H99.7125V17.8104H98.8634C97.9295 17.8104 97.2078 18.0629 96.6984 18.5678C96.189 19.0587 95.9343 19.774 95.9343 20.7136V26.5832H92.5382Z" fill="black"/>
<path d="M101.048 26.5832V15.0545H103.743V19.9984H103.552C103.552 18.8202 103.701 17.8385 103.998 17.0531C104.309 16.2676 104.776 15.6786 105.399 15.2859C106.021 14.8932 106.778 14.6968 107.67 14.6968H107.819C109.177 14.6968 110.21 15.1386 110.917 16.0222C111.639 16.8918 112 18.2172 112 19.9984V26.5832H108.604V19.809C108.604 19.1919 108.42 18.687 108.052 18.2943C107.684 17.9016 107.189 17.7052 106.566 17.7052C105.929 17.7052 105.413 17.9086 105.017 18.3153C104.635 18.708 104.444 19.227 104.444 19.8721V26.5832H101.048Z" fill="black"/>
<path d="M14.6745 0.879543C16.7323 -0.293181 19.2677 -0.293181 21.3255 0.879542L32.6745 7.34704C34.7323 8.51977 36 10.6871 36 13.0325V25.9675C36 28.313 34.7323 30.4802 32.6745 31.653L21.3255 38.1205C19.2677 39.2932 16.7323 39.2932 14.6745 38.1205L3.32554 31.653C1.26769 30.4802 0 28.313 0 25.9675V13.0325C0 10.6871 1.26769 8.51977 3.32554 7.34705L14.6745 0.879543Z" fill="#FF460C"/>
<path d="M29.2481 19.1078C29.2481 25.245 24.2729 30.2202 18.1357 30.2202C11.9984 30.2202 7.02325 25.245 7.02325 19.1078C7.02325 12.9706 11.9984 7.99542 18.1357 7.99542C24.2729 7.99542 29.2481 12.9706 29.2481 19.1078Z" fill="url(#paint0_linear_213_3360)"/>
<path opacity="0.4" d="M17.848 18.8193C21.5946 16.189 26.0625 16.0946 27.8273 18.6084C29.5922 21.1222 27.9856 25.2924 24.239 27.9227C20.4924 30.553 16.0245 30.6475 14.2596 28.1336C12.4948 25.6198 14.1014 21.4497 17.848 18.8193Z" fill="url(#paint1_linear_213_3360)"/>
<circle cx="13.5897" cy="14.5619" r="3.53577" transform="rotate(180 13.5897 14.5619)" fill="url(#paint2_linear_213_3360)"/>
<circle cx="10.559" cy="19.6129" r="1.51533" transform="rotate(180 10.559 19.6129)" fill="url(#paint3_linear_213_3360)"/>
<defs>
<linearGradient id="paint0_linear_213_3360" x1="10.2755" y1="11.1877" x2="26.8734" y2="26.6001" gradientUnits="userSpaceOnUse">
<stop stop-color="white"/>
<stop offset="1" stop-color="white" stop-opacity="0.37"/>
</linearGradient>
<linearGradient id="paint1_linear_213_3360" x1="22.5525" y1="28.9482" x2="19.8123" y2="24.8553" gradientUnits="userSpaceOnUse">
<stop stop-color="#FFF5DA"/>
<stop offset="1" stop-color="white" stop-opacity="0"/>
</linearGradient>
<linearGradient id="paint2_linear_213_3360" x1="16.3111" y1="16.7504" x2="10.3833" y2="12.0082" gradientUnits="userSpaceOnUse">
<stop stop-color="#F9A48A"/>
<stop offset="1" stop-color="#FFD5C7"/>
</linearGradient>
<linearGradient id="paint3_linear_213_3360" x1="11.7253" y1="20.5509" x2="9.18484" y2="18.5185" gradientUnits="userSpaceOnUse">
<stop stop-color="#F9A48A"/>
<stop offset="1" stop-color="#FFD5C7"/>
</linearGradient>
</defs>
</svg>
