<svg width="317" height="165" viewBox="0 0 317 165" fill="none" xmlns="http://www.w3.org/2000/svg">
<path d="M231.103 80.8937C208.879 77.347 183.57 75.4545 157.213 75.4545C133.092 75.4545 109.852 77.0372 89.0537 80.0213C89.0586 79.7019 89.0632 79.3826 89.0775 79.0632C89.6288 60.5239 97.4101 42.9356 110.758 30.0577C124.106 17.1798 141.962 10.0338 160.509 10.1471C179.056 10.2604 196.823 17.624 210.013 30.6641C223.203 43.7041 230.768 61.3861 231.093 79.9308C231.098 80.2549 231.103 80.5743 231.103 80.8937Z" fill="#E10808"/>
<g opacity="0.3">
<path d="M169.394 10.1204C159.529 8.78795 149.495 9.54313 139.941 12.337C130.387 15.1308 121.526 19.9009 113.934 26.3382C106.341 32.7755 100.186 40.7363 95.8673 49.7047C91.5484 58.673 89.1621 68.4488 88.8631 78.3984C88.8487 78.7178 88.844 79.0372 88.8394 79.3566C95.0184 78.47 101.417 77.7103 107.986 77.0759C108.79 60.5003 115.371 44.729 126.588 32.4987C137.805 20.2684 152.949 12.351 169.394 10.1204Z" fill="#FAFBFC"/>
</g>
<path d="M262.175 86.5285C251.944 83.7552 241.568 81.5526 231.093 79.9309C213.925 77.2705 196.617 75.6072 179.256 74.9493C172.025 74.6538 164.66 74.5012 157.213 74.5012C151.312 74.5012 145.458 74.5966 139.685 74.7872C122.75 75.2876 105.856 76.7151 89.0776 79.0633C76.6575 80.7735 64.3578 83.2669 52.2521 86.5285C24.0263 94.3322 8.48096 104.791 8.48096 115.975C8.48096 127.158 24.0263 137.617 52.2521 145.421C72.1022 150.913 96.5762 154.655 123.243 156.371C134.25 157.086 145.63 157.448 157.213 157.448C168.835 157.448 180.253 157.081 191.293 156.366C215.562 154.798 238.015 151.551 256.807 146.832C256.907 146.803 257.002 146.779 257.103 146.756C258.371 146.441 259.619 146.112 260.854 145.783C261.297 145.659 261.736 145.54 262.175 145.421C262.199 145.411 262.225 145.403 262.251 145.397C262.671 145.283 263.085 145.163 263.5 145.049C264.329 144.811 265.149 144.577 265.955 144.334C265.993 144.324 266.026 144.315 266.06 144.305C266.76 144.096 267.447 143.886 268.129 143.676C268.686 143.5 269.239 143.328 269.788 143.152C270.188 143.023 270.584 142.894 270.975 142.766C271.261 142.67 271.542 142.58 271.818 142.484C272.195 142.36 272.572 142.232 272.943 142.103C273.101 142.051 273.258 141.998 273.411 141.941C273.768 141.822 274.116 141.698 274.464 141.574C274.841 141.44 275.217 141.302 275.589 141.169C275.899 141.059 276.209 140.945 276.514 140.83C276.771 140.73 277.024 140.635 277.282 140.539C277.982 140.277 278.669 140.005 279.346 139.739C279.684 139.6 280.023 139.467 280.356 139.329C280.685 139.195 281.019 139.057 281.343 138.919C281.877 138.694 282.401 138.47 282.916 138.246C283.164 138.132 283.417 138.022 283.66 137.918C283.846 137.832 284.027 137.751 284.213 137.665C284.346 137.608 284.48 137.546 284.609 137.484C285.09 137.264 285.567 137.04 286.034 136.816C287.826 135.958 289.5 135.081 291.053 134.185C300.802 128.603 305.946 122.41 305.946 115.975C305.946 104.791 290.401 94.3322 262.175 86.5285ZM261.917 144.506C242.043 150.002 217.503 153.744 190.764 155.446C179.89 156.137 168.65 156.495 157.213 156.495C145.815 156.495 134.613 156.142 123.772 155.451C96.991 153.754 72.412 150.012 52.5095 144.506C24.7318 136.821 9.43437 126.691 9.43437 115.975C9.43592 115.028 9.55444 114.085 9.78724 113.167C12.2183 103.499 27.1726 94.4514 52.5095 87.4438C64.5237 84.2076 76.7292 81.7286 89.0539 80.0215C105.933 77.6599 122.93 76.2277 139.966 75.7311C145.649 75.5452 151.398 75.453 157.213 75.4546C164.56 75.4546 171.824 75.6024 178.965 75.8884C196.427 76.5404 213.836 78.2117 231.103 80.8938C241.487 82.5083 251.774 84.695 261.917 87.4438C287.25 94.4514 302.199 103.495 304.635 113.157C304.871 114.078 304.992 115.024 304.992 115.975C304.992 126.691 289.695 136.821 261.917 144.506Z" fill="#FAFBFC"/>
<path d="M305.674 116.408C305.674 122.777 300.425 128.803 291.053 134.185C289.495 135.081 287.817 135.958 286.034 136.816C285.566 137.04 285.09 137.264 284.608 137.484C284.48 137.545 284.346 137.607 284.213 137.665C284.027 137.75 283.846 137.832 283.66 137.917C283.417 138.022 283.164 138.132 282.916 138.246C282.401 138.47 281.877 138.694 281.343 138.918C281.019 139.057 280.685 139.195 280.356 139.328C280.022 139.467 279.684 139.6 279.346 139.738C278.669 140.005 277.982 140.277 277.281 140.539C277.024 140.635 276.771 140.73 276.514 140.83C276.209 140.944 275.899 141.059 275.589 141.168C275.217 141.302 274.841 141.44 274.464 141.574C274.116 141.698 273.768 141.822 273.41 141.941C273.258 141.998 273.101 142.05 272.943 142.103C272.572 142.231 272.195 142.36 271.818 142.484C271.542 142.579 271.261 142.67 270.975 142.765C270.584 142.894 270.188 143.023 269.787 143.152C269.239 143.328 268.686 143.5 268.129 143.676C267.447 143.886 266.76 144.095 266.06 144.305C266.026 144.315 265.993 144.324 265.955 144.334C265.149 144.577 264.329 144.81 263.5 145.049C263.085 145.163 262.67 145.282 262.251 145.397C262.225 145.403 262.199 145.411 262.175 145.421C261.736 145.54 261.297 145.659 260.854 145.783C259.624 146.107 258.37 146.436 257.102 146.755C257.002 146.779 256.907 146.803 256.807 146.832C238.525 151.399 216.096 154.726 191.274 156.332C180.4 157.033 169.064 157.405 157.418 157.405C145.668 157.405 134.236 157.028 123.277 156.313C57.8532 152.047 9.1626 135.801 9.1626 116.408C9.16775 115.228 9.34761 114.056 9.69633 112.928C9.72496 113.009 9.75359 113.086 9.78711 113.167C16.5895 131.034 64.8658 145.473 127.505 148.996C137.101 149.539 147.04 149.821 157.213 149.821C167.429 149.821 177.407 149.535 187.041 148.991C249.628 145.454 297.856 131.01 304.635 113.157C304.749 112.871 304.849 112.585 304.935 112.299C305.418 113.615 305.668 115.006 305.674 116.408Z" fill="#FAFBFC"/>
<path d="M52.1806 111.277C44.2469 111.277 35.8149 109.57 35.8149 106.407C35.8149 103.243 44.2469 101.536 52.1806 101.536C60.1143 101.536 68.5463 103.243 68.5463 106.407C68.5463 109.57 60.1143 111.277 52.1806 111.277ZM52.1806 102.49C43.0979 102.49 36.7684 104.554 36.7684 106.407C36.7684 108.259 43.0979 110.324 52.1806 110.324C61.2633 110.324 67.5929 108.259 67.5929 106.407C67.5929 104.554 61.2633 102.49 52.1806 102.49Z" fill="#FAFBFC"/>
<path d="M86.0267 133.682C78.0931 133.682 69.6611 131.975 69.6611 128.812C69.6611 125.648 78.0931 123.941 86.0267 123.941C93.9605 123.941 102.392 125.648 102.392 128.812C102.392 131.975 93.9605 133.682 86.0267 133.682ZM86.0267 124.895C76.9441 124.895 70.6145 126.959 70.6145 128.812C70.6145 130.664 76.9441 132.729 86.0267 132.729C95.1094 132.729 101.439 130.664 101.439 128.812C101.439 126.959 95.1094 124.895 86.0267 124.895Z" fill="#FAFBFC"/>
<path d="M261.931 111.277C253.997 111.277 245.565 109.57 245.565 106.407C245.565 103.243 253.997 101.536 261.931 101.536C269.865 101.536 278.297 103.243 278.297 106.407C278.297 109.57 269.865 111.277 261.931 111.277ZM261.931 102.49C252.848 102.49 246.519 104.554 246.519 106.407C246.519 108.259 252.848 110.324 261.931 110.324C271.014 110.324 277.343 108.259 277.343 106.407C277.343 104.554 271.014 102.49 261.931 102.49Z" fill="#FAFBFC"/>
<path d="M228.085 133.682C220.152 133.682 211.72 131.975 211.72 128.812C211.72 125.648 220.152 123.941 228.085 123.941C236.019 123.941 244.451 125.648 244.451 128.812C244.451 131.975 236.019 133.682 228.085 133.682ZM228.085 124.895C219.003 124.895 212.673 126.959 212.673 128.812C212.673 130.664 219.003 132.729 228.085 132.729C237.168 132.729 243.498 130.664 243.498 128.812C243.498 126.959 237.168 124.895 228.085 124.895Z" fill="#FAFBFC"/>
<path d="M157.056 144.169C149.122 144.169 140.69 142.462 140.69 139.299C140.69 136.135 149.122 134.428 157.056 134.428C164.989 134.428 173.421 136.135 173.421 139.299C173.421 142.462 164.989 144.169 157.056 144.169ZM157.056 135.382C147.973 135.382 141.643 137.446 141.643 139.299C141.643 141.151 147.973 143.216 157.056 143.216C166.138 143.216 172.468 141.151 172.468 139.299C172.468 137.446 166.138 135.382 157.056 135.382Z" fill="#FAFBFC"/>
</svg>
