<svg width="534" height="427" viewBox="0 0 534 427" fill="none" xmlns="http://www.w3.org/2000/svg">
<path d="M340.573 113.894C318.349 110.347 293.041 108.454 266.683 108.454C242.562 108.454 219.323 110.037 198.524 113.021C198.529 112.702 198.533 112.382 198.548 112.063C199.099 93.5237 206.88 75.9355 220.228 63.0576C233.576 50.1796 251.432 43.0336 269.979 43.147C288.526 43.2603 306.293 50.6239 319.483 63.6639C332.673 76.704 340.239 94.386 340.563 112.931C340.568 113.255 340.573 113.574 340.573 113.894Z" fill="#E10808"/>
<g opacity="0.3">
<path d="M278.864 43.1204C268.999 41.788 258.965 42.5431 249.411 45.337C239.857 48.1308 230.997 52.9009 223.404 59.3382C215.812 65.7755 209.656 73.7363 205.338 82.7047C201.019 91.673 198.632 101.449 198.333 111.398C198.319 111.718 198.314 112.037 198.31 112.357C204.489 111.47 210.887 110.71 217.456 110.076C218.26 93.5003 224.841 77.729 236.058 65.4987C247.275 53.2684 262.419 45.351 278.864 43.1204Z" fill="#FAFBFC"/>
</g>
<path d="M371.645 119.528C361.415 116.755 351.038 114.553 340.564 112.931C323.395 110.27 306.087 108.607 288.727 107.949C281.495 107.654 274.13 107.501 266.684 107.501C260.782 107.501 254.928 107.596 249.155 107.787C232.221 108.287 215.326 109.715 198.548 112.063C186.128 113.773 173.828 116.267 161.722 119.528C133.496 127.332 117.951 137.791 117.951 148.975C117.951 160.158 133.497 170.617 161.722 178.421C181.572 183.912 206.046 187.655 232.714 189.371C243.721 190.086 255.1 190.448 266.684 190.448C278.306 190.448 289.723 190.081 300.763 189.366C325.032 187.798 347.485 184.551 366.277 179.832C366.377 179.803 366.473 179.779 366.573 179.756C367.841 179.441 369.09 179.112 370.324 178.783C370.768 178.659 371.206 178.54 371.645 178.421C371.67 178.411 371.695 178.403 371.721 178.397C372.141 178.282 372.555 178.163 372.97 178.049C373.8 177.811 374.619 177.577 375.425 177.334C375.463 177.324 375.497 177.315 375.53 177.305C376.231 177.095 376.917 176.886 377.599 176.676C378.157 176.5 378.71 176.328 379.258 176.152C379.658 176.023 380.054 175.894 380.445 175.765C380.731 175.67 381.012 175.58 381.289 175.484C381.665 175.36 382.042 175.232 382.414 175.103C382.571 175.05 382.728 174.998 382.881 174.941C383.238 174.822 383.586 174.698 383.934 174.574C384.311 174.44 384.688 174.302 385.059 174.168C385.369 174.059 385.679 173.944 385.984 173.83C386.241 173.73 386.494 173.635 386.752 173.539C387.452 173.277 388.139 173.005 388.816 172.738C389.154 172.6 389.493 172.467 389.826 172.328C390.155 172.195 390.489 172.057 390.813 171.918C391.347 171.694 391.871 171.47 392.386 171.246C392.634 171.132 392.887 171.022 393.13 170.917C393.316 170.832 393.497 170.751 393.683 170.665C393.816 170.608 393.95 170.546 394.079 170.484C394.56 170.264 395.037 170.04 395.504 169.816C397.297 168.958 398.97 168.081 400.524 167.185C410.272 161.603 415.416 155.41 415.416 148.975C415.416 137.791 399.871 127.332 371.645 119.528ZM371.387 177.505C351.514 183.002 326.973 186.744 300.234 188.446C289.36 189.137 278.12 189.495 266.684 189.495C255.286 189.495 244.083 189.142 233.243 188.451C206.461 186.754 181.882 183.011 161.98 177.505C134.202 169.821 118.905 159.691 118.905 148.975C118.906 148.028 119.025 147.085 119.257 146.167C121.688 136.499 136.643 127.451 161.98 120.444C173.994 117.207 186.199 114.728 198.524 113.021C215.403 110.66 232.4 109.228 249.436 108.731C255.119 108.545 260.868 108.453 266.684 108.455C274.03 108.455 281.295 108.602 288.436 108.888C305.897 109.54 323.306 111.212 340.573 113.894C350.957 115.508 361.244 117.695 371.387 120.444C396.72 127.451 411.669 136.494 414.105 146.157C414.342 147.078 414.462 148.024 414.463 148.975C414.463 159.691 399.165 169.821 371.387 177.505Z" fill="#FAFBFC"/>
<path d="M415.144 149.408C415.144 155.777 409.896 161.803 400.523 167.185C398.965 168.081 397.287 168.958 395.504 169.816C395.037 170.04 394.56 170.264 394.079 170.483C393.95 170.545 393.816 170.607 393.683 170.665C393.497 170.75 393.316 170.831 393.13 170.917C392.887 171.022 392.634 171.132 392.386 171.246C391.871 171.47 391.347 171.694 390.813 171.918C390.489 172.056 390.155 172.195 389.826 172.328C389.493 172.466 389.154 172.6 388.816 172.738C388.139 173.005 387.452 173.277 386.752 173.539C386.494 173.634 386.241 173.73 385.984 173.83C385.679 173.944 385.369 174.059 385.059 174.168C384.687 174.302 384.311 174.44 383.934 174.574C383.586 174.697 383.238 174.821 382.881 174.941C382.728 174.998 382.571 175.05 382.414 175.103C382.042 175.231 381.665 175.36 381.289 175.484C381.012 175.579 380.731 175.67 380.445 175.765C380.054 175.894 379.658 176.023 379.258 176.151C378.71 176.328 378.157 176.499 377.599 176.676C376.917 176.886 376.231 177.095 375.53 177.305C375.496 177.315 375.463 177.324 375.425 177.334C374.619 177.577 373.8 177.81 372.97 178.049C372.555 178.163 372.141 178.282 371.721 178.397C371.695 178.402 371.669 178.41 371.645 178.421C371.206 178.54 370.768 178.659 370.324 178.783C369.094 179.107 367.841 179.436 366.573 179.755C366.472 179.779 366.377 179.803 366.277 179.832C347.995 184.398 325.566 187.726 300.744 189.332C289.871 190.033 278.534 190.405 266.889 190.405C255.138 190.405 243.706 190.028 232.747 189.313C167.323 185.047 118.633 168.801 118.633 149.408C118.638 148.228 118.818 147.055 119.167 145.928C119.195 146.009 119.224 146.086 119.257 146.167C126.06 164.034 174.336 178.473 236.975 181.996C246.571 182.539 256.511 182.821 266.684 182.821C276.899 182.821 286.877 182.535 296.511 181.991C359.098 178.454 407.326 164.01 414.105 146.157C414.22 145.871 414.32 145.585 414.405 145.299C414.889 146.615 415.139 148.006 415.144 149.408Z" fill="#FAFBFC"/>
<path d="M161.651 144.277C153.717 144.277 145.285 142.57 145.285 139.407C145.285 136.243 153.717 134.536 161.651 134.536C169.584 134.536 178.016 136.243 178.016 139.407C178.016 142.57 169.585 144.277 161.651 144.277ZM161.651 135.49C152.568 135.49 146.239 137.554 146.239 139.407C146.239 141.259 152.568 143.324 161.651 143.324C170.733 143.324 177.063 141.259 177.063 139.407C177.063 137.554 170.733 135.49 161.651 135.49Z" fill="#FAFBFC"/>
<path d="M195.497 166.682C187.563 166.682 179.131 164.975 179.131 161.812C179.131 158.648 187.563 156.941 195.497 156.941C203.431 156.941 211.863 158.648 211.863 161.812C211.863 164.975 203.431 166.682 195.497 166.682ZM195.497 157.895C186.414 157.895 180.085 159.959 180.085 161.812C180.085 163.664 186.414 165.729 195.497 165.729C204.58 165.729 210.909 163.664 210.909 161.812C210.909 159.959 204.58 157.895 195.497 157.895Z" fill="#FAFBFC"/>
<path d="M371.402 144.277C363.468 144.277 355.036 142.57 355.036 139.407C355.036 136.243 363.468 134.536 371.402 134.536C379.335 134.536 387.767 136.243 387.767 139.407C387.767 142.57 379.335 144.277 371.402 144.277ZM371.402 135.49C362.319 135.49 355.99 137.554 355.99 139.407C355.99 141.259 362.319 143.324 371.402 143.324C380.484 143.324 386.814 141.259 386.814 139.407C386.814 137.554 380.484 135.49 371.402 135.49Z" fill="#FAFBFC"/>
<path d="M337.556 166.682C329.622 166.682 321.19 164.975 321.19 161.812C321.19 158.648 329.622 156.941 337.556 156.941C345.489 156.941 353.921 158.648 353.921 161.812C353.921 164.975 345.489 166.682 337.556 166.682ZM337.556 157.895C328.473 157.895 322.143 159.959 322.143 161.812C322.143 163.664 328.473 165.729 337.556 165.729C346.638 165.729 352.968 163.664 352.968 161.812C352.968 159.959 346.638 157.895 337.556 157.895Z" fill="#FAFBFC"/>
<path d="M266.526 177.169C258.593 177.169 250.161 175.462 250.161 172.299C250.161 169.135 258.593 167.428 266.526 167.428C274.46 167.428 282.892 169.135 282.892 172.299C282.892 175.462 274.46 177.169 266.526 177.169ZM266.526 168.382C257.444 168.382 251.114 170.446 251.114 172.299C251.114 174.151 257.444 176.216 266.526 176.216C275.609 176.216 281.939 174.151 281.939 172.299C281.939 170.446 275.609 168.382 266.526 168.382Z" fill="#FAFBFC"/>
<circle cx="120.214" cy="261.136" r="18.8542" stroke="#D5DAE1" stroke-width="1.88542"/>
<circle cx="120.214" cy="374.261" r="18.8542" stroke="#D5DAE1" stroke-width="1.88542"/>
<circle cx="44.797" cy="336.552" r="18.8542" stroke="#D5DAE1" stroke-width="1.88542"/>
<circle cx="157.922" cy="336.552" r="18.8542" stroke="#D5DAE1" stroke-width="1.88542"/>
<circle cx="206.943" cy="317.698" r="18.8542" stroke="#D5DAE1" stroke-width="1.88542"/>
<circle cx="320.068" cy="317.698" r="18.8542" stroke="#D5DAE1" stroke-width="1.88542"/>
<circle cx="263.505" cy="261.136" r="18.8542" stroke="#D5DAE1" stroke-width="1.88542"/>
<circle cx="263.505" cy="374.261" r="18.8542" stroke="#D5DAE1" stroke-width="1.88542"/>
<path d="M25.9429 336.552C25.9429 326.139 34.3842 317.698 44.797 317.698H157.922C168.335 317.698 176.776 326.139 176.776 336.552C176.776 346.965 168.335 355.406 157.922 355.406H44.797C34.3842 355.406 25.9429 346.965 25.9429 336.552Z" stroke="#D5DAE1" stroke-width="1.88542"/>
<path d="M120.214 393.115C109.801 393.115 101.359 384.673 101.359 374.261L101.359 261.136C101.359 250.723 109.801 242.281 120.214 242.281C130.626 242.281 139.068 250.723 139.068 261.136L139.068 374.261C139.068 384.673 130.626 393.115 120.214 393.115Z" stroke="#D5DAE1" stroke-width="1.88542"/>
<path d="M31.7328 349.745C24.3698 342.382 24.3698 330.445 31.7328 323.082L106.743 248.072C114.106 240.709 126.044 240.709 133.407 248.072C140.77 255.435 140.77 267.372 133.407 274.735L58.3966 349.745C51.0336 357.108 39.0958 357.108 31.7328 349.745Z" stroke="#D5DAE1" stroke-width="1.88542"/>
<circle cx="452.047" cy="261.136" r="18.8542" stroke="#D5DAE1" stroke-width="1.88542"/>
<circle cx="452.047" cy="374.261" r="18.8542" stroke="#D5DAE1" stroke-width="1.88542"/>
<circle cx="376.63" cy="336.552" r="18.8542" stroke="#D5DAE1" stroke-width="1.88542"/>
<circle cx="489.755" cy="336.552" r="18.8542" stroke="#D5DAE1" stroke-width="1.88542"/>
<path d="M357.776 336.552C357.776 326.139 366.217 317.698 376.63 317.698H489.755C500.168 317.698 508.609 326.139 508.609 336.552C508.609 346.965 500.168 355.406 489.755 355.406H376.63C366.217 355.406 357.776 346.965 357.776 336.552Z" stroke="#D5DAE1" stroke-width="1.88542"/>
<path d="M452.047 393.115C441.634 393.115 433.193 384.673 433.193 374.261L433.193 261.136C433.193 250.723 441.634 242.281 452.047 242.281C462.46 242.281 470.901 250.723 470.901 261.136L470.901 374.261C470.901 384.673 462.46 393.115 452.047 393.115Z" stroke="#D5DAE1" stroke-width="1.88542"/>
<path d="M363.566 349.745C356.203 342.382 356.203 330.445 363.566 323.082L438.576 248.072C445.939 240.709 457.877 240.709 465.24 248.072C472.603 255.435 472.603 267.372 465.24 274.735L390.23 349.745C382.867 357.108 370.929 357.108 363.566 349.745Z" stroke="#D5DAE1" stroke-width="1.88542"/>
<circle cx="263.505" cy="317.698" r="75.4167" stroke="#D5DAE1" stroke-width="1.88542"/>
<circle cx="263.505" cy="317.698" r="37.7083" stroke="#D5DAE1" stroke-width="1.88542"/>
</svg>
