<svg width="160" height="160" viewBox="0 0 160 160" fill="none" xmlns="http://www.w3.org/2000/svg">
<path d="M0 116.937C0 134.287 35.8125 148.325 79.9875 148.325C124.163 148.325 159.987 134.287 159.987 116.937C159.987 99.6 158.15 12 79.9875 12C1.8375 12 0 99.6 0 116.937Z" fill="#FCC21B"/>
<path d="M38.9 79.3C38.5875 79.3 38.2875 79.3 37.975 79.2875C37.0651 79.2523 36.2064 78.8573 35.5876 78.1893C34.9688 77.5213 34.6405 76.6349 34.675 75.725C34.75 73.825 36.3375 72.3375 38.2375 72.425C45.975 72.725 52.8 67.6875 54.8125 60.1875C55.3 58.35 57.1875 57.2625 59.025 57.7625C60.8625 58.25 61.95 60.1375 61.45 61.975C58.6875 72.275 49.4875 79.3 38.9 79.3ZM120.588 79.3C110 79.3 100.8 72.275 98.0375 61.95C97.8041 61.0699 97.928 60.1332 98.3822 59.3441C98.8365 58.5551 99.5842 57.9775 100.463 57.7375C102.3 57.25 104.188 58.3375 104.675 60.1625C106.688 67.6625 113.513 72.7 121.25 72.4C122.159 72.3695 123.043 72.6991 123.71 73.317C124.377 73.935 124.773 74.7914 124.813 75.7C124.888 77.6 123.413 79.2 121.513 79.2625C121.2 79.3 120.9 79.3 120.588 79.3Z" fill="#2F2F2F"/>
<path d="M8.66249 84.425C9.96249 90.2875 13.7875 93.9375 17.0125 94.9375C20.625 96.05 23.9 95.5125 26.2375 93.4375C29.2 90.8 30.225 86.1375 29.15 80.3C27.1875 69.8125 28.575 51.3375 28.5875 51.1625C28.6375 50.45 28.2875 49.8 27.6375 49.5C27.0125 49.175 26.2625 49.3 25.7375 49.775C7.81249 66.075 7.33749 78.475 8.66249 84.425Z" fill="white"/>
<path d="M106.05 85.9875C94.2 85.9875 90.2875 91.8125 79.7375 91.8125C69.1875 91.8125 65.275 85.9875 53.425 85.9875C41.575 85.9875 31.975 94.3125 31.975 104.588C31.975 114.863 41.575 123.188 53.425 123.188C65.275 123.188 69.1875 117.363 79.7375 117.363C90.2875 117.363 94.2 123.188 106.05 123.188C117.9 123.188 127.5 114.85 127.5 104.575C127.5 94.3126 117.9 85.9875 106.05 85.9875Z" fill="#ED6C30"/>
</svg>
