<svg width="20" height="20" viewBox="0 0 20 20" fill="none" xmlns="http://www.w3.org/2000/svg">
<path d="M10 0C4.47715 0 0 4.47715 0 10C0 15.5228 4.47715 20 10 20C15.5228 20 20 15.5228 20 10C19.9936 4.47982 15.5202 0.00642897 10 0Z" fill="#616372"/>
<path d="M10.8225 10.0001L14.4975 6.33094C14.6073 6.2211 14.6691 6.07212 14.6691 5.91677C14.6691 5.76143 14.6073 5.61245 14.4975 5.50261C14.3877 5.39276 14.2387 5.33105 14.0833 5.33105C13.928 5.33105 13.779 5.39276 13.6692 5.50261L10 9.17761L6.33084 5.50261C6.22099 5.39276 6.07201 5.33105 5.91667 5.33105C5.76133 5.33105 5.61235 5.39276 5.50251 5.50261C5.39266 5.61245 5.33095 5.76143 5.33095 5.91677C5.33095 6.07212 5.39266 6.2211 5.50251 6.33094L9.17751 10.0001L5.50251 13.6693C5.44783 13.7235 5.40443 13.788 5.37482 13.8591C5.3452 13.9302 5.32996 14.0064 5.32996 14.0834C5.32996 14.1604 5.3452 14.2367 5.37482 14.3078C5.40443 14.3789 5.44783 14.4434 5.50251 14.4976C5.55673 14.5523 5.62125 14.5957 5.69234 14.6253C5.76342 14.6549 5.83966 14.6702 5.91667 14.6702C5.99368 14.6702 6.06992 14.6549 6.14101 14.6253C6.21209 14.5957 6.27661 14.5523 6.33084 14.4976L10 10.8226L13.6692 14.4976C13.7234 14.5523 13.7879 14.5957 13.859 14.6253C13.9301 14.6549 14.0063 14.6702 14.0833 14.6702C14.1603 14.6702 14.2366 14.6549 14.3077 14.6253C14.3788 14.5957 14.4433 14.5523 14.4975 14.4976C14.5522 14.4434 14.5956 14.3789 14.6252 14.3078C14.6548 14.2367 14.6701 14.1604 14.6701 14.0834C14.6701 14.0064 14.6548 13.9302 14.6252 13.8591C14.5956 13.788 14.5522 13.7235 14.4975 13.6693L10.8225 10.0001Z" fill="#D5DAE1"/>
</svg>
