<svg width="16" height="20" viewBox="0 0 16 20" fill="none" xmlns="http://www.w3.org/2000/svg">
<path d="M15.63 1.64994C15.5138 1.55596 15.3781 1.48922 15.2327 1.45461C15.0873 1.41999 14.9361 1.4184 14.79 1.44994C13.7214 1.67389 12.6183 1.67674 11.5486 1.45833C10.4789 1.23991 9.46525 0.804856 8.57001 0.179942C8.40261 0.0638149 8.20374 0.00158691 8.00001 0.00158691C7.79627 0.00158691 7.5974 0.0638149 7.43001 0.179942C6.53476 0.804856 5.52108 1.23991 4.45137 1.45833C3.38166 1.67674 2.27857 1.67389 1.21001 1.44994C1.06394 1.4184 0.912671 1.41999 0.767306 1.45461C0.621942 1.48922 0.486181 1.55596 0.370006 1.64994C0.253985 1.74406 0.160527 1.86298 0.0964981 1.99796C0.0324695 2.13294 -0.00050219 2.28055 5.78149e-06 2.42994V9.87994C-0.000883255 11.3137 0.340779 12.7269 0.996541 14.0019C1.6523 15.2769 2.60319 16.3768 3.77001 17.2099L7.42001 19.8099C7.58937 19.9305 7.7921 19.9953 8.00001 19.9953C8.20791 19.9953 8.41064 19.9305 8.58001 19.8099L12.23 17.2099C13.3968 16.3768 14.3477 15.2769 15.0035 14.0019C15.6592 12.7269 16.0009 11.3137 16 9.87994V2.42994C16.0005 2.28055 15.9675 2.13294 15.9035 1.99796C15.8395 1.86298 15.746 1.74406 15.63 1.64994ZM14 9.87994C14.0008 10.9947 13.7353 12.0935 13.2257 13.085C12.716 14.0764 11.977 14.9318 11.07 15.5799L8.00001 17.7699L4.93001 15.5799C4.02304 14.9318 3.28399 14.0764 2.77435 13.085C2.26472 12.0935 1.99924 10.9947 2.00001 9.87994V3.57994C4.09643 3.75938 6.19605 3.27297 8.00001 2.18994C9.80397 3.27297 11.9036 3.75938 14 3.57994V9.87994ZM9.54001 7.58994L6.85001 10.2899L5.96001 9.38994C5.7717 9.20164 5.51631 9.09585 5.25001 9.09585C4.9837 9.09585 4.72831 9.20164 4.54001 9.38994C4.3517 9.57825 4.24591 9.83364 4.24591 10.0999C4.24591 10.3662 4.3517 10.6216 4.54001 10.8099L6.14001 12.4099C6.23297 12.5037 6.34357 12.5781 6.46543 12.6288C6.58729 12.6796 6.71799 12.7057 6.85001 12.7057C6.98202 12.7057 7.11272 12.6796 7.23458 12.6288C7.35644 12.5781 7.46704 12.5037 7.56001 12.4099L11 8.99994C11.1883 8.81164 11.2941 8.55624 11.2941 8.28994C11.2941 8.02364 11.1883 7.76825 11 7.57994C10.8117 7.39164 10.5563 7.28585 10.29 7.28585C10.0237 7.28585 9.76831 7.39164 9.58001 7.57994L9.54001 7.58994Z" fill="black"/>
</svg>
