<svg width="16" height="21" viewBox="0 0 16 21" fill="none" xmlns="http://www.w3.org/2000/svg">
<path d="M15.8903 8.55004C15.8072 8.38513 15.6801 8.24645 15.523 8.14937C15.3659 8.05229 15.185 8.0006 15.0003 8.00004H10.0003V2.00004C10.0111 1.78073 9.94933 1.56397 9.82463 1.38324C9.69992 1.20251 9.5192 1.06785 9.31035 1.00004C9.10958 0.933986 8.89303 0.933244 8.69181 0.997923C8.49059 1.0626 8.31503 1.18937 8.19035 1.36004L0.19035 12.36C0.0901155 12.5049 0.0299285 12.6737 0.0158803 12.8493C0.00183222 13.0249 0.0344217 13.2011 0.11035 13.36C0.180272 13.5418 0.301738 13.6992 0.45984 13.8129C0.617941 13.9266 0.805798 13.9916 1.00035 14H6.00035V20C6.0005 20.2109 6.06732 20.4164 6.19124 20.587C6.31517 20.7576 6.48986 20.8847 6.69035 20.95C6.79082 20.9812 6.89518 20.998 7.00035 21C7.15814 21.0005 7.31378 20.9635 7.45456 20.8923C7.59534 20.821 7.71726 20.7174 7.81035 20.59L15.8103 9.59004C15.9181 9.44084 15.9826 9.2648 15.9967 9.0813C16.0108 8.8978 15.974 8.71397 15.8903 8.55004ZM8.00035 16.92V13C8.00035 12.7348 7.89499 12.4805 7.70746 12.2929C7.51992 12.1054 7.26557 12 7.00035 12H3.00035L8.00035 5.08004V9.00004C8.00035 9.26526 8.10571 9.51961 8.29324 9.70715C8.48078 9.89469 8.73513 10 9.00035 10H13.0003L8.00035 16.92Z" fill="black"/>
</svg>
