<svg width="344" height="140" viewBox="0 0 344 140" fill="none" xmlns="http://www.w3.org/2000/svg">
<g opacity="0.05">
<path d="M-62 115.277L-19.7532 90.6332C26.5825 63.6041 83.8791 63.6041 130.215 90.6332L172.462 115.277L214.708 139.921C261.044 166.95 318.341 166.95 364.676 139.921L406.923 115.277" stroke="#F8F9FF" stroke-width="2.81538" stroke-linecap="round" stroke-linejoin="round"/>
<path d="M-62 91.8307L-19.7532 67.1867C26.5825 40.1576 83.8791 40.1576 130.215 67.1867L172.462 91.8307L214.708 116.475C261.044 143.504 318.341 143.504 364.676 116.475L406.923 91.8307" stroke="#F8F9FF" stroke-width="2.81538" stroke-linecap="round" stroke-linejoin="round"/>
<path d="M-62 68.3846L-19.7532 43.7406C26.5825 16.7115 83.8791 16.7115 130.215 43.7406L172.462 68.3846L214.708 93.0286C261.044 120.058 318.341 120.058 364.676 93.0286L406.923 68.3846" stroke="#F8F9FF" stroke-width="2.81538" stroke-linecap="round" stroke-linejoin="round"/>
<path d="M-62 138.723L-19.7532 114.079C26.5825 87.0501 83.8791 87.0501 130.215 114.079L172.462 138.723L214.708 163.367C261.044 190.396 318.341 190.396 364.676 163.367L406.923 138.723" stroke="#F8F9FF" stroke-width="2.81538" stroke-linecap="round" stroke-linejoin="round"/>
<path d="M-62 162.169L-19.7532 137.525C26.5825 110.496 83.8791 110.496 130.215 137.525L172.462 162.169L214.708 186.813C261.044 213.842 318.341 213.842 364.676 186.813L406.923 162.169" stroke="#F8F9FF" stroke-width="2.81538" stroke-linecap="round" stroke-linejoin="round"/>
<path d="M-62 185.615L-19.7532 160.971C26.5825 133.942 83.8791 133.942 130.215 160.971L172.462 185.615L214.708 210.259C261.044 237.288 318.341 237.288 364.676 210.259L406.923 185.615" stroke="#F8F9FF" stroke-width="2.81538" stroke-linecap="round" stroke-linejoin="round"/>
</g>
</svg>
