<svg width="210" height="230" viewBox="0 0 210 230" fill="none" xmlns="http://www.w3.org/2000/svg"><path d="M191.183 115.493C191.18 115.458 191.18 115.424 191.183 115.389C191.183 115.315 191.183 115.222 191.183 115.099C191.183 114.833 191.183 114.458 191.183 113.976C191.183 112.991 191.183 111.553 191.153 109.74C191.153 106.096 191.124 100.915 191.099 94.7053L191.207 94.8137H170.42C170.39 94.8137 170.661 94.5723 170.548 94.6856V100.295C170.548 102.127 170.548 103.918 170.548 105.668C170.548 109.159 170.548 112.454 170.548 115.473L170.44 115.364L185.475 115.419L189.71 115.448H190.833H191.227C191.227 115.448 191.202 115.448 191.138 115.448H190.794H189.69L185.48 115.478L170.376 115.537H170.262V115.424C170.262 112.405 170.262 109.11 170.262 105.618C170.262 103.872 170.262 102.081 170.262 100.246V94.7053C170.144 94.8186 170.415 94.5477 170.39 94.5773H191.178H191.286V94.6905C191.286 100.93 191.242 106.136 191.227 109.795C191.227 111.602 191.227 113.02 191.197 114.005C191.197 114.498 191.197 114.847 191.197 115.108C191.197 115.227 191.197 115.315 191.197 115.389C191.197 115.463 191.188 115.497 191.183 115.493Z" fill="#E0E0E0"/><path d="M191.252 104.653C191.252 104.722 186.534 104.781 180.718 104.781C174.901 104.781 170.184 104.722 170.184 104.653C170.184 104.584 174.901 104.525 180.718 104.525C186.534 104.525 191.252 104.579 191.252 104.653Z" fill="#E0E0E0"/><path d="M180.885 95.0649C180.954 95.0649 181.013 99.7089 181.013 105.431C181.013 111.154 180.954 115.798 180.885 115.798C180.816 115.798 180.757 111.159 180.757 105.431C180.757 99.704 180.816 95.0649 180.885 95.0649Z" fill="#E0E0E0"/><path d="M180.777 94.395C180.777 94.395 180.713 94.395 180.599 94.395C180.486 94.395 180.319 94.3409 180.107 94.2867C179.504 94.131 178.918 93.9149 178.359 93.6416C177.51 93.2332 176.722 92.7077 176.019 92.0804C175.593 91.7267 175.215 91.3176 174.896 90.864C174.726 90.5992 174.645 90.2869 174.665 89.9727C174.678 89.8027 174.734 89.6389 174.829 89.4973C174.924 89.3557 175.054 89.2412 175.207 89.165C175.514 89.0442 175.855 89.0442 176.162 89.165C176.449 89.2547 176.72 89.3894 176.965 89.5639C177.419 89.8717 177.845 90.2177 178.24 90.5981C178.911 91.2409 179.489 91.9734 179.959 92.7748C180.276 93.3118 180.539 93.8794 180.742 94.4689C180.811 94.6758 180.855 94.8432 180.885 94.9614C180.914 95.0796 180.924 95.1387 180.914 95.1387C180.601 94.3589 180.231 93.6033 179.806 92.8782C179.323 92.1073 178.742 91.4021 178.078 90.7803C177.686 90.419 177.266 90.0897 176.822 89.7954C176.597 89.6381 176.35 89.5153 176.088 89.4309C175.839 89.3398 175.565 89.3398 175.315 89.4309C175.202 89.4869 175.106 89.5721 175.036 89.6778C174.967 89.7834 174.927 89.9056 174.921 90.0317C174.901 90.2925 174.969 90.5524 175.113 90.7705C175.416 91.2034 175.774 91.5957 176.177 91.9376C176.852 92.5473 177.604 93.0671 178.413 93.484C179.179 93.8415 179.969 94.1459 180.777 94.395Z" fill="#E0E0E0"/><path d="M180.747 94.5034C180.748 94.2684 180.773 94.0342 180.821 93.8041C180.921 93.1722 181.054 92.5459 181.22 91.9278C181.463 91.01 181.769 90.11 182.136 89.234C182.343 88.7415 182.579 88.2244 182.845 87.7073C182.977 87.4169 183.18 87.1645 183.436 86.9736C183.588 86.8714 183.772 86.8285 183.954 86.853C184.135 86.8775 184.301 86.9677 184.421 87.1065C184.864 87.6876 184.741 88.3771 184.672 88.9434C184.592 89.5055 184.444 90.056 184.234 90.5834C183.885 91.4784 183.374 92.3014 182.727 93.0112C182.294 93.4912 181.797 93.9088 181.249 94.2523C181.103 94.3481 180.95 94.4337 180.791 94.5084C180.688 94.5625 180.629 94.5872 180.624 94.5773C181.348 94.1 182.01 93.5342 182.594 92.8931C183.203 92.1836 183.685 91.3738 184.017 90.4996C184.213 89.9847 184.35 89.4495 184.426 88.904C184.47 88.6223 184.49 88.3372 184.485 88.0521C184.478 87.7732 184.389 87.5026 184.229 87.274C184.15 87.1793 184.038 87.1176 183.916 87.1012C183.794 87.0848 183.67 87.1148 183.569 87.1853C183.355 87.3535 183.186 87.5717 183.077 87.8206C182.811 88.3131 182.584 88.84 182.362 89.3276C181.983 90.1907 181.654 91.0754 181.378 91.9771C181.151 92.7502 181.003 93.3855 180.885 93.8238C180.859 94.054 180.813 94.2815 180.747 94.5034Z" fill="#E0E0E0"/><path d="M90.6298 5.96694C90.726 5.89534 90.8364 5.84512 90.9536 5.81964C91.0708 5.79416 91.1921 5.79401 91.3094 5.8192C91.5903 5.87894 91.8597 5.98371 92.1072 6.12946L93.1512 6.62193C94.7272 7.40988 96.9876 8.52779 99.7799 9.91164L104.35 12.1967L105.596 12.8369L106.236 13.157C106.473 13.2535 106.693 13.3883 106.886 13.5559C107.03 13.7025 107.139 13.8791 107.206 14.0729C107.273 14.2667 107.296 14.4729 107.274 14.6768C107.252 14.8806 107.185 15.0771 107.078 15.252C106.971 15.4269 106.826 15.5759 106.655 15.6883C106.414 15.8279 106.14 15.901 105.862 15.9001L92.4322 16.3926L79.0025 16.885L77.471 16.9343C77.2042 16.9417 76.9412 16.871 76.7141 16.7308C76.487 16.5907 76.3058 16.3873 76.1928 16.1456C76.0798 15.9039 76.0399 15.6344 76.078 15.3703C76.1161 15.1062 76.2305 14.859 76.4072 14.6591C76.5833 14.4873 76.7842 14.3429 77.0031 14.2306L77.5941 13.8662L81.9574 11.2068L88.2856 7.37049L90.0142 6.34122L90.4673 6.08021L90.6249 5.99649C90.6249 5.99649 90.5805 6.03589 90.4821 6.09991L90.0438 6.38554L88.3595 7.42958L82.0608 11.3152L77.7123 13.9991L77.1213 14.3636C76.9209 14.4677 76.7368 14.6004 76.5747 14.7576C76.4252 14.9243 76.3282 15.1314 76.2959 15.353C76.2636 15.5746 76.2974 15.8008 76.3931 16.0032C76.4888 16.2057 76.6422 16.3754 76.8339 16.4911C77.0256 16.6067 77.2472 16.6633 77.471 16.6536L78.9976 16.5994L92.4322 16.1069L105.862 15.6145C106.098 15.6177 106.331 15.5582 106.537 15.4421C106.731 15.3169 106.883 15.1346 106.97 14.9201C107.059 14.7116 107.084 14.4814 107.042 14.2587C107 14.0359 106.893 13.8307 106.734 13.6692C106.556 13.5196 106.357 13.3984 106.143 13.3097L105.502 12.9847L104.252 12.3494L99.6863 10.0889L93.0922 6.73027L92.0629 6.1984C91.8234 6.0499 91.5627 5.93864 91.2897 5.86845C91.0649 5.82966 90.8335 5.86419 90.6298 5.96694Z" fill="#E0E0E0"/><path d="M91.0236 5.8241C90.9641 5.30095 90.9526 4.77345 90.9891 4.2482V4.14478H91.0975C91.5986 4.21702 92.1082 4.09358 92.5207 3.80005C92.7721 3.63414 92.9799 3.41015 93.1265 3.14699C93.2731 2.88384 93.3541 2.58926 93.3628 2.28816C93.3693 1.97686 93.3069 1.66798 93.18 1.38362C93.0532 1.09926 92.865 0.846463 92.6291 0.643306C92.2254 0.321766 91.7157 0.163577 91.2009 0.200081C90.7178 0.245484 90.2546 0.415141 89.8564 0.692552C89.8564 0.692552 89.9303 0.559585 90.1421 0.401994C90.4515 0.185902 90.8108 0.0520241 91.1861 0.0129411C91.7621 -0.0499882 92.3396 0.118281 92.7916 0.480789C93.0616 0.702376 93.2777 0.982438 93.4236 1.29981C93.5695 1.61719 93.6413 1.96357 93.6337 2.31278C93.6238 2.66072 93.5237 3.00012 93.3431 3.29773C93.1735 3.57848 92.943 3.81749 92.6685 3.99703C92.2025 4.3126 91.6308 4.4312 91.0778 4.32699L91.191 4.24327C91.1775 4.77384 91.1215 5.30247 91.0236 5.8241Z" fill="#E0E0E0"/><path d="M36.5617 79.7687C36.5574 79.6899 36.5574 79.611 36.5617 79.5323C36.5617 79.3648 36.5322 79.1334 36.5125 78.8379C36.5125 78.6803 36.5125 78.5079 36.478 78.3454C36.4435 78.1829 36.4189 77.9564 36.3844 77.7348C36.3189 77.2225 36.2168 76.7157 36.0791 76.218C35.7343 74.8481 35.1848 73.5382 34.449 72.3324C33.4859 70.7267 32.2237 69.3208 30.7309 68.1907C28.925 66.8161 26.8215 65.8849 24.5898 65.4722C23.9802 65.3566 23.3629 65.2858 22.743 65.2605C22.4278 65.2605 22.1126 65.2161 21.7925 65.2211L20.8076 65.2703C20.6451 65.2703 20.4825 65.2703 20.3151 65.3048L19.8226 65.3787C19.4976 65.4328 19.1676 65.4722 18.8377 65.5363C18.1699 65.6856 17.512 65.8764 16.8678 66.1075C16.2169 66.3455 15.5819 66.6252 14.9669 66.9447C14.6615 67.1122 14.3661 67.3042 14.0607 67.4864C13.7545 67.6673 13.4616 67.8698 13.1841 68.0922C12.6034 68.5245 12.0507 68.9933 11.5294 69.4957C11.0183 70.0268 10.5429 70.5911 10.1062 71.1849C9.22483 72.402 8.54322 73.7519 8.08704 75.1838C7.60236 76.6652 7.34014 78.2103 7.30893 79.7687C7.3356 81.3339 7.59791 82.8862 8.08704 84.3733C8.55984 85.8141 9.26157 87.1693 10.1653 88.3869C10.6039 88.9806 11.081 89.5448 11.5934 90.0761C12.1124 90.5811 12.6652 91.0501 13.2481 91.4796C13.5171 91.7005 13.8018 91.9013 14.1001 92.0805C14.4054 92.2627 14.7009 92.4597 15.0063 92.6222C16.2212 93.2624 17.5141 93.7425 18.8525 94.0503C19.1775 94.1193 19.5075 94.1587 19.8374 94.2129L20.3299 94.2867C20.4875 94.2867 20.6549 94.2867 20.8224 94.3163L21.8073 94.3655C22.1274 94.3655 22.4426 94.3409 22.7578 94.3311C23.3773 94.3011 23.9943 94.2304 24.6045 94.1193C26.6368 93.734 28.5648 92.9237 30.2621 91.7415C31.9595 90.5592 33.3879 89.0318 34.454 87.2592C35.1899 86.0517 35.7394 84.7401 36.084 83.3686C36.2216 82.8726 36.3236 82.3673 36.3894 81.8568C36.4238 81.6351 36.4632 81.4283 36.4829 81.2412C36.5026 81.054 36.5076 80.8817 36.5174 80.7487C36.5174 80.4532 36.5519 80.2217 36.5667 80.0543C36.5626 79.9739 36.5626 79.8934 36.5667 79.813C36.5667 79.813 36.5667 79.8967 36.5667 80.0543C36.5667 80.2119 36.5667 80.4532 36.5667 80.7536C36.5667 80.9063 36.5667 81.0786 36.5667 81.2461C36.5667 81.4135 36.5174 81.6401 36.4879 81.8666C36.4299 82.3821 36.3328 82.8925 36.1973 83.3933C35.8676 84.7804 35.3278 86.109 34.5968 87.333C33.6344 88.9633 32.367 90.3929 30.8638 91.5437C28.5211 93.3459 25.6851 94.392 22.7331 94.5428C22.413 94.5428 22.0929 94.5822 21.7482 94.5822L20.7633 94.533C20.6007 94.533 20.4333 94.533 20.2708 94.5034L19.7783 94.4246C19.4484 94.3754 19.1135 94.336 18.7934 94.267C18.1246 94.1194 17.4664 93.9269 16.8235 93.6908C16.1604 93.4534 15.5138 93.1721 14.8881 92.8487C14.5778 92.6763 14.2774 92.4794 13.9672 92.2971C13.6545 92.113 13.355 91.9073 13.0709 91.6816C12.4801 91.243 11.9176 90.7676 11.3866 90.2583C10.866 89.7172 10.3807 89.1431 9.93381 88.5396C9.01127 87.3025 8.29606 85.9237 7.81618 84.457C6.78979 81.4225 6.78979 78.1346 7.81618 75.1C8.29814 73.6343 9.01318 72.2557 9.93381 71.0175C10.8034 69.808 11.8628 68.747 13.0709 67.8755C13.3646 67.6503 13.674 67.4462 13.9967 67.2648C14.307 67.0826 14.6074 66.8856 14.9176 66.7182C15.5433 66.3933 16.1898 66.1103 16.853 65.8711C17.4961 65.6367 18.1542 65.4458 18.8229 65.2999C19.1529 65.2309 19.4878 65.1915 19.8079 65.1373L20.3003 65.0635C20.4628 65.0635 20.6303 65.0635 20.7928 65.0339L21.7777 64.9847C22.1028 64.9847 22.4229 65.0142 22.7627 65.0241C23.3892 65.0549 24.0128 65.1289 24.6292 65.2457C26.689 65.6393 28.6414 66.4669 30.3567 67.6735C32.0719 68.8801 33.5106 70.438 34.5771 72.2437C35.3098 73.467 35.8496 74.7958 36.1776 76.1835C36.314 76.6841 36.4111 77.1945 36.4682 77.7101C36.4977 77.9318 36.5322 78.1386 36.547 78.3257C36.5617 78.5129 36.547 78.6852 36.547 78.8428C36.547 79.1432 36.547 79.3747 36.547 79.5421C36.547 79.7096 36.5617 79.7687 36.5617 79.7687Z" fill="#E0E0E0"/><path d="M21.8763 70.6728C21.7497 69.7477 21.7069 68.8132 21.7482 67.8805C21.7067 66.9494 21.7496 66.0164 21.8763 65.0931C22.0029 66.0164 22.0458 66.9494 22.0043 67.8805C22.0456 68.8132 22.0028 69.7477 21.8763 70.6728Z" fill="#E0E0E0"/><path d="M13.6225 79.7687C12.5772 79.8982 11.523 79.941 10.4707 79.8967C9.41673 79.9411 8.36089 79.8983 7.31396 79.7687C8.36113 79.6421 9.41673 79.5993 10.4707 79.6407C11.523 79.5994 12.577 79.6422 13.6225 79.7687Z" fill="#E0E0E0"/><path d="M36.4971 79.7686C35.5177 79.8971 34.529 79.9399 33.5422 79.8967C32.5554 79.9401 31.5667 79.8973 30.5874 79.7686C31.567 79.6429 32.5554 79.6001 33.5422 79.6406C34.529 79.6002 35.5175 79.643 36.4971 79.7686Z" fill="#E0E0E0"/><path d="M21.8763 94.4689C21.7487 93.4895 21.7058 92.5009 21.7483 91.5141C21.7058 90.5273 21.7487 89.5387 21.8763 88.5593C22.004 89.5387 22.0468 90.5273 22.0044 91.5141C22.0468 92.5009 22.004 93.4895 21.8763 94.4689Z" fill="#E0E0E0"/><path d="M179.245 139.437C179.245 139.437 179.245 139.284 179.21 138.993C179.176 138.703 179.166 138.269 179.132 137.703C179.132 137.422 179.102 137.102 179.077 136.758C179.053 136.413 178.969 136.029 178.91 135.62L178.703 134.295C178.671 134.051 178.619 133.811 178.545 133.576C178.481 133.33 178.417 133.084 178.348 132.813C177.72 130.269 176.707 127.836 175.344 125.598C173.561 122.618 171.22 120.01 168.45 117.916L167.278 117.039C166.864 116.773 166.436 116.522 166.007 116.261L165.357 115.867C165.143 115.728 164.919 115.605 164.687 115.498L163.279 114.823C163.042 114.71 162.786 114.591 162.565 114.483L161.816 114.207L160.29 113.656C159.797 113.483 159.236 113.37 158.699 113.227C158.16 113.07 157.613 112.945 157.059 112.853C155.93 112.644 154.788 112.512 153.641 112.459C153.055 112.459 152.469 112.38 151.873 112.39L150.086 112.484C149.785 112.484 149.48 112.484 149.179 112.538L148.278 112.681C147.677 112.779 147.067 112.848 146.461 112.976C145.236 113.247 144.03 113.599 142.851 114.03L141.955 114.36L141.507 114.527L141.073 114.739L139.325 115.581C138.754 115.892 138.207 116.251 137.641 116.566C137.365 116.744 137.07 116.896 136.804 117.093L136.025 117.689C134.946 118.489 133.921 119.361 132.957 120.299L131.578 121.811L131.234 122.19L130.923 122.604L130.303 123.431L129.682 124.264L129.136 125.155L128.594 126.061L128.323 126.509C128.24 126.662 128.166 126.824 128.092 127.002L127.171 128.908C126.93 129.572 126.678 130.242 126.437 130.912C124.579 136.448 124.579 142.44 126.437 147.976L127.171 149.98L128.087 151.886L128.318 152.379L128.594 152.827L129.136 153.723L129.682 154.615L130.303 155.447L130.923 156.274L131.234 156.688L131.578 157.067L132.952 158.579C133.917 159.516 134.942 160.388 136.021 161.189L136.818 161.785C137.084 161.987 137.38 162.135 137.656 162.312C138.222 162.647 138.769 163.011 139.34 163.297L141.088 164.144L141.521 164.351C141.669 164.415 141.822 164.464 141.97 164.518L142.866 164.848C144.044 165.28 145.25 165.634 146.476 165.907C147.081 166.03 147.692 166.104 148.293 166.202L149.199 166.34C149.5 166.38 149.8 166.38 150.1 166.399L151.893 166.493C152.484 166.493 153.07 166.444 153.656 166.424C154.813 166.368 155.964 166.235 157.103 166.025L157.517 165.961C157.655 165.936 157.793 165.892 157.926 165.863L158.738 165.656C159.275 165.508 159.817 165.4 160.334 165.227L161.856 164.671L162.604 164.395L163.323 164.06L164.727 163.385C164.958 163.276 165.182 163.151 165.396 163.011L166.047 162.617C166.475 162.356 166.908 162.125 167.317 161.839L168.489 160.967C171.26 158.872 173.601 156.262 175.384 153.28C176.746 151.042 177.759 148.609 178.388 146.065L178.585 145.307C178.658 145.07 178.71 144.828 178.742 144.583L178.949 143.258C179.008 142.849 179.082 142.47 179.122 142.125C179.161 141.781 179.156 141.461 179.171 141.175C179.205 140.614 179.235 140.19 179.25 139.885C179.264 139.579 179.284 139.446 179.284 139.446C179.284 139.446 179.284 139.594 179.284 139.885C179.284 140.175 179.255 140.614 179.23 141.18C179.23 141.461 179.205 141.781 179.186 142.13C179.166 142.48 179.087 142.859 179.028 143.268C178.969 143.677 178.905 144.125 178.831 144.598C178.803 144.844 178.753 145.088 178.683 145.327C178.619 145.573 178.555 145.819 178.491 146.09C177.875 148.649 176.871 151.099 175.512 153.354C173.735 156.36 171.394 158.993 168.617 161.11L167.44 161.992C167.031 162.263 166.593 162.514 166.165 162.78L165.51 163.179C165.295 163.322 165.07 163.447 164.835 163.553L163.422 164.237L162.703 164.582L161.949 164.858L160.413 165.424C159.896 165.597 159.349 165.71 158.807 165.858L157.995 166.069C157.857 166.099 157.719 166.143 157.581 166.168L157.157 166.232C156.019 166.449 154.867 166.586 153.71 166.641C153.124 166.641 152.533 166.72 151.932 166.715L150.13 166.626C149.825 166.601 149.519 166.626 149.219 166.567L148.308 166.429C147.702 166.33 147.081 166.257 146.471 166.133C145.236 165.859 144.02 165.504 142.831 165.07L141.925 164.74L141.472 164.572L141.034 164.361L139.227 163.489C138.65 163.174 138.094 162.814 137.523 162.474C137.247 162.297 136.946 162.144 136.68 161.943L135.878 161.342C134.788 160.535 133.753 159.656 132.78 158.712L131.391 157.185L131.042 156.801L130.726 156.387L130.101 155.55L129.471 154.708L128.924 153.812L128.372 152.911L128.097 152.458L127.865 151.965L126.934 150.04L126.196 148.015C124.316 142.424 124.316 136.371 126.196 130.779C126.447 130.104 126.688 129.43 126.939 128.76C127.191 128.09 127.56 127.474 127.865 126.834C127.944 126.677 128.018 126.514 128.102 126.342L128.372 125.889L128.924 124.987L129.476 124.086L130.101 123.249L130.726 122.412L131.042 121.998L131.391 121.614L132.78 120.087C133.754 119.144 134.789 118.266 135.878 117.458L136.68 116.857C136.946 116.66 137.247 116.507 137.528 116.325C138.094 115.99 138.65 115.626 139.227 115.34L140.99 114.493L141.428 114.281C141.576 114.217 141.728 114.168 141.881 114.109L142.787 113.779C143.976 113.346 145.191 112.993 146.426 112.72C147.037 112.592 147.653 112.523 148.263 112.425L149.174 112.287C149.475 112.247 149.78 112.247 150.086 112.228L151.888 112.139C152.484 112.139 153.08 112.188 153.666 112.208C154.823 112.266 155.975 112.402 157.113 112.617C157.671 112.707 158.222 112.834 158.763 112.996C159.305 113.144 159.846 113.257 160.368 113.429L161.9 113.991L162.658 114.266L163.377 114.611L164.791 115.296C165.024 115.405 165.249 115.53 165.465 115.67L166.115 116.069C166.549 116.335 166.982 116.586 167.396 116.857L168.573 117.738C171.349 119.856 173.69 122.49 175.468 125.495C176.825 127.75 177.83 130.2 178.447 132.759C178.511 133.025 178.575 133.251 178.639 133.527C178.709 133.764 178.758 134.006 178.787 134.251L178.984 135.581C179.043 135.994 179.112 136.369 179.141 136.718C179.171 137.068 179.171 137.388 179.186 137.674C179.21 138.235 179.225 138.659 179.24 138.964C179.255 139.269 179.245 139.437 179.245 139.437Z" fill="#263238"/><path d="M163.063 133.563V141.497C163.063 142.363 162.721 143.193 162.114 143.805C161.507 144.418 160.683 144.762 159.824 144.762H146.211V149.3L143.766 144.947C143.041 144.892 142.364 144.563 141.87 144.026C141.375 143.489 141.1 142.784 141.1 142.052V133.563C141.1 132.697 141.441 131.867 142.048 131.254C142.656 130.642 143.479 130.298 144.338 130.298H159.835C160.692 130.301 161.513 130.646 162.118 131.258C162.723 131.87 163.063 132.699 163.063 133.563Z" fill="#4372EA"/><path opacity="0.5" d="M163.063 133.563V141.497C163.063 142.363 162.721 143.193 162.114 143.805C161.507 144.418 160.683 144.762 159.824 144.762H146.211V149.3L143.766 144.947C143.041 144.892 142.364 144.563 141.87 144.026C141.375 143.489 141.1 142.784 141.1 142.052V133.563C141.1 132.697 141.441 131.867 142.048 131.254C142.656 130.642 143.479 130.298 144.338 130.298H159.835C160.692 130.301 161.513 130.646 162.118 131.258C162.723 131.87 163.063 132.699 163.063 133.563Z" fill="white"/><path d="M155.659 137.948C155.659 138.192 155.739 138.431 155.888 138.634C156.037 138.836 156.249 138.995 156.497 139.088C156.745 139.181 157.018 139.206 157.281 139.158C157.545 139.111 157.786 138.993 157.976 138.82C158.166 138.648 158.295 138.428 158.348 138.189C158.4 137.949 158.373 137.701 158.27 137.476C158.168 137.25 157.994 137.058 157.771 136.922C157.547 136.786 157.285 136.714 157.016 136.714C156.838 136.713 156.661 136.745 156.496 136.807C156.331 136.868 156.181 136.959 156.055 137.074C155.929 137.189 155.829 137.325 155.761 137.475C155.693 137.625 155.658 137.786 155.659 137.948Z" fill="#263238"/><path d="M151.834 139.182C152.584 139.182 153.192 138.629 153.192 137.948C153.192 137.267 152.584 136.714 151.834 136.714C151.085 136.714 150.477 137.267 150.477 137.948C150.477 138.629 151.085 139.182 151.834 139.182Z" fill="#263238"/><path d="M145.542 137.948C145.542 138.192 145.622 138.431 145.771 138.634C145.92 138.836 146.132 138.995 146.38 139.088C146.628 139.181 146.901 139.206 147.164 139.158C147.427 139.111 147.669 138.993 147.859 138.82C148.049 138.648 148.178 138.428 148.23 138.189C148.283 137.949 148.256 137.701 148.153 137.476C148.05 137.25 147.877 137.058 147.653 136.922C147.43 136.786 147.168 136.714 146.899 136.714C146.539 136.714 146.194 136.844 145.94 137.076C145.685 137.307 145.542 137.621 145.542 137.948Z" fill="#263238"/><path d="M152.08 120.339C151.953 118.998 151.91 117.651 151.952 116.305C151.91 114.958 151.953 113.609 152.08 112.267C152.21 113.609 152.252 114.958 152.208 116.305C152.252 117.651 152.21 118.998 152.08 120.339Z" fill="#263238"/><path d="M136.829 139.436C136.829 139.505 134.214 139.565 130.993 139.565C127.773 139.565 125.163 139.505 125.163 139.436C125.163 139.368 127.773 139.308 130.993 139.308C134.214 139.308 136.829 139.358 136.829 139.436Z" fill="#263238"/><path d="M179.132 139.436C179.132 139.505 176.67 139.565 173.631 139.565C170.593 139.565 168.14 139.505 168.14 139.436C168.14 139.368 170.602 139.308 173.636 139.308C176.67 139.308 179.132 139.358 179.132 139.436Z" fill="#263238"/><path d="M152.08 166.601C151.953 165.142 151.91 163.677 151.952 162.213C151.91 160.751 151.953 159.288 152.08 157.83C152.21 159.287 152.253 160.751 152.208 162.213C152.252 163.677 152.21 165.142 152.08 166.601Z" fill="#263238"/><path d="M81.5134 43.3602C81.5134 43.3602 81.5134 43.2224 81.479 42.9613C81.4445 42.7003 81.4396 42.3064 81.4051 41.804C81.4051 41.5479 81.3755 41.2623 81.3558 40.9471C81.3361 40.6319 81.2574 40.2971 81.2032 39.9277C81.149 39.5584 81.085 39.1644 81.016 38.7409C80.9341 38.2908 80.8289 37.8454 80.7009 37.4063C80.1389 35.1212 79.234 32.9344 78.0169 30.9204C76.4163 28.2468 74.3164 25.906 71.8315 24.0258L70.7776 23.2428C70.4082 23.0015 70.0192 22.7503 69.635 22.5385C69.2509 22.3268 68.8668 22.0461 68.4482 21.854L67.1825 21.2384L66.5423 20.9331L65.8676 20.6869L64.4986 20.1944C64.0356 20.0417 63.5481 19.9383 63.0655 19.8103C62.5804 19.6683 62.0869 19.5565 61.588 19.4754C60.5731 19.2865 59.5463 19.168 58.515 19.1208C57.993 19.1208 57.4611 19.0519 56.9293 19.0568L55.3238 19.1405C55.0529 19.1405 54.7772 19.1405 54.5112 19.1947L53.6986 19.3178C53.1569 19.4064 52.6054 19.4705 52.0636 19.5837C50.9633 19.8272 49.8807 20.1448 48.8232 20.5342L48.0155 20.8297L47.6117 20.9823L47.2227 21.1695L45.6517 21.9279C45.1592 22.2037 44.6667 22.5287 44.1398 22.8291C43.8886 22.9916 43.6227 23.1246 43.3863 23.3216L42.6722 23.8584C41.7012 24.575 40.7799 25.3566 39.9144 26.1976L38.6783 27.5568L38.368 27.9016L38.0922 28.2709L37.5357 29.0146L36.9743 29.7631L36.4818 30.5609L35.9894 31.3686L35.7431 31.7724C35.6693 31.9103 35.6052 32.0531 35.5363 32.1959C35.2605 32.7639 34.9847 33.3352 34.7089 33.9097C34.4923 34.5056 34.2707 35.1064 34.049 35.7072C32.3815 40.6831 32.3815 46.0669 34.049 51.0428C34.2707 51.6436 34.4873 52.2444 34.7089 52.8403C34.9306 53.4362 35.2605 53.9878 35.5314 54.559L35.7382 54.9826L35.9845 55.3864L36.4769 56.1891L36.9694 56.9919L37.5259 57.7404L38.0824 58.484L38.3631 58.8534L38.6733 59.1932L39.8996 60.5623C40.7663 61.4019 41.6876 62.1834 42.6574 62.9015L43.3715 63.4383C43.6079 63.6205 43.864 63.7535 44.125 63.9308C44.6175 64.2312 45.1099 64.5562 45.6369 64.832L47.2079 65.5904L47.5969 65.7775L48.0008 65.9302L48.8084 66.2257C49.8659 66.6151 50.9486 66.9326 52.0489 67.1762C52.5955 67.2894 53.1422 67.3535 53.6839 67.4421L54.4965 67.5652C54.7673 67.5997 55.0382 67.5997 55.309 67.6194L56.9145 67.7031C57.4513 67.7031 57.9782 67.6588 58.5002 67.6391C59.5332 67.5919 60.5616 67.4734 61.5782 67.2845C62.0771 67.2034 62.5705 67.0916 63.0556 66.9496C63.5481 66.8216 64.0406 66.7182 64.4838 66.5655L65.8528 66.073L66.5275 65.8268L67.1825 65.487L68.4432 64.8812C68.8668 64.6892 69.2361 64.4183 69.6301 64.1967C70.0241 63.9751 70.4033 63.7338 70.7726 63.4925L71.8265 62.7094C74.3123 60.8301 76.4124 58.4892 78.012 55.8148C79.2367 53.8042 80.1483 51.6188 80.7156 49.3339C80.7747 49.0975 80.8338 48.871 80.8929 48.6494C80.9571 48.437 81.0032 48.2195 81.0308 47.9993C81.0998 47.5758 81.1589 47.1818 81.218 46.8125C81.2771 46.4431 81.3411 46.1033 81.3706 45.7931C81.4002 45.4828 81.4051 45.1922 81.4199 44.9361C81.4543 44.4437 81.479 44.0448 81.4937 43.7788C81.5085 43.5129 81.5282 43.3849 81.5282 43.3849C81.5282 43.3849 81.5282 43.5178 81.5282 43.7788C81.5282 44.0399 81.5036 44.4338 81.4839 44.9411C81.4839 45.1972 81.4593 45.4828 81.4445 45.798C81.4297 46.1132 81.3558 46.453 81.3066 46.8223L81.1293 48.019C81.1006 48.2386 81.0562 48.4559 80.9963 48.6691C80.9372 48.8907 80.8782 49.1222 80.8191 49.3585C80.2675 51.6594 79.3656 53.8618 78.1449 55.8887C76.549 58.594 74.4434 60.9639 71.9447 62.867L70.8908 63.6599C70.5165 63.9061 70.1275 64.1524 69.7384 64.374C69.3494 64.5956 68.9702 64.8665 68.5467 65.0684L67.2712 65.684L66.626 65.9893L65.9464 66.2405L64.5675 66.7329C64.0996 66.8905 63.6072 66.989 63.1246 67.122C62.6393 67.2646 62.1459 67.3781 61.6471 67.4618C60.6226 67.6556 59.586 67.779 58.5446 67.8311C58.0176 67.8311 57.4808 67.9001 56.944 67.8952L55.3189 67.8164C55.048 67.8164 54.7722 67.8164 54.5014 67.7622L53.6839 67.6391C53.1372 67.5504 52.5807 67.4864 52.0292 67.3731C50.9176 67.1274 49.8236 66.8082 48.7542 66.4178L47.9417 66.1223L47.4837 65.9795L47.0897 65.7874L45.5138 64.9945C44.9967 64.7138 44.4993 64.3888 43.9822 64.0834C43.731 63.9258 43.4897 63.788 43.2238 63.591L42.4999 63.0493C41.519 62.3244 40.5878 61.5346 39.7125 60.6854L38.4665 59.3114L38.1513 58.9667L37.8657 58.5924L37.3043 57.8438L36.7478 57.115L36.2553 56.3073L35.7628 55.4947L35.5117 55.086L35.3048 54.6575L34.4676 52.929L33.8028 51.1068C32.9939 48.6028 32.5656 45.9915 32.5322 43.3602C32.5656 40.729 32.9939 38.1177 33.8028 35.6137C34.0244 35.003 34.251 34.3973 34.4726 33.7964C34.6942 33.1956 35.0291 32.6391 35.3048 32.0629C35.3738 31.9201 35.4427 31.7773 35.5166 31.6345L35.7628 31.2257L36.2553 30.4132L36.7478 29.6055L37.3141 28.852L37.8755 28.0986L38.1562 27.7292L38.4714 27.3795C38.89 26.9215 39.3037 26.4635 39.7223 26.0105C40.5956 25.1529 41.527 24.3565 42.5097 23.6269L43.2336 23.0852C43.4749 22.903 43.7261 22.7651 43.992 22.5927C44.5091 22.2874 45.0065 21.9624 45.5236 21.6817L47.1094 20.9183L47.5034 20.7263L47.9121 20.5736L48.7247 20.2781C49.794 19.8877 50.8881 19.5685 51.9996 19.3227C52.5512 19.2094 53.1077 19.1454 53.6543 19.0568L54.4718 18.9337C54.7427 18.8992 55.0185 18.8992 55.2893 18.8795L56.9145 18.8007C57.4513 18.8007 57.9831 18.845 58.515 18.8647C59.5548 18.9171 60.5897 19.0405 61.6127 19.2341C62.1115 19.3174 62.6049 19.4309 63.0901 19.5739C63.5826 19.7068 64.075 19.8053 64.533 19.9629L65.9119 20.4554L66.5916 20.7066L67.2367 21.0119L68.5171 21.657C68.9406 21.8491 69.3149 22.1495 69.7138 22.3514C70.1127 22.5533 70.4919 22.8439 70.8613 23.0655L71.9201 23.8584C74.4174 25.761 76.5229 28.129 78.1203 30.8318C79.3412 32.8603 80.243 35.0644 80.7944 37.3669C80.921 37.8077 81.0245 38.2548 81.1047 38.7064C81.1687 39.1348 81.2229 39.5337 81.282 39.9031C81.3411 40.2724 81.3952 40.6122 81.4199 40.9274C81.4445 41.2426 81.4494 41.5282 81.4593 41.7843C81.4593 42.2768 81.4937 42.6757 81.5036 42.9466C81.5134 43.2174 81.5134 43.3602 81.5134 43.3602Z" fill="#263238"/><path d="M67.5829 45.2288C68.5395 39.3355 64.5376 33.7825 58.6443 32.8259C52.751 31.8693 47.198 35.8713 46.2414 41.7646C45.2848 47.6579 49.2867 53.2108 55.18 54.1674C61.0733 55.1241 66.6263 51.1221 67.5829 45.2288Z" fill="#263238"/><path d="M57.7137 41.1396V40.1738C57.7043 40.0995 57.7114 40.0241 57.7344 39.9528C57.7574 39.8816 57.7957 39.8162 57.8467 39.7614C57.8977 39.7066 57.9601 39.6636 58.0296 39.6355C58.099 39.6075 58.1737 39.595 58.2485 39.5989H59.6057V37.5178H57.7367C57.3956 37.4901 57.0526 37.5368 56.7313 37.6546C56.4101 37.7724 56.1182 37.9586 55.876 38.2002C55.6337 38.4418 55.4469 38.7332 55.3283 39.0541C55.2097 39.375 55.1622 39.7178 55.1892 40.0588V41.1511H53.9873V43.5484H55.1949V49.6021H57.6217V43.5484H59.4389L59.6632 41.1224L57.7137 41.1396Z" fill="white"/><path d="M57.0877 28.2168C56.9609 26.6722 56.9182 25.1219 56.9597 23.5728C56.9182 22.0252 56.961 20.4766 57.0877 18.9337C57.2145 20.4766 57.2573 22.0252 57.2158 23.5728C57.2573 25.1219 57.2146 26.6722 57.0877 28.2168Z" fill="#263238"/><path d="M43.3715 43.3603C43.3715 43.4293 41.0224 43.4884 38.1267 43.4884C35.2309 43.4884 32.8818 43.4293 32.8818 43.3603C34.6267 43.2273 36.3773 43.1829 38.1267 43.2274C39.8761 43.1829 41.6266 43.2273 43.3715 43.3603Z" fill="#263238"/><path d="M81.4051 43.3602C79.7668 43.4866 78.1231 43.5293 76.4804 43.4883C74.8377 43.5292 73.194 43.4865 71.5557 43.3602C73.1937 43.2278 74.8376 43.1834 76.4804 43.2273C78.1231 43.1833 79.7671 43.2277 81.4051 43.3602Z" fill="#263238"/><path d="M57.0877 67.7819C56.9609 66.1584 56.9182 64.5294 56.9597 62.9015C56.9182 61.2736 56.9609 59.6446 57.0877 58.0211C57.2145 59.6446 57.2572 61.2736 57.2157 62.9015C57.2572 64.5294 57.2145 66.1584 57.0877 67.7819Z" fill="#263238"/><path d="M186.344 51.4223C186.339 51.36 186.339 51.2974 186.344 51.2351L186.32 50.6885C186.285 50.196 186.32 49.4868 186.211 48.5511C186.004 45.8162 185.554 43.1052 184.867 40.45C184.373 38.5298 183.753 36.6445 183.01 34.8063C182.136 32.6153 181.085 30.4989 179.868 28.478C176.901 23.5447 173.024 19.2197 168.443 15.7329C162.881 11.5074 156.409 8.64042 149.542 7.36085C143.725 6.29296 137.756 6.36488 131.966 7.57261C129.933 8.01545 127.932 8.58788 125.972 9.28641C117.638 12.33 110.391 17.77 105.141 24.9224C103.772 26.7845 102.55 28.7505 101.487 30.8025C100.935 31.8317 100.467 32.9004 99.9846 33.974C99.502 35.0476 99.1031 36.1556 98.7485 37.2834C97.9915 39.5445 97.4199 41.8635 97.0397 44.2174C96.2583 48.9938 96.2583 53.8655 97.0397 58.6419C97.4182 60.9925 97.9881 63.3082 98.7436 65.566C99.1031 66.6987 99.5463 67.7871 99.9797 68.8804C100.413 69.9736 100.93 71.0226 101.487 72.0519C102.547 74.1142 103.767 76.0901 105.136 77.9615C110.387 85.115 117.636 90.5553 125.972 93.5975C127.932 94.3011 129.935 94.8737 131.971 95.3113C137.759 96.5194 143.726 96.5913 149.542 95.5231C156.409 94.2435 162.881 91.3765 168.443 87.151C173.024 83.6644 176.901 79.3394 179.868 74.4059C181.084 72.3845 182.135 70.2682 183.01 68.0776C183.754 66.2314 184.374 64.3378 184.867 62.4093C185.542 59.7481 185.979 57.0321 186.172 54.2934C186.261 53.3527 186.246 52.6337 186.28 52.1511L186.305 51.6045C186.299 51.5439 186.299 51.4829 186.305 51.4223C186.309 51.4829 186.309 51.5438 186.305 51.6045V52.1511C186.305 52.6436 186.305 53.3577 186.246 54.2983C186.096 57.0504 185.689 59.7824 185.03 62.4585C184.55 64.3931 183.941 66.2934 183.207 68.1466C182.343 70.3544 181.299 72.4874 180.085 74.5241C177.123 79.5106 173.237 83.8864 168.635 87.417C163.037 91.6965 156.515 94.6059 149.591 95.9121C145.755 96.6422 141.84 96.8706 137.944 96.5917C135.904 96.4477 133.875 96.1664 131.872 95.7496C129.818 95.3081 127.795 94.734 125.815 94.0309C117.382 90.9664 110.045 85.4724 104.732 78.2422C103.346 76.359 102.109 74.3699 101.034 72.2932C100.477 71.2541 99.9994 70.1706 99.5119 69.0872C99.0243 68.0038 98.6205 66.8809 98.261 65.7384C97.4945 63.4519 96.9164 61.1064 96.5324 58.7256C95.7411 53.8938 95.7411 48.9655 96.5324 44.1337C96.9147 41.7546 97.4912 39.4108 98.2561 37.1258C98.6205 35.9833 99.0736 34.8801 99.5119 33.777C99.9502 32.6739 100.472 31.6101 101.034 30.571C102.107 28.4949 103.344 26.5073 104.732 24.6269C110.043 17.3973 117.378 11.9045 125.81 8.84319C127.79 8.13843 129.813 7.56267 131.867 7.11954C137.71 5.91538 143.731 5.85517 149.596 6.94225C156.518 8.24971 163.039 11.159 168.635 15.4374C173.238 18.9679 177.126 23.3437 180.09 28.3303C181.303 30.3759 182.347 32.5171 183.212 34.7324C183.946 36.5856 184.555 38.4858 185.034 40.4204C185.694 43.0966 186.101 45.8286 186.251 48.5807C186.325 49.5262 186.29 50.2452 186.31 50.7279V51.2745C186.324 51.3231 186.336 51.3724 186.344 51.4223Z" fill="#263238"/><path d="M181.985 100.061C182.36 97.7487 180.79 95.5702 178.478 95.1949C176.166 94.8196 173.987 96.3897 173.612 98.7016C173.237 101.014 174.807 103.192 177.119 103.567C179.431 103.943 181.609 102.373 181.985 100.061Z" fill="#4372EA"/><path opacity="0.5" d="M181.985 100.061C182.36 97.7487 180.79 95.5702 178.478 95.1949C176.166 94.8196 173.987 96.3897 173.612 98.7016C173.237 101.014 174.807 103.192 177.119 103.567C179.431 103.943 181.609 102.373 181.985 100.061Z" fill="black"/><path d="M175.843 100.161L177.78 101.68L179.712 100.161C179.836 100.064 179.938 99.9434 180.015 99.8066C180.092 99.6697 180.141 99.5191 180.16 99.3634C180.178 99.2076 180.166 99.0497 180.123 98.8987C180.081 98.7477 180.009 98.6065 179.912 98.4832C179.815 98.36 179.695 98.257 179.558 98.1803C179.421 98.1035 179.27 98.0545 179.114 98.036C178.959 98.0174 178.801 98.0297 178.65 98.0722C178.499 98.1147 178.358 98.1865 178.234 98.2836L177.775 98.6553L177.316 98.2836C177.193 98.1865 177.052 98.1147 176.901 98.0722C176.75 98.0297 176.592 98.0174 176.436 98.036C176.28 98.0545 176.13 98.1035 175.993 98.1803C175.856 98.257 175.736 98.36 175.639 98.4832C175.542 98.6065 175.47 98.7477 175.427 98.8987C175.385 99.0497 175.373 99.2076 175.391 99.3634C175.41 99.5191 175.459 99.6697 175.536 99.8066C175.612 99.9434 175.715 100.064 175.838 100.161H175.843Z" fill="white"/><path fill-rule="evenodd" clip-rule="evenodd" d="M141.099 39.8133C134.739 39.8133 129.583 44.9692 129.583 51.3295C129.583 57.6897 134.739 62.8457 141.099 62.8457C147.459 62.8457 152.615 57.6897 152.615 51.3295C152.615 44.9692 147.459 39.8133 141.099 39.8133ZM127.279 51.3295C127.279 43.6972 133.466 37.51 141.099 37.51C148.731 37.51 154.918 43.6972 154.918 51.3295C154.918 58.9618 148.731 65.149 141.099 65.149C133.466 65.149 127.279 58.9618 127.279 51.3295Z" fill="#283252"/><path fill-rule="evenodd" clip-rule="evenodd" d="M153.767 52.4811H128.431V50.1779H153.767V52.4811Z" fill="#283252"/><path fill-rule="evenodd" clip-rule="evenodd" d="M141.655 39.6698C141.655 39.6703 141.654 39.6707 141.099 38.6616C140.544 37.6526 140.543 37.653 140.542 37.6535L140.54 37.6545L140.536 37.6567L140.527 37.6619L140.504 37.6754C140.486 37.6858 140.464 37.699 140.438 37.7153C140.386 37.7477 140.318 37.7922 140.236 37.85C140.072 37.9657 139.854 38.1345 139.601 38.3669C139.093 38.8326 138.446 39.5499 137.811 40.5983C136.535 42.7026 135.341 46.082 135.341 51.3295C135.341 56.577 136.535 59.9564 137.811 62.0607C138.446 63.1091 139.093 63.8264 139.601 64.2921C139.854 64.5245 140.072 64.6934 140.236 64.809C140.318 64.8668 140.386 64.9113 140.438 64.9437C140.464 64.96 140.486 64.9732 140.504 64.9836L140.527 64.9971L140.536 65.0023L140.54 65.0045L140.542 65.0055C140.543 65.006 140.544 65.0064 141.099 63.9974C141.654 62.9883 141.655 62.9887 141.655 62.9892L141.657 62.99L141.66 62.9915L141.664 62.9939L141.667 62.9959C141.667 62.9957 141.663 62.9935 141.656 62.9891C141.641 62.9795 141.61 62.9597 141.566 62.9284C141.477 62.8659 141.336 62.7577 141.157 62.5942C140.801 62.2681 140.297 61.7186 139.78 60.8669C138.753 59.1708 137.644 56.2163 137.644 51.3295C137.644 46.4427 138.753 43.4882 139.78 41.7921C140.297 40.9404 140.801 40.3909 141.157 40.0648C141.336 39.9014 141.477 39.7931 141.566 39.7306C141.61 39.6993 141.641 39.6795 141.656 39.6699C141.664 39.6651 141.668 39.6629 141.667 39.663L141.664 39.6651L141.66 39.6675L141.657 39.669L141.655 39.6698ZM141.667 62.996L141.667 62.9959L141.667 62.996Z" fill="#283252"/><path fill-rule="evenodd" clip-rule="evenodd" d="M140.542 39.6698C140.543 39.6703 140.544 39.6707 141.099 38.6616C141.654 37.6526 141.655 37.653 141.656 37.6535L141.657 37.6545L141.661 37.6567L141.671 37.6619L141.694 37.6754C141.712 37.6858 141.734 37.699 141.76 37.7153C141.812 37.7477 141.88 37.7922 141.962 37.85C142.125 37.9657 142.343 38.1345 142.597 38.3669C143.105 38.8326 143.752 39.5499 144.387 40.5983C145.662 42.7026 146.857 46.082 146.857 51.3295C146.857 56.577 145.662 59.9564 144.387 62.0607C143.752 63.1091 143.105 63.8264 142.597 64.2921C142.343 64.5245 142.125 64.6934 141.962 64.809C141.88 64.8668 141.812 64.9113 141.76 64.9437C141.734 64.96 141.712 64.9732 141.694 64.9836L141.671 64.9971L141.661 65.0023L141.657 65.0045L141.656 65.0055C141.655 65.006 141.654 65.0064 141.099 63.9974C140.544 62.9883 140.543 62.9887 140.542 62.9892L140.541 62.99L140.538 62.9915L140.534 62.9939L140.53 62.9959C140.531 62.9957 140.535 62.9935 140.541 62.9891C140.557 62.9795 140.588 62.9597 140.632 62.9284C140.72 62.8659 140.862 62.7577 141.041 62.5942C141.396 62.2681 141.901 61.7186 142.417 60.8669C143.445 59.1708 144.554 56.2163 144.554 51.3295C144.554 46.4427 143.445 43.4882 142.417 41.7921C141.901 40.9404 141.396 40.3909 141.041 40.0648C140.862 39.9014 140.72 39.7931 140.632 39.7306C140.588 39.6993 140.557 39.6795 140.541 39.6699C140.534 39.6651 140.53 39.6629 140.53 39.663L140.534 39.6651L140.538 39.6675L140.541 39.669L140.542 39.6698ZM140.53 62.996L140.53 62.9959L140.53 62.996Z" fill="#283252"/><path d="M141.28 23.4052C141.137 23.4052 141.019 19.5689 141.019 14.8411C141.019 10.1134 141.137 6.27707 141.28 6.27707C141.423 6.27707 141.536 10.1134 141.536 14.8411C141.536 19.5689 141.418 23.4052 141.28 23.4052Z" fill="#263238"/><path d="M115.978 51.3432C115.978 51.481 111.644 51.5992 106.301 51.5992C100.957 51.5992 96.6235 51.481 96.6235 51.3432C96.6235 51.2053 100.957 51.0871 106.301 51.0871C111.644 51.0871 115.978 51.2053 115.978 51.3432Z" fill="#263238"/><path d="M186.15 51.3432C186.15 51.481 182.067 51.5992 177.029 51.5992C171.991 51.5992 167.909 51.481 167.909 51.3432C167.909 51.2053 171.991 51.0871 177.029 51.0871C182.067 51.0871 186.15 51.2053 186.15 51.3432Z" fill="#263238"/><path d="M141.28 96.4043C141.137 96.4043 141.019 92.371 141.019 87.402C141.019 82.4329 141.137 78.3947 141.28 78.3947C141.423 78.3947 141.536 82.428 141.536 87.402C141.536 92.3759 141.418 96.4043 141.28 96.4043Z" fill="#263238"/><path d="M113.476 121.727C113.47 121.67 113.47 121.612 113.476 121.555C113.476 121.437 113.476 121.269 113.451 121.062C113.417 120.614 113.451 119.944 113.348 119.068C113.169 116.518 112.76 113.99 112.126 111.513C111.67 109.725 111.092 107.969 110.398 106.259C109.586 104.22 108.607 102.252 107.473 100.374C104.711 95.7822 101.103 91.7564 96.8401 88.5101C91.6609 84.5845 85.6378 81.9203 79.2491 80.729C73.8378 79.7325 68.2841 79.8011 62.899 80.9309C61.0066 81.3396 59.1427 81.8709 57.3193 82.5216C49.5643 85.3547 42.8203 90.4179 37.9356 97.0741C36.6624 98.8068 35.5262 100.636 34.5376 102.545C34.0451 103.501 33.5871 104.515 33.139 105.5C32.6908 106.485 32.3215 107.529 31.9866 108.578C31.2855 110.683 30.7552 112.84 30.4008 115.03C29.672 119.475 29.672 124.009 30.4008 128.454C30.7505 130.645 31.2809 132.803 31.9866 134.906C32.3165 135.955 32.7351 136.969 33.134 137.989C33.5329 139.008 34.0205 139.983 34.5327 140.943C35.523 142.853 36.6608 144.682 37.9356 146.415C42.8173 153.075 49.5621 158.141 57.3193 160.972C59.1427 161.623 61.0066 162.154 62.899 162.563C68.2858 163.692 73.841 163.761 79.254 162.765C85.6429 161.576 91.6653 158.91 96.8401 154.979C101.104 151.733 104.714 147.707 107.478 143.115C108.609 141.236 109.586 139.268 110.398 137.23C111.083 135.517 111.653 133.76 112.102 131.971C112.735 129.493 113.144 126.963 113.323 124.411C113.407 123.54 113.392 122.87 113.427 122.441C113.427 122.22 113.427 122.052 113.451 121.949C113.445 121.892 113.445 121.834 113.451 121.776C113.459 121.834 113.459 121.892 113.451 121.949V122.441C113.451 122.889 113.451 123.564 113.402 124.441C113.263 127.002 112.886 129.544 112.274 132.035C111.287 135.982 109.738 139.766 107.675 143.273C104.914 147.915 101.296 151.99 97.0125 155.279C91.8007 159.263 85.7294 161.974 79.2835 163.193C73.8158 164.211 68.2022 164.154 62.7562 163.026C60.8418 162.617 58.9565 162.082 57.1125 161.425C49.2587 158.573 42.4262 153.458 37.4776 146.725C36.1851 144.972 35.0324 143.119 34.0303 141.185C33.5083 140.2 33.0454 139.215 32.612 138.2C32.1786 137.186 31.7847 136.142 31.4498 135.083C30.7441 132.944 30.2153 130.75 29.869 128.523C29.5144 126.277 29.33 124.007 29.3174 121.732C29.3324 119.456 29.5168 117.185 29.869 114.936C30.2263 112.721 30.7649 110.538 31.4793 108.411C31.8142 107.347 32.2377 106.318 32.6465 105.289C33.0552 104.259 33.5428 103.274 34.0648 102.304C35.0669 100.371 36.2196 98.5206 37.5121 96.7688C42.4585 90.0373 49.2897 84.9233 57.142 82.0735C58.9846 81.4172 60.8682 80.8825 62.7808 80.4729C68.2269 79.345 73.8404 79.2881 79.3082 80.3055C85.7548 81.5225 91.8267 84.233 97.0371 88.2195C101.323 91.5049 104.941 95.5783 107.699 100.221C108.83 102.119 109.802 104.107 110.605 106.165C112.244 110.28 113.199 114.635 113.432 119.058C113.496 119.935 113.466 120.604 113.481 121.057V121.55C113.487 121.609 113.485 121.669 113.476 121.727Z" fill="#263238"/><path d="M129.649 109.802C130.435 106.474 128.374 103.139 125.045 102.354C121.717 101.568 118.383 103.629 117.597 106.958C116.812 110.286 118.873 113.62 122.201 114.406C125.529 115.191 128.864 113.13 129.649 109.802Z" fill="#4372EA"/><path opacity="0.5" d="M129.649 109.802C130.435 106.474 128.374 103.139 125.045 102.354C121.717 101.568 118.383 103.629 117.597 106.958C116.812 110.286 118.873 113.62 122.201 114.406C125.529 115.191 128.864 113.13 129.649 109.802Z" fill="white"/><path d="M126.069 108.457L122.571 105.836C122.541 105.813 122.505 105.798 122.466 105.794C122.428 105.791 122.39 105.798 122.356 105.815C122.322 105.833 122.293 105.859 122.273 105.892C122.254 105.925 122.244 105.963 122.245 106.001V111.243C122.245 111.281 122.255 111.318 122.275 111.35C122.295 111.382 122.324 111.408 122.358 111.425C122.392 111.442 122.43 111.449 122.468 111.445C122.505 111.441 122.541 111.427 122.571 111.404L126.069 108.783C126.094 108.764 126.115 108.739 126.129 108.711C126.144 108.683 126.151 108.652 126.151 108.62C126.151 108.588 126.144 108.557 126.129 108.528C126.115 108.5 126.094 108.476 126.069 108.457Z" fill="white"/><g clip-path="url(#clip0_329_5604)"><path d="M67.0739 134.038C76.8494 134.038 82.1977 125.937 82.1977 118.914C82.1977 118.687 82.1926 118.454 82.1825 118.226C83.2229 117.474 84.1208 116.542 84.8339 115.474C83.8649 115.905 82.8361 116.187 81.7827 116.309C82.8919 115.644 83.7224 114.6 84.1203 113.369C83.0768 113.988 81.9357 114.424 80.7457 114.659C79.944 113.807 78.8839 113.243 77.7295 113.054C76.575 112.865 75.3904 113.062 74.3589 113.614C73.3273 114.165 72.5063 115.042 72.0226 116.107C71.539 117.172 71.4197 118.367 71.6833 119.506C69.5704 119.4 67.5033 118.852 65.6162 117.895C63.729 116.939 62.0638 115.597 60.7286 113.956C60.0499 115.126 59.8423 116.511 60.1478 117.828C60.4533 119.146 61.2491 120.298 62.3734 121.05C61.5293 121.023 60.7038 120.796 59.9649 120.387V120.453C59.9641 121.681 60.3886 122.871 61.1662 123.821C61.9438 124.772 63.0264 125.423 64.2302 125.666C63.4483 125.879 62.6277 125.911 61.8318 125.757C62.1715 126.813 62.8324 127.736 63.7222 128.398C64.6121 129.061 65.6865 129.429 66.7955 129.451C64.9127 130.93 62.5869 131.732 60.1926 131.728C59.768 131.728 59.3439 131.702 58.9224 131.65C61.3547 133.211 64.1841 134.04 67.0739 134.038Z" fill="#263238"/></g><path d="M26.5642 76.3081H25.336L22.6743 72.5483V70.0851C22.6743 70.0851 20.773 69.9665 20.9974 73.1947C21.2217 76.4229 20.9784 75.6005 20.9784 75.6005C20.9784 75.6005 16.9478 75.6005 16.6131 75.983C16.3698 76.2393 16.2595 80.2669 16.2329 82.4509C16.2068 82.9779 16.3565 83.4987 16.6582 83.9304C16.96 84.3621 17.3965 84.6801 17.8984 84.8337C18.0399 84.8714 18.1855 84.8906 18.3319 84.8911C19.3395 84.8911 24.4728 84.0688 24.4728 84.0688H26.5946L26.5642 76.3081Z" fill="#4372EA"/><path d="M30.05 75.7603L29.3316 83.904H27.3354V75.9226L30.05 75.7603Z" fill="#4372EA"/><path d="M71.5222 95.7199C71.3794 95.7199 71.2661 92.1544 71.2661 87.7517C71.2661 83.349 71.3794 79.7786 71.5222 79.7786C71.665 79.7786 71.7783 83.349 71.7783 87.7517C71.7783 92.1544 71.6601 95.7199 71.5222 95.7199Z" fill="#263238"/><path d="M47.9765 121.727C47.9765 121.87 43.9432 121.983 38.9692 121.983C33.9953 121.983 29.9619 121.87 29.9619 121.727C29.9619 121.584 33.9953 121.471 38.9692 121.471C43.9432 121.471 47.9765 121.584 47.9765 121.727Z" fill="#263238"/><path d="M113.289 121.727C113.289 121.87 109.487 121.983 104.798 121.983C100.11 121.983 96.3081 121.87 96.3081 121.727C96.3081 121.584 100.11 121.471 104.798 121.471C109.487 121.471 113.289 121.584 113.289 121.727Z" fill="#263238"/><path d="M71.5222 163.671C71.3794 163.671 71.2661 159.919 71.2661 155.299C71.2661 150.68 71.3794 146.927 71.5222 146.927C71.665 146.927 71.7783 150.68 71.7783 155.299C71.7783 159.919 71.6601 163.671 71.5222 163.671Z" fill="#263238"/><path d="M28.9724 163.927C28.9724 163.927 37.113 164.149 37.768 159.987C38.4229 155.826 38.812 150.724 38.812 150.724H40.5898C40.5898 150.724 40.0579 159.588 39.4276 161.558C38.7972 163.528 35.3548 165.257 33.7543 165.459C32.1538 165.661 27.7954 165.459 27.7954 165.459L28.9724 163.927Z" fill="#455A64"/><path d="M38.7974 149.325L58.4962 137.998C59.5076 138.056 60.4798 138.409 61.2923 139.014C62.1048 139.619 62.7216 140.449 63.0664 141.401C63.4082 142.239 63.5758 143.137 63.5588 144.041C63.5141 144.923 63.2011 145.771 62.6616 146.471C62.1221 147.17 61.3819 147.689 60.54 147.956L40.6195 154.6L38.7974 149.325Z" fill="#455A64"/><path d="M34.7729 145.883L53.0535 134.714C53.5606 134.409 54.1411 134.248 54.7328 134.248C55.3245 134.248 55.905 134.409 56.4121 134.714C57.3084 135.246 58.1949 136.255 58.5642 138.161C59.4261 142.638 57.5399 143.618 57.5399 143.618L36.7872 150.882L34.7729 145.883Z" fill="#455A64"/><path d="M41.0326 151.305C41.5251 152.758 41.3773 154.226 40.6534 154.585C39.9295 154.945 38.9297 154.058 38.4126 152.615C37.8956 151.172 38.0728 149.69 38.7968 149.33C39.5207 148.971 40.5204 149.852 41.0326 151.305Z" fill="#263238"/><path d="M37.3683 147.538C37.8854 148.991 37.7131 150.458 36.9891 150.818C36.2652 151.177 35.2655 150.291 34.7484 148.848C34.2313 147.405 34.4086 145.923 35.1276 145.563C35.8466 145.203 36.8562 146.085 37.3683 147.538Z" fill="#263238"/><path d="M60.3327 148.035C60.2884 148.035 60.5839 147.464 60.7661 146.494C61.0179 145.233 60.8967 143.926 60.4174 142.733C59.9381 141.54 59.1214 140.513 58.0674 139.776C57.2647 139.205 56.6688 139.008 56.6885 138.964C56.8338 138.978 56.9755 139.018 57.1071 139.082C57.4801 139.224 57.8368 139.405 58.1708 139.624C59.2895 140.345 60.157 141.395 60.6536 142.63C61.1502 143.865 61.2515 145.223 60.9434 146.518C60.8543 146.907 60.7239 147.285 60.5544 147.646C60.5034 147.787 60.4284 147.919 60.3327 148.035Z" fill="#263238"/><path d="M52.1338 135.566C52.4034 135.395 52.7222 135.319 53.0399 135.349C53.8114 135.387 54.5428 135.704 55.0985 136.24C55.6362 136.773 56.0675 137.403 56.369 138.097C56.5198 138.368 56.6278 138.66 56.6891 138.964C56.4937 138.722 56.3283 138.457 56.1967 138.176C55.8568 137.534 55.4255 136.945 54.9162 136.428C54.3973 135.932 53.7323 135.618 53.0202 135.531C52.7244 135.527 52.4284 135.538 52.1338 135.566Z" fill="#263238"/><path d="M54.6546 141.214C53.9127 141.777 53.1215 142.272 52.2907 142.692C51.4987 143.186 50.6649 143.609 49.7988 143.958C50.5393 143.393 51.3307 142.898 52.1627 142.48C52.9515 141.98 53.7858 141.557 54.6546 141.214Z" fill="#FAFAFA"/><path d="M56.4921 140.141C56.5266 140.2 56.4034 140.343 56.2163 140.456C56.0292 140.569 55.842 140.614 55.8075 140.55C55.7731 140.486 55.8962 140.348 56.0833 140.234C56.2705 140.121 56.4576 140.077 56.4921 140.141Z" fill="#FAFAFA"/><path d="M50.1049 137.452C49.2616 138.007 48.3887 138.515 47.4899 138.974C46.6329 139.515 45.7467 140.008 44.8354 140.451C45.6095 139.794 46.4573 139.229 47.3618 138.767C48.2238 138.227 49.144 137.786 50.1049 137.452Z" fill="#FAFAFA"/><path d="M51.8771 136.166C51.9215 136.221 51.7589 136.413 51.5226 136.585C51.2862 136.757 51.0547 136.861 51.0301 136.802C51.0055 136.743 51.1483 136.556 51.3896 136.383C51.6309 136.211 51.8377 136.107 51.8771 136.166Z" fill="#FAFAFA"/><path d="M58.5111 137.984C58.4559 138.038 58.3948 138.086 58.3289 138.127L57.7822 138.491C57.2897 138.806 56.6052 139.245 55.7335 139.781C53.9902 140.85 51.5623 142.288 48.8389 143.834C46.1156 145.381 43.6828 146.745 41.8902 147.73L39.7578 148.877L39.1717 149.178C39.1048 149.215 39.0338 149.245 38.96 149.266C38.96 149.266 39.0191 149.212 39.1471 149.128L39.7085 148.789L41.8015 147.572L48.7306 143.608L55.6252 139.624L57.7133 138.402L58.2895 138.077C58.4323 138.008 58.5061 137.974 58.5111 137.984Z" fill="#263238"/><path d="M17.5463 139.358L16.0688 168.867L28.7057 170.058L29.405 162.893C29.405 162.893 33.8372 163.996 35.2112 159.874C36.078 157.239 36.8462 136.61 36.8462 136.61L17.5463 139.358Z" fill="#FFBE9D"/><path d="M39.6045 139.658C38.526 142.224 34.4582 144.425 34.4582 144.425L33.7835 150.956C33.1801 150.914 32.5746 150.914 31.9712 150.956C32.2963 147.887 28.3466 148.493 27.9477 150.576C27.5587 152.586 29.8487 153.93 29.8487 153.93C28.2678 156.353 27.6276 157.633 25.3869 159.904C22.959 162.366 21.6539 162.563 19.1473 162.489L16.3894 162.361C16.3894 162.361 15.4045 160.002 14.6855 154.432C14.3407 151.753 12.2231 148.242 12.8436 143.889C14.5377 131.508 28.2334 133.704 28.2334 133.704C33.36 129.71 42.126 133.625 39.6045 139.658Z" fill="#263238"/><path d="M36.8666 192.545L39.2305 195.559L47.7256 183.07C47.4153 182.69 47.1002 182.37 43.4312 177.652C39.6343 172.728 35.9851 167.729 29.8587 166.71C25.5742 165.986 20.8908 165.459 17.3204 165.459C14.336 165.488 11.2482 166.744 8.53472 168.704C5.93403 170.626 3.87473 173.188 2.55701 176.141C1.23929 179.094 0.707971 182.337 1.01469 185.556L3.65433 208.166L1.36927 229.48H37.9057L36.8666 192.545Z" fill="#4372EA"/><path d="M42.4076 176.318C42.367 176.325 42.3252 176.325 42.2845 176.318H41.925H40.5412C39.9404 176.318 39.2017 176.352 38.3546 176.436C37.3957 176.521 36.4474 176.699 35.5229 176.968C34.9889 177.129 34.4737 177.347 33.9864 177.618C33.4681 177.924 32.9942 178.301 32.5779 178.736C31.6993 179.745 30.8773 180.802 30.1156 181.902C29.6678 182.486 29.1612 183.023 28.6037 183.503C28.0136 184.038 27.3122 184.434 26.5501 184.665C25.7628 184.863 24.939 184.863 24.1517 184.665C23.3583 184.478 22.5771 184.243 21.8125 183.961C21.059 183.687 20.2753 183.505 19.4782 183.419C18.708 183.363 17.9347 183.468 17.2079 183.729C15.8321 184.272 14.5744 185.077 13.5045 186.098C12.4506 187.049 11.5346 188.024 10.5201 188.831C9.6296 189.621 8.58965 190.224 7.46188 190.604C6.50532 190.848 5.50301 190.848 4.54645 190.604C3.82558 190.435 3.14579 190.124 2.54701 189.688C2.16921 189.414 1.83686 189.081 1.56207 188.703L1.37986 188.393C1.35664 188.36 1.33839 188.323 1.32568 188.285C1.66729 188.796 2.10158 189.239 2.60611 189.59C3.19895 190.005 3.86862 190.298 4.57599 190.452C5.51071 190.669 6.48431 190.655 7.41263 190.412C8.50405 190.023 9.50808 189.422 10.3675 188.644C11.3524 187.842 12.2684 186.866 13.3223 185.906C14.4104 184.859 15.6938 184.035 17.0995 183.483C17.8594 183.21 18.6677 183.098 19.4733 183.153C20.2955 183.243 21.103 183.436 21.8765 183.729C22.635 184.004 23.4076 184.237 24.1911 184.429C24.9399 184.614 25.7225 184.614 26.4713 184.429C27.185 184.216 27.845 183.854 28.4067 183.365C28.9509 182.896 29.4459 182.373 29.8841 181.804C30.6626 180.699 31.5045 179.64 32.4056 178.632C32.8432 178.187 33.3404 177.804 33.883 177.495C34.3823 177.22 34.9109 177.002 35.4589 176.845C36.397 176.585 37.3589 176.42 38.33 176.352C39.1869 176.283 39.9256 176.273 40.5313 176.273C41.1371 176.273 41.6 176.273 41.9152 176.308H42.2747C42.3192 176.303 42.3642 176.307 42.4076 176.318Z" fill="#FAFAFA"/><path d="M46.1255 181.075C45.3855 181.086 44.6489 181.179 43.9291 181.351C43.0884 181.562 42.2765 181.875 41.511 182.282C40.491 182.807 39.5589 183.488 38.7483 184.301C37.7732 185.292 37.0312 186.488 36.5765 187.802C36.2958 188.497 36.0249 189.235 35.6753 189.964C35.3214 190.728 34.8382 191.424 34.2471 192.023C33.6218 192.672 32.7926 193.088 31.898 193.2C30.9812 193.265 30.0598 193.192 29.1648 192.983C28.2661 192.764 27.3358 192.705 26.4168 192.811C25.4864 192.99 24.66 193.519 24.1071 194.288C23.5395 195.052 23.1172 195.913 22.8611 196.829C22.5903 197.73 22.4031 198.651 22.152 199.548C21.9266 200.441 21.5592 201.292 21.0636 202.069C20.5655 202.803 19.9239 203.428 19.1775 203.906C17.7922 204.799 16.1265 205.149 14.499 204.891C12.9723 204.625 11.7362 203.872 10.6134 203.276C9.63175 202.681 8.56342 202.242 7.44679 201.976C6.60166 201.789 5.72615 201.789 4.88102 201.976C4.34905 202.097 3.85934 202.359 3.4627 202.734C3.19184 202.99 3.10319 203.177 3.0835 203.162C3.10247 203.117 3.1273 203.074 3.15737 203.034C3.23544 202.913 3.32446 202.799 3.4233 202.695C3.82003 202.305 4.31549 202.031 4.85639 201.902C5.71569 201.693 6.61049 201.678 7.47634 201.857C8.61074 202.112 9.69777 202.544 10.6971 203.138C11.8298 203.729 13.061 204.463 14.5335 204.704C16.1085 204.938 17.7147 204.587 19.0494 203.719C19.767 203.254 20.3834 202.65 20.8617 201.941C21.341 201.182 21.6937 200.351 21.9058 199.479C22.1569 198.597 22.3441 197.676 22.6198 196.755C22.8822 195.807 23.318 194.915 23.9052 194.126C24.4953 193.308 25.3766 192.747 26.3675 192.56C27.3159 192.45 28.2761 192.508 29.2042 192.732C30.0743 192.94 30.9707 193.016 31.8635 192.958C32.706 192.853 33.4874 192.464 34.0796 191.855C35.2862 190.678 35.8033 189.107 36.3746 187.723C36.6421 187.038 36.9718 186.379 37.3595 185.754C37.7112 185.175 38.1348 184.644 38.6202 184.173C40.0824 182.736 41.9097 181.726 43.9045 181.252C44.2541 181.164 44.5742 181.134 44.85 181.09C45.1258 181.046 45.3425 181.05 45.5493 181.05H45.9778L46.1255 181.075Z" fill="#FAFAFA"/><path d="M2.271 221.147C2.27414 221.105 2.28412 221.064 2.30055 221.024C2.33009 220.926 2.36457 220.808 2.41381 220.665C2.58078 220.208 2.80235 219.773 3.07372 219.37C3.50277 218.729 4.05524 218.179 4.69888 217.754C5.0994 217.483 5.53303 217.265 5.98916 217.104C6.49556 216.914 7.0259 216.794 7.56506 216.75C8.79786 216.681 10.0343 216.772 11.2438 217.021C12.544 217.252 13.9179 217.592 15.3757 217.833C16.8889 218.12 18.4424 218.12 19.9556 217.833C20.7493 217.675 21.5136 217.394 22.221 217.001C22.9446 216.596 23.5609 216.023 24.0185 215.331C24.4599 214.627 24.7562 213.842 24.8902 213.022C25.028 212.218 25.1201 211.408 25.166 210.594C25.2842 208.998 25.427 207.363 26.2297 206.048C26.617 205.416 27.1361 204.875 27.7515 204.463C28.3288 204.085 28.9425 203.767 29.5835 203.512C30.8146 203.02 32.0015 202.67 32.9963 202.173C33.9004 201.741 34.713 201.139 35.3897 200.4C35.8917 199.834 36.2766 199.175 36.5224 198.459C36.711 197.841 36.8267 197.203 36.8671 196.558C36.8727 196.601 36.8727 196.644 36.8671 196.686V197.061C36.8407 197.545 36.7547 198.025 36.611 198.489C36.3756 199.225 35.9955 199.906 35.4931 200.493C34.8139 201.26 33.9906 201.886 33.0702 202.335C32.0852 202.852 30.8737 203.202 29.6623 203.709C29.0349 203.959 28.4356 204.274 27.8746 204.65C27.287 205.046 26.7929 205.565 26.4267 206.171C25.6683 207.427 25.5255 209.013 25.4122 210.604C25.3677 211.429 25.2756 212.251 25.1364 213.066C24.9965 213.919 24.6885 214.736 24.2303 215.469C23.7581 216.199 23.1202 216.806 22.3688 217.242C21.6377 217.646 20.8487 217.935 20.0295 218.099C18.4833 218.381 16.8978 218.37 15.356 218.065C13.8785 217.813 12.5193 217.469 11.2241 217.232C10.0355 216.977 8.81909 216.874 7.60446 216.927C7.07842 216.969 6.56018 217.08 6.06303 217.257C4.89147 217.657 3.87628 218.417 3.16237 219.429C2.79757 219.964 2.4983 220.541 2.271 221.147Z" fill="#FAFAFA"/><path d="M47.3416 151.896L45.4506 152.655C45.4506 152.655 45.7608 154.398 46.0464 158.264C46.1155 159.165 45.9839 160.071 45.6612 160.916C45.3385 161.76 44.8326 162.523 44.18 163.149C37.7778 169.192 21.1372 166.7 18.079 166.05C15.331 165.464 16.3356 163.789 16.3356 163.789L16.3701 163.115C14.0752 163.198 14.2476 165.863 14.2476 165.863C14.8565 166.522 15.6124 167.028 16.4538 167.34C18.4866 168.191 20.6542 168.675 22.856 168.768C26.2097 168.936 32.4198 169.123 37.4282 168.561C44.4213 167.773 46.8886 163.454 47.6568 161.499C47.8726 160.956 48.0022 160.383 48.041 159.8C48.3463 154.974 47.3416 151.896 47.3416 151.896Z" fill="#263238"/><path d="M57.0818 184.941L51.1721 158.52L53.4917 150.3L53.3488 150.345C53.3488 149.724 53.3488 146.957 53.2405 146.73C53.209 146.603 53.1359 146.49 53.0328 146.41C52.9297 146.329 52.8026 146.285 52.6717 146.285C52.5408 146.285 52.4137 146.329 52.3106 146.41C52.2075 146.49 52.1344 146.603 52.1029 146.73C52.033 146.968 52.0096 147.217 52.0339 147.464C52.0783 148.577 52.0339 149.665 52.0635 150.768L51.9995 150.793C51.9354 150.01 51.7779 148.05 51.7729 146.715C51.792 146.424 51.7552 146.131 51.6646 145.853C51.6242 145.715 51.5409 145.593 51.4268 145.504C51.3127 145.416 51.1736 145.366 51.0293 145.361C50.8971 145.387 50.7746 145.449 50.6755 145.54C50.5764 145.631 50.5045 145.748 50.4679 145.878C50.3997 146.162 50.3897 146.457 50.4383 146.745C50.4925 148.03 50.6205 149.626 50.5861 150.96C50.2728 149.477 50.041 147.978 49.8917 146.469C49.8816 146.172 49.8199 145.878 49.7095 145.602C49.6606 145.472 49.5733 145.359 49.459 145.279C49.3447 145.199 49.2088 145.155 49.0693 145.154C48.9345 145.186 48.8117 145.255 48.7156 145.355C48.6195 145.455 48.5542 145.58 48.5275 145.716C48.465 146 48.4517 146.293 48.4881 146.582C48.6129 148.345 48.7377 150.112 48.8624 151.881H48.8132C48.5729 150.307 48.2224 148.752 47.7642 147.227C47.7217 147.04 47.6431 146.863 47.5328 146.705C47.4767 146.63 47.4017 146.57 47.3153 146.532C47.2289 146.494 47.1341 146.479 47.0403 146.489C46.9476 146.516 46.8642 146.568 46.7991 146.639C46.7339 146.71 46.6896 146.798 46.6709 146.893C46.6365 147.081 46.6365 147.275 46.6709 147.464C46.8548 149.128 46.9828 150.798 47.0551 152.472L45.9864 155.26C45.7796 154.974 45.2034 154.107 45.2034 154.107L45.4496 153.167C45.6614 151.586 45.3462 150.951 45.2034 150.739C45.0605 150.527 43.7604 153.974 43.5191 154.358C43.2778 154.743 44.834 158.229 44.7749 158.441L45.4594 166.321L48.5768 185.414L47.3013 183.788L40.9287 193.195L43.4896 195.578C46.1785 198.356 50.2463 199.026 53.8315 196.588C58.2046 193.53 57.9239 189.058 57.0818 184.941Z" fill="#FFBE9D"/><path d="M32.7451 216.676C32.6727 216.268 32.643 215.854 32.6565 215.44C32.6565 214.617 32.6122 213.47 32.5777 212.086C32.5186 209.249 32.4152 205.339 32.2083 201.02C32.0015 196.701 31.7159 192.796 31.5189 189.969C31.4204 188.58 31.3367 187.448 31.2776 186.625C31.2304 186.214 31.2304 185.8 31.2776 185.389C31.3959 185.784 31.4718 186.19 31.5041 186.601C31.6174 187.388 31.7553 188.526 31.9079 189.939C32.2083 192.761 32.5383 196.672 32.7451 200.995C32.952 205.319 32.9963 209.244 32.9667 212.081C32.9667 213.504 32.9175 214.652 32.8781 215.445C32.8789 215.859 32.8343 216.271 32.7451 216.676Z" fill="#263238"/><path d="M32.8868 223.674C32.7489 223.674 32.5175 222.689 32.3943 221.458C32.2712 220.226 32.2565 219.202 32.3943 219.187C32.5322 219.173 32.7588 220.172 32.8868 221.403C33.0149 222.635 33.0296 223.659 32.8868 223.674Z" fill="#263238"/><path d="M30.5142 168.739C30.0832 168.814 29.6573 168.916 29.2387 169.044C28.1373 169.494 27.2291 170.317 26.673 171.368C26.2751 172.074 26.016 172.85 25.9096 173.653C25.8162 174.581 25.8778 175.518 26.0918 176.426C26.3351 177.436 26.6954 178.415 27.1654 179.341C27.4018 179.834 27.6579 180.326 27.9534 180.819C28.0962 181.055 28.2439 181.311 28.3966 181.533C28.5493 181.755 28.7463 181.976 28.9235 182.203C31.8784 185.817 34.5426 189.097 36.3943 191.535C37.3251 192.756 38.0589 193.751 38.5415 194.465C38.8131 194.818 39.0444 195.199 39.231 195.603C38.9174 195.289 38.6323 194.948 38.379 194.583C37.8521 193.909 37.074 192.948 36.1136 191.762L28.5246 182.488C28.3424 182.257 28.1651 182.04 27.978 181.789C27.7909 181.538 27.6677 181.297 27.5151 181.045C27.2245 180.553 26.9537 180.06 26.7124 179.568C26.2329 178.601 25.8692 177.581 25.6289 176.529C25.4166 175.568 25.3683 174.577 25.4861 173.599C25.6174 172.747 25.9152 171.928 26.3627 171.191C26.7292 170.582 27.203 170.045 27.7613 169.605C28.1855 169.28 28.6641 169.034 29.1747 168.876C29.3582 168.814 29.5482 168.773 29.7411 168.753C29.8807 168.728 30.0227 168.718 30.1646 168.724C30.396 168.709 30.5142 168.719 30.5142 168.739Z" fill="#263238"/><defs><clipPath id="clip0_329_5604"><rect width="25.9115" height="25.9115" fill="white" transform="translate(58.9224 110.556)"/></clipPath></defs></svg>