<svg width="386" height="542" viewBox="0 0 386 542" fill="none" xmlns="http://www.w3.org/2000/svg">
<path d="M238.248 0.947657C115.337 0.70102 15.4778 103.304 15.2386 230.152C14.9995 357 114.471 460.003 237.382 460.25C360.293 460.496 460.153 357.893 460.392 231.045C460.631 104.198 361.159 1.19429 238.248 0.947657Z" stroke="#D5DAE1"/>
<path d="M280.034 81.7501C157.123 81.5035 57.2639 184.107 57.0248 310.954C56.7856 437.802 156.257 540.805 279.168 541.052C402.08 541.299 501.939 438.695 502.178 311.848C502.417 185 402.945 81.9968 280.034 81.7501Z" stroke="#D5DAE1"/>
<path d="M18.8035 275.038L19.2627 290.976L5.64567 298.949L21.658 298.983L30.0949 312.784L29.6357 296.846L43.2528 288.873L27.2404 288.839L18.8035 275.038Z" fill="#FC7F39"/>
</svg>
