<svg width="51" height="38" viewBox="0 0 51 38" fill="none" xmlns="http://www.w3.org/2000/svg">
<path d="M23.7505 2.78534L20.3937 3.56574e-06C7.75623 7.16231 1.83242 15.3194 0.25274 24.4712C-0.932022 32.0314 2.02988 38 9.53337 38C14.8648 38 19.9988 34.4188 21.1835 28.4503C22.1708 21.4869 18.2216 17.3089 13.2851 16.3141C15.2597 9.54975 23.553 2.78534 23.7505 2.78534ZM40.7321 15.9162C42.9041 9.35081 50.8025 2.78535 51 2.78535L47.6432 8.3302e-06C35.0057 7.16231 29.0819 15.3194 27.5022 24.4712C26.3175 32.0314 29.2794 38 36.7829 38C42.1143 38 47.2483 34.4189 48.2356 28.4503C49.4203 21.4869 45.6686 16.911 40.7321 15.9162Z" fill="#D5DAE1"/>
</svg>
