<svg width="33" height="27" viewBox="0 0 33 27" fill="none" xmlns="http://www.w3.org/2000/svg">
<path fill-rule="evenodd" clip-rule="evenodd" d="M33 4.21692C28.0573 6.55966 25.586 9.31235 25.586 12.4751C27.6928 12.7093 29.4348 13.539 30.8123 14.9642C32.1897 16.3894 32.8785 18.039 32.8785 19.9132C32.8785 21.9046 32.21 23.5835 30.873 24.9501C29.5361 26.3167 27.8548 27 25.8291 27C23.5604 27 21.5955 26.1117 19.9344 24.3351C18.2734 22.5586 17.4429 20.4013 17.4429 17.8633C17.4429 10.2494 21.8588 4.29503 30.6907 0L33 4.21692ZM15.5571 4.21692C10.574 6.55966 8.08242 9.31235 8.08242 12.4751C10.2296 12.7093 11.992 13.539 13.3694 14.9642C14.7469 16.3894 15.4356 18.039 15.4356 19.9132C15.4356 21.9046 14.757 23.5835 13.3998 24.9501C12.0426 26.3167 10.3512 27 8.3255 27C6.05674 27 4.10199 26.1117 2.46119 24.3351C0.820388 22.5586 0 20.4013 0 17.8633C0 10.2494 4.39566 4.29503 13.1871 0L15.5571 4.21692Z" fill="white"/>
</svg>
