<svg width="32" height="32" viewBox="0 0 32 32" fill="none" xmlns="http://www.w3.org/2000/svg">
<path d="M25.92 17.3332C25.6267 17.3332 25.32 17.2399 25.0267 17.1732C24.4327 17.0423 23.8489 16.8686 23.28 16.6532C22.6615 16.4282 21.9815 16.4399 21.3711 16.686C20.7606 16.9322 20.2628 17.3954 19.9733 17.9866L19.68 18.5866C18.3813 17.8641 17.188 16.9669 16.1333 15.9199C15.0864 14.8653 14.1891 13.6719 13.4667 12.3732L14.0267 11.9999C14.6178 11.7105 15.0811 11.2126 15.3272 10.6022C15.5734 9.99171 15.585 9.31179 15.36 8.69324C15.1483 8.12313 14.9746 7.53964 14.84 6.94657C14.7733 6.65324 14.72 6.34657 14.68 6.03991C14.5181 5.10073 14.0262 4.25023 13.2928 3.64156C12.5595 3.03289 11.6329 2.70605 10.68 2.71991H6.68001C6.10539 2.71451 5.53635 2.83299 5.01163 3.06728C4.4869 3.30157 4.01883 3.64617 3.63925 4.07761C3.25968 4.50906 2.97753 5.01723 2.812 5.56752C2.64647 6.11782 2.60145 6.69732 2.68001 7.26657C3.39033 12.8524 5.94138 18.0424 9.93022 22.0168C13.919 25.9911 19.1183 28.5233 24.7067 29.2132H25.2133C26.1966 29.2147 27.1459 28.8539 27.88 28.1999C28.3018 27.8226 28.6388 27.3601 28.8686 26.843C29.0985 26.3259 29.216 25.7658 29.2133 25.1999V21.1999C29.197 20.2738 28.8598 19.382 28.2591 18.6768C27.6585 17.9716 26.8318 17.4967 25.92 17.3332V17.3332ZM26.5867 25.3332C26.5864 25.5226 26.5459 25.7096 26.4677 25.8821C26.3896 26.0545 26.2756 26.2083 26.1333 26.3332C25.9872 26.4664 25.8133 26.5654 25.6242 26.623C25.4351 26.6807 25.2356 26.6955 25.04 26.6666C20.0465 26.0263 15.4083 23.7419 11.857 20.1736C8.30561 16.6054 6.04323 11.9564 5.42668 6.95991C5.40546 6.7646 5.42406 6.56701 5.48135 6.37909C5.53864 6.19117 5.63344 6.01682 5.76001 5.86657C5.88496 5.72435 6.03876 5.61036 6.21118 5.5322C6.38361 5.45403 6.5707 5.41348 6.76001 5.41324H10.76C11.0701 5.40634 11.3728 5.50774 11.6162 5.7C11.8596 5.89225 12.0283 6.16333 12.0933 6.46657C12.1467 6.83102 12.2133 7.19102 12.2933 7.54657C12.4474 8.24943 12.6524 8.94015 12.9067 9.61324L11.04 10.4799C10.8804 10.5531 10.7368 10.6572 10.6176 10.786C10.4983 10.9149 10.4056 11.0661 10.3449 11.2308C10.2842 11.3956 10.2566 11.5707 10.2638 11.7462C10.271 11.9217 10.3127 12.094 10.3867 12.2532C12.3056 16.3636 15.6097 19.6676 19.72 21.5866C20.0446 21.7199 20.4087 21.7199 20.7333 21.5866C20.8996 21.5271 21.0524 21.4352 21.1829 21.3162C21.3134 21.1971 21.4189 21.0534 21.4933 20.8932L22.32 19.0266C23.0093 19.2731 23.7128 19.4779 24.4267 19.6399C24.7822 19.7199 25.1422 19.7866 25.5067 19.8399C25.8099 19.905 26.081 20.0737 26.2733 20.317C26.4655 20.5604 26.5669 20.8632 26.56 21.1732L26.5867 25.3332ZM25.3333 13.3332C25.687 13.3332 26.0261 13.1928 26.2762 12.9427C26.5262 12.6927 26.6667 12.3535 26.6667 11.9999V6.66657C26.6667 6.31295 26.5262 5.97381 26.2762 5.72376C26.0261 5.47372 25.687 5.33324 25.3333 5.33324C24.9797 5.33324 24.6406 5.47372 24.3905 5.72376C24.1405 5.97381 24 6.31295 24 6.66657V11.9999C24 12.3535 24.1405 12.6927 24.3905 12.9427C24.6406 13.1928 24.9797 13.3332 25.3333 13.3332ZM20 13.3332C20.3536 13.3332 20.6928 13.1928 20.9428 12.9427C21.1929 12.6927 21.3333 12.3535 21.3333 11.9999V6.66657C21.3333 6.31295 21.1929 5.97381 20.9428 5.72376C20.6928 5.47372 20.3536 5.33324 20 5.33324C19.6464 5.33324 19.3073 5.47372 19.0572 5.72376C18.8072 5.97381 18.6667 6.31295 18.6667 6.66657V11.9999C18.6667 12.3535 18.8072 12.6927 19.0572 12.9427C19.3073 13.1928 19.6464 13.3332 20 13.3332Z" fill="black"/>
</svg>
