<svg width="48" height="48" viewBox="0 0 48 48" fill="none" xmlns="http://www.w3.org/2000/svg">
<path d="M28 23.02H32.84C33.1032 23.0215 33.3641 22.9711 33.6078 22.8715C33.8515 22.772 34.0731 22.6254 34.26 22.44L43.42 13.28C43.6075 13.0941 43.7562 12.8729 43.8578 12.6291C43.9593 12.3854 44.0116 12.124 44.0116 11.86C44.0116 11.596 43.9593 11.3346 43.8578 11.0908C43.7562 10.8471 43.6075 10.6259 43.42 10.44L38.58 5.59999C38.3941 5.41253 38.1729 5.26374 37.9292 5.16221C37.6854 5.06067 37.424 5.00839 37.16 5.00839C36.896 5.00839 36.6346 5.06067 36.3908 5.16221C36.1471 5.26374 35.9259 5.41253 35.74 5.59999L26.58 14.76C26.2145 15.1433 26.0074 15.6505 26 16.18V21.02C26 21.5504 26.2107 22.0591 26.5858 22.4342C26.9609 22.8093 27.4696 23.02 28 23.02ZM30 17.02L37.16 9.85999L39.16 11.86L32 19.02H30V17.02ZM42 21.02C41.4696 21.02 40.9609 21.2307 40.5858 21.6058C40.2107 21.9808 40 22.4896 40 23.02V37.02C40 37.5504 39.7893 38.0591 39.4142 38.4342C39.0391 38.8093 38.5304 39.02 38 39.02H10C9.46957 39.02 8.96086 38.8093 8.58579 38.4342C8.21071 38.0591 8 37.5504 8 37.02V17.8L19.76 29.58C20.3181 30.1454 20.983 30.5943 21.716 30.9007C22.449 31.2071 23.2355 31.3649 24.03 31.3649C24.8245 31.3649 25.611 31.2071 26.344 30.9007C27.077 30.5943 27.7419 30.1454 28.3 29.58C28.6665 29.2061 28.8717 28.7035 28.8717 28.18C28.8717 27.6565 28.6665 27.1538 28.3 26.78C28.1137 26.5895 27.8913 26.4381 27.6457 26.3348C27.4002 26.2315 27.1364 26.1782 26.87 26.1782C26.6036 26.1782 26.3398 26.2315 26.0943 26.3348C25.8487 26.4381 25.6263 26.5895 25.44 26.78C25.0661 27.1464 24.5635 27.3517 24.04 27.3517C23.5165 27.3517 23.0139 27.1464 22.64 26.78L10.82 14.98H20C20.5304 14.98 21.0391 14.7693 21.4142 14.3942C21.7893 14.0191 22 13.5104 22 12.98C22 12.4496 21.7893 11.9408 21.4142 11.5658C21.0391 11.1907 20.5304 10.98 20 10.98H10C8.4087 10.98 6.88258 11.6121 5.75736 12.7373C4.63214 13.8626 4 15.3887 4 16.98V36.98C4 38.5713 4.63214 40.0974 5.75736 41.2226C6.88258 42.3478 8.4087 42.98 10 42.98H38C39.5913 42.98 41.1174 42.3478 42.2426 41.2226C43.3679 40.0974 44 38.5713 44 36.98V22.98C44 22.4496 43.7893 21.9408 43.4142 21.5658C43.0391 21.1907 42.5304 20.98 42 20.98V21.02Z" fill="#FF5621"/>
</svg>
