<svg width="48" height="48" viewBox="0 0 48 48" fill="none" xmlns="http://www.w3.org/2000/svg">
<path d="M40 26.36V22C40 17.7565 38.3143 13.6869 35.3137 10.6863C32.3131 7.68571 28.2435 6 24 6C19.7565 6 15.6869 7.68571 12.6863 10.6863C9.68571 13.6869 8 17.7565 8 22V26.36C6.8329 26.7726 5.822 27.5361 5.10588 28.5459C4.38976 29.5556 4.00348 30.7621 4 32V36C4 37.5913 4.63214 39.1174 5.75736 40.2426C6.88258 41.3679 8.4087 42 10 42H16C16.5304 42 17.0391 41.7893 17.4142 41.4142C17.7893 41.0391 18 40.5304 18 40V28C18 27.4696 17.7893 26.9609 17.4142 26.5858C17.0391 26.2107 16.5304 26 16 26H12V22C12 18.8174 13.2643 15.7652 15.5147 13.5147C17.7652 11.2643 20.8174 10 24 10C27.1826 10 30.2348 11.2643 32.4853 13.5147C34.7357 15.7652 36 18.8174 36 22V26H32C31.4696 26 30.9609 26.2107 30.5858 26.5858C30.2107 26.9609 30 27.4696 30 28V40C30 40.5304 30.2107 41.0391 30.5858 41.4142C30.9609 41.7893 31.4696 42 32 42H38C39.5913 42 41.1174 41.3679 42.2426 40.2426C43.3679 39.1174 44 37.5913 44 36V32C43.9965 30.7621 43.6102 29.5556 42.8941 28.5459C42.178 27.5361 41.1671 26.7726 40 26.36ZM14 30V38H10C9.46957 38 8.96086 37.7893 8.58579 37.4142C8.21071 37.0391 8 36.5304 8 36V32C8 31.4696 8.21071 30.9609 8.58579 30.5858C8.96086 30.2107 9.46957 30 10 30H14ZM40 36C40 36.5304 39.7893 37.0391 39.4142 37.4142C39.0391 37.7893 38.5304 38 38 38H34V30H38C38.5304 30 39.0391 30.2107 39.4142 30.5858C39.7893 30.9609 40 31.4696 40 32V36Z" fill="#FF5621"/>
</svg>
