<svg width="32" height="32" viewBox="0 0 32 32" fill="none" xmlns="http://www.w3.org/2000/svg">
<path d="M18.6667 15.3466H21.8934C22.0688 15.3476 22.2428 15.314 22.4052 15.2476C22.5677 15.1813 22.7154 15.0835 22.84 14.9599L28.9467 8.85326C29.0717 8.72931 29.1709 8.58185 29.2385 8.41937C29.3062 8.25689 29.3411 8.08261 29.3411 7.9066C29.3411 7.73058 29.3062 7.55631 29.2385 7.39383C29.1709 7.23135 29.0717 7.08388 28.9467 6.95993L25.72 3.73326C25.5961 3.60829 25.4486 3.5091 25.2861 3.44141C25.1236 3.37372 24.9494 3.33887 24.7734 3.33887C24.5973 3.33887 24.4231 3.37372 24.2606 3.44141C24.0981 3.5091 23.9506 3.60829 23.8267 3.73326L17.72 9.83993C17.4764 10.0954 17.3383 10.4336 17.3334 10.7866V14.0133C17.3334 14.3669 17.4738 14.706 17.7239 14.9561C17.9739 15.2061 18.3131 15.3466 18.6667 15.3466ZM20 11.3466L24.7734 6.57326L26.1067 7.9066L21.3334 12.6799H20V11.3466ZM28 14.0133C27.6464 14.0133 27.3073 14.1537 27.0572 14.4038C26.8072 14.6538 26.6667 14.993 26.6667 15.3466V24.6799C26.6667 25.0336 26.5262 25.3727 26.2762 25.6227C26.0261 25.8728 25.687 26.0133 25.3334 26.0133H6.66669C6.31307 26.0133 5.97393 25.8728 5.72388 25.6227C5.47383 25.3727 5.33335 25.0336 5.33335 24.6799V11.8666L13.1734 19.7199C13.5454 20.0969 13.9887 20.3961 14.4773 20.6004C14.966 20.8047 15.4904 20.9099 16.02 20.9099C16.5497 20.9099 17.074 20.8047 17.5627 20.6004C18.0514 20.3961 18.4946 20.0969 18.8667 19.7199C19.111 19.4707 19.2478 19.1356 19.2478 18.7866C19.2478 18.4376 19.111 18.1025 18.8667 17.8533C18.7425 17.7263 18.5942 17.6254 18.4305 17.5565C18.2668 17.4876 18.091 17.4521 17.9134 17.4521C17.7357 17.4521 17.5599 17.4876 17.3962 17.5565C17.2325 17.6254 17.0842 17.7263 16.96 17.8533C16.7108 18.0976 16.3757 18.2344 16.0267 18.2344C15.6777 18.2344 15.3426 18.0976 15.0934 17.8533L7.21335 9.9866H13.3334C13.687 9.9866 14.0261 9.84612 14.2762 9.59607C14.5262 9.34603 14.6667 9.00689 14.6667 8.65326C14.6667 8.29964 14.5262 7.9605 14.2762 7.71046C14.0261 7.46041 13.687 7.31993 13.3334 7.31993H6.66669C5.60582 7.31993 4.58841 7.74136 3.83826 8.4915C3.08811 9.24165 2.66669 10.2591 2.66669 11.3199V24.6533C2.66669 25.7141 3.08811 26.7315 3.83826 27.4817C4.58841 28.2318 5.60582 28.6533 6.66669 28.6533H25.3334C26.3942 28.6533 27.4116 28.2318 28.1618 27.4817C28.9119 26.7315 29.3334 25.7141 29.3334 24.6533V15.3199C29.3334 14.9663 29.1929 14.6272 28.9428 14.3771C28.6928 14.1271 28.3536 13.9866 28 13.9866V14.0133Z" fill="black"/>
</svg>
