<svg width="20" height="21" viewBox="0 0 20 21" fill="none" xmlns="http://www.w3.org/2000/svg">
<path d="M9.40836 12.7517C9.37252 12.7913 9.33912 12.833 9.30836 12.8767C9.27682 12.9231 9.2516 12.9736 9.23336 13.0267C9.20933 13.0739 9.19248 13.1245 9.18336 13.1767C9.17927 13.2321 9.17927 13.2878 9.18336 13.3433C9.18054 13.4526 9.20337 13.5611 9.25002 13.66C9.28745 13.7634 9.34716 13.8573 9.42493 13.9351C9.50269 14.0129 9.59661 14.0726 9.70002 14.11C9.79977 14.1541 9.90763 14.1769 10.0167 14.1769C10.1257 14.1769 10.2336 14.1541 10.3334 14.11C10.4368 14.0726 10.5307 14.0129 10.6085 13.9351C10.6862 13.8573 10.7459 13.7634 10.7834 13.66C10.8204 13.5587 10.8373 13.4511 10.8334 13.3433C10.834 13.2337 10.813 13.1249 10.7715 13.0234C10.73 12.9219 10.6689 12.8295 10.5917 12.7517C10.5142 12.6736 10.4221 12.6116 10.3205 12.5693C10.219 12.5269 10.11 12.5052 10 12.5052C9.89001 12.5052 9.78109 12.5269 9.67954 12.5693C9.57799 12.6116 9.48582 12.6736 9.40836 12.7517ZM10 1.67667C8.35185 1.67667 6.74068 2.16541 5.37027 3.08109C3.99986 3.99676 2.93176 5.29825 2.30103 6.82097C1.6703 8.34369 1.50527 10.0192 1.82681 11.6357C2.14836 13.2523 2.94203 14.7371 4.10747 15.9026C5.2729 17.068 6.75776 17.8617 8.37427 18.1832C9.99078 18.5047 11.6663 18.3397 13.1891 17.709C14.7118 17.0783 16.0133 16.0102 16.9289 14.6397C17.8446 13.2693 18.3334 11.6582 18.3334 10.01C18.3334 8.91565 18.1178 7.83202 17.699 6.82097C17.2802 5.80992 16.6664 4.89126 15.8926 4.11744C15.1188 3.34362 14.2001 2.72979 13.1891 2.311C12.178 1.89221 11.0944 1.67667 10 1.67667V1.67667ZM10 16.6767C8.68148 16.6767 7.39255 16.2857 6.29622 15.5531C5.19989 14.8206 4.34541 13.7794 3.84083 12.5612C3.33624 11.343 3.20422 10.0026 3.46146 8.7094C3.71869 7.41619 4.35363 6.2283 5.28598 5.29595C6.21833 4.3636 7.40621 3.72867 8.69942 3.47143C9.99263 3.2142 11.3331 3.34622 12.5512 3.8508C13.7694 4.35539 14.8106 5.20987 15.5432 6.3062C16.2757 7.40252 16.6667 8.69146 16.6667 10.01C16.6667 11.7781 15.9643 13.4738 14.7141 14.724C13.4638 15.9743 11.7681 16.6767 10 16.6767V16.6767ZM10 5.84333C9.56091 5.84305 9.12947 5.95843 8.74911 6.17787C8.36876 6.3973 8.05291 6.71305 7.83336 7.09333C7.77306 7.18818 7.73258 7.29424 7.71433 7.40514C7.69609 7.51605 7.70047 7.62949 7.72721 7.73865C7.75395 7.84782 7.8025 7.95044 7.86993 8.04036C7.93736 8.13028 8.02228 8.20562 8.11958 8.26187C8.21689 8.31811 8.32456 8.35409 8.43613 8.36765C8.5477 8.3812 8.66086 8.37204 8.7688 8.34073C8.87674 8.30941 8.97723 8.25659 9.06423 8.18543C9.15122 8.11427 9.22293 8.02625 9.27502 7.92666C9.34844 7.79949 9.45416 7.69398 9.58148 7.62081C9.70879 7.54764 9.85318 7.50941 10 7.51C10.221 7.51 10.433 7.5978 10.5893 7.75408C10.7456 7.91036 10.8334 8.12232 10.8334 8.34333C10.8334 8.56434 10.7456 8.77631 10.5893 8.93259C10.433 9.08887 10.221 9.17666 10 9.17666C9.77901 9.17666 9.56705 9.26446 9.41077 9.42074C9.25449 9.57702 9.16669 9.78898 9.16669 10.01V10.8433C9.16669 11.0643 9.25449 11.2763 9.41077 11.4326C9.56705 11.5889 9.77901 11.6767 10 11.6767C10.221 11.6767 10.433 11.5889 10.5893 11.4326C10.7456 11.2763 10.8334 11.0643 10.8334 10.8433V10.6933C11.3845 10.4933 11.8478 10.106 12.1423 9.59905C12.4368 9.09209 12.5438 8.49774 12.4445 7.91991C12.3452 7.34207 12.046 6.81751 11.5992 6.43793C11.1523 6.05834 10.5863 5.84788 10 5.84333V5.84333Z" fill="#1E2238"/>
</svg>
