<svg width="20" height="21" viewBox="0 0 20 21" fill="none" xmlns="http://www.w3.org/2000/svg">
<path d="M17.0833 11.6978C16.8623 11.6978 16.6504 11.7856 16.4941 11.9419C16.3378 12.0982 16.25 12.3101 16.25 12.5311V15.8645C16.25 16.0855 16.1622 16.2974 16.0059 16.4537C15.8496 16.61 15.6377 16.6978 15.4167 16.6978H3.75C3.52899 16.6978 3.31702 16.61 3.16074 16.4537C3.00446 16.2974 2.91667 16.0855 2.91667 15.8645V7.87281L7.81667 12.7811C8.28542 13.2493 8.92083 13.5123 9.58333 13.5123C10.2458 13.5123 10.8812 13.2493 11.35 12.7811L12.7167 11.4145C12.8736 11.2576 12.9617 11.0447 12.9617 10.8228C12.9617 10.6009 12.8736 10.3881 12.7167 10.2311C12.5597 10.0742 12.3469 9.98606 12.125 9.98606C11.9031 9.98606 11.6903 10.0742 11.5333 10.2311L10.1667 11.5978C10.0109 11.7505 9.80146 11.836 9.58333 11.836C9.3652 11.836 9.15577 11.7505 9 11.5978L4.09167 6.69781H9.58333C9.80435 6.69781 10.0163 6.61001 10.1726 6.45373C10.3289 6.29745 10.4167 6.08549 10.4167 5.86448C10.4167 5.64346 10.3289 5.4315 10.1726 5.27522C10.0163 5.11894 9.80435 5.03114 9.58333 5.03114H3.75C3.08696 5.03114 2.45107 5.29453 1.98223 5.76338C1.51339 6.23222 1.25 6.8681 1.25 7.53114V15.8645C1.25 16.5275 1.51339 17.1634 1.98223 17.6322C2.45107 18.1011 3.08696 18.3645 3.75 18.3645H15.4167C16.0797 18.3645 16.7156 18.1011 17.1844 17.6322C17.6533 17.1634 17.9167 16.5275 17.9167 15.8645V12.5311C17.9167 12.3101 17.8289 12.0982 17.6726 11.9419C17.5163 11.7856 17.3043 11.6978 17.0833 11.6978ZM18.5083 4.43948L16.0083 1.93948C15.9291 1.86361 15.8356 1.80414 15.7333 1.76448C15.5304 1.68113 15.3029 1.68113 15.1 1.76448C14.9977 1.80414 14.9043 1.86361 14.825 1.93948L12.325 4.43948C12.1681 4.5964 12.0799 4.80922 12.0799 5.03114C12.0799 5.25306 12.1681 5.46589 12.325 5.62281C12.4819 5.77973 12.6947 5.86789 12.9167 5.86789C13.1386 5.86789 13.3514 5.77973 13.5083 5.62281L14.5833 4.53948V9.19781C14.5833 9.41882 14.6711 9.63078 14.8274 9.78706C14.9837 9.94334 15.1956 10.0311 15.4167 10.0311C15.6377 10.0311 15.8496 9.94334 16.0059 9.78706C16.1622 9.63078 16.25 9.41882 16.25 9.19781V4.53948L17.325 5.62281C17.4025 5.70092 17.4946 5.76291 17.5962 5.80522C17.6977 5.84753 17.8067 5.86931 17.9167 5.86931C18.0267 5.86931 18.1356 5.84753 18.2371 5.80522C18.3387 5.76291 18.4309 5.70092 18.5083 5.62281C18.5864 5.54534 18.6484 5.45317 18.6907 5.35162C18.733 5.25007 18.7548 5.14115 18.7548 5.03114C18.7548 4.92113 18.733 4.81221 18.6907 4.71066C18.6484 4.60911 18.5864 4.51694 18.5083 4.43948Z" fill="#1E2238"/>
</svg>
