<svg width="20" height="20" viewBox="0 0 20 20" fill="none" xmlns="http://www.w3.org/2000/svg">
<path d="M19.1667 7.92666C19.1657 7.1534 18.8581 6.41208 18.3113 5.8653C17.7646 5.31852 17.0232 5.01093 16.25 5.01C15.8166 5.01233 15.3894 5.11232 15 5.30256V3.76C15.0009 3.18018 14.8287 2.61329 14.5054 2.13194C14.1821 1.65059 13.7225 1.27669 13.1855 1.05814C12.6484 0.839583 12.0584 0.786318 11.4908 0.905165C10.9233 1.02401 10.4042 1.30956 9.99999 1.72524C9.52028 1.22637 8.87826 0.9151 8.18948 0.847469C7.5007 0.779838 6.8104 0.960283 6.24283 1.35633C5.67525 1.75237 5.26768 2.338 5.09347 3.0078C4.91926 3.67761 4.98985 4.38761 5.29255 5.01H3.74999C3.17017 5.00911 2.60328 5.18133 2.12193 5.50459C1.64058 5.82785 1.26668 6.28744 1.04813 6.82449C0.829573 7.36155 0.776308 7.95162 0.895155 8.51913C1.014 9.08664 1.29955 9.60576 1.71523 10.01C1.21636 10.4897 0.90509 11.1317 0.837459 11.8205C0.769828 12.5093 0.950273 13.1996 1.34632 13.7672C1.74236 14.3347 2.32799 14.7423 2.9978 14.9165C3.6676 15.0907 4.3776 15.0201 4.99999 14.7174V16.26C4.9991 16.8398 5.17132 17.4067 5.49458 17.8881C5.81784 18.3694 6.27743 18.7433 6.81448 18.9619C7.35154 19.1804 7.94161 19.2337 8.50912 19.1148C9.07663 18.996 9.59575 18.7104 9.99999 18.2948C10.4797 18.7936 11.1217 19.1049 11.8105 19.1725C12.4993 19.2402 13.1896 19.0597 13.7571 18.6637C14.3247 18.2676 14.7323 17.682 14.9065 17.0122C15.0807 16.3424 15.0101 15.6324 14.7074 15.01H16.25C16.8298 15.0109 17.3967 14.8387 17.878 14.5154C18.3594 14.1921 18.7333 13.7326 18.9518 13.1955C19.1704 12.6584 19.2237 12.0684 19.1048 11.5009C18.986 10.9333 18.7004 10.4142 18.2847 10.01C18.5636 9.73939 18.7854 9.41557 18.9369 9.05772C19.0883 8.69987 19.1665 8.31526 19.1667 7.92666V7.92666ZM10.8333 3.76C10.8333 3.42848 10.965 3.11054 11.1994 2.87611C11.4339 2.64169 11.7518 2.51 12.0833 2.51C12.4148 2.51 12.7328 2.64169 12.9672 2.87611C13.2016 3.11054 13.3333 3.42848 13.3333 3.76V7.92666C13.3333 8.25818 13.2016 8.57613 12.9672 8.81055C12.7328 9.04497 12.4148 9.17666 12.0833 9.17666C11.7518 9.17666 11.4339 9.04497 11.1994 8.81055C10.965 8.57613 10.8333 8.25818 10.8333 7.92666V3.76ZM4.99999 12.0933C4.99999 12.3406 4.92668 12.5822 4.78932 12.7878C4.65197 12.9934 4.45675 13.1536 4.22834 13.2482C3.99993 13.3428 3.7486 13.3675 3.50613 13.3193C3.26365 13.2711 3.04092 13.152 2.8661 12.9772C2.69129 12.8024 2.57224 12.5797 2.52401 12.3372C2.47578 12.0947 2.50053 11.8434 2.59514 11.615C2.68975 11.3866 2.84996 11.1913 3.05553 11.054C3.26109 10.9166 3.50276 10.8433 3.74999 10.8433H4.99999V12.0933ZM9.16665 16.26C9.16665 16.5915 9.03496 16.9095 8.80054 17.1439C8.56612 17.3783 8.24817 17.51 7.91665 17.51C7.58513 17.51 7.26719 17.3783 7.03277 17.1439C6.79835 16.9095 6.66665 16.5915 6.66665 16.26V12.0933C6.66665 11.7618 6.79835 11.4439 7.03277 11.2094C7.26719 10.975 7.58513 10.8433 7.91665 10.8433C8.24817 10.8433 8.56612 10.975 8.80054 11.2094C9.03496 11.4439 9.16665 11.7618 9.16665 12.0933V16.26ZM7.91665 9.17666H3.74999C3.41847 9.17666 3.10053 9.04497 2.8661 8.81055C2.63168 8.57613 2.49999 8.25818 2.49999 7.92666C2.49999 7.59514 2.63168 7.2772 2.8661 7.04278C3.10053 6.80836 3.41847 6.67666 3.74999 6.67666H7.91665C8.24817 6.67666 8.56612 6.80836 8.80054 7.04278C9.03496 7.2772 9.16665 7.59514 9.16665 7.92666C9.16665 8.25818 9.03496 8.57613 8.80054 8.81055C8.56612 9.04497 8.24817 9.17666 7.91665 9.17666ZM9.16665 5.01H7.91665C7.66943 5.01 7.42775 4.93669 7.22219 4.79933C7.01663 4.66198 6.85641 4.46676 6.7618 4.23835C6.66719 4.00994 6.64244 3.75861 6.69067 3.51614C6.7389 3.27366 6.85795 3.05093 7.03277 2.87611C7.20759 2.7013 7.43031 2.58225 7.67279 2.53402C7.91527 2.48579 8.1666 2.51054 8.39501 2.60515C8.62342 2.69976 8.81864 2.85997 8.95599 3.06554C9.09334 3.2711 9.16665 3.51277 9.16665 3.76V5.01ZM9.99999 10.0586C9.98386 10.0421 9.9679 10.0261 9.95141 10.01C9.9679 9.99387 9.98386 9.9779 9.99999 9.96142C10.0161 9.9779 10.0321 9.99387 10.0486 10.01C10.0321 10.0261 10.0161 10.0421 9.99999 10.0586ZM12.0833 17.51C11.7519 17.5096 11.4342 17.3778 11.1998 17.1435C10.9655 16.9091 10.8337 16.5914 10.8333 16.26V15.01H12.0833C12.4148 15.01 12.7328 15.1417 12.9672 15.3761C13.2016 15.6105 13.3333 15.9285 13.3333 16.26C13.3333 16.5915 13.2016 16.9095 12.9672 17.1439C12.7328 17.3783 12.4148 17.51 12.0833 17.51ZM16.25 13.3433H12.0833C11.7518 13.3433 11.4339 13.2116 11.1994 12.9772C10.965 12.7428 10.8333 12.4248 10.8333 12.0933C10.8333 11.7618 10.965 11.4439 11.1994 11.2094C11.4339 10.975 11.7518 10.8433 12.0833 10.8433H16.25C16.5815 10.8433 16.8994 10.975 17.1339 11.2094C17.3683 11.4439 17.5 11.7618 17.5 12.0933C17.5 12.4248 17.3683 12.7428 17.1339 12.9772C16.8994 13.2116 16.5815 13.3433 16.25 13.3433ZM16.25 9.17666H15V7.92666C15 7.67944 15.0733 7.43776 15.2106 7.2322C15.348 7.02664 15.5432 6.86642 15.7716 6.77181C16 6.6772 16.2514 6.65245 16.4938 6.70068C16.7363 6.74891 16.9591 6.86796 17.1339 7.04278C17.3087 7.2176 17.4277 7.44032 17.476 7.6828C17.5242 7.92528 17.4994 8.17661 17.4048 8.40502C17.3102 8.63343 17.15 8.82865 16.9444 8.966C16.7389 9.10335 16.4972 9.17666 16.25 9.17666Z" fill="#1E2238"/>
</svg>
