<svg width="20" height="21" viewBox="0 0 20 21" fill="none" xmlns="http://www.w3.org/2000/svg">
<path d="M6.90833 11.085C6.83022 11.1625 6.76823 11.2546 6.72592 11.3562C6.68362 11.4577 6.66183 11.5666 6.66183 11.6767C6.66183 11.7867 6.68362 11.8956 6.72592 11.9971C6.76823 12.0987 6.83022 12.1909 6.90833 12.2683L9.40833 14.7683C9.4858 14.8464 9.57797 14.9084 9.67952 14.9507C9.78107 14.993 9.88999 15.0148 10 15.0148C10.11 15.0148 10.2189 14.993 10.3205 14.9507C10.422 14.9084 10.5142 14.8464 10.5917 14.7683L13.0917 12.2683C13.2486 12.1114 13.3367 11.8986 13.3367 11.6767C13.3367 11.4547 13.2486 11.2419 13.0917 11.085C12.9347 10.9281 12.7219 10.8399 12.5 10.8399C12.2781 10.8399 12.0653 10.9281 11.9083 11.085L10.8333 12.1683V2.50999C10.8333 2.28898 10.7455 2.07702 10.5893 1.92074C10.433 1.76446 10.221 1.67666 10 1.67666C9.77898 1.67666 9.56702 1.76446 9.41074 1.92074C9.25446 2.07702 9.16666 2.28898 9.16666 2.50999V12.1683L8.09166 11.085C8.0142 11.0069 7.92203 10.9449 7.82048 10.9026C7.71893 10.8603 7.61001 10.8385 7.5 10.8385C7.38999 10.8385 7.28107 10.8603 7.17952 10.9026C7.07797 10.9449 6.9858 11.0069 6.90833 11.085ZM15 7.50999H13.3333C13.1123 7.50999 12.9004 7.59779 12.7441 7.75407C12.5878 7.91035 12.5 8.12231 12.5 8.34332C12.5 8.56434 12.5878 8.7763 12.7441 8.93258C12.9004 9.08886 13.1123 9.17666 13.3333 9.17666H15C15.221 9.17666 15.433 9.26445 15.5893 9.42073C15.7455 9.57701 15.8333 9.78898 15.8333 10.01V15.8433C15.8333 16.0643 15.7455 16.2763 15.5893 16.4326C15.433 16.5889 15.221 16.6767 15 16.6767H5C4.77899 16.6767 4.56702 16.5889 4.41074 16.4326C4.25446 16.2763 4.16667 16.0643 4.16667 15.8433V10.01C4.16667 9.78898 4.25446 9.57701 4.41074 9.42073C4.56702 9.26445 4.77899 9.17666 5 9.17666H6.66667C6.88768 9.17666 7.09964 9.08886 7.25592 8.93258C7.4122 8.7763 7.5 8.56434 7.5 8.34332C7.5 8.12231 7.4122 7.91035 7.25592 7.75407C7.09964 7.59779 6.88768 7.50999 6.66667 7.50999H5C4.33696 7.50999 3.70107 7.77338 3.23223 8.24222C2.76339 8.71106 2.5 9.34695 2.5 10.01V15.8433C2.5 16.5064 2.76339 17.1422 3.23223 17.6111C3.70107 18.0799 4.33696 18.3433 5 18.3433H15C15.663 18.3433 16.2989 18.0799 16.7678 17.6111C17.2366 17.1422 17.5 16.5064 17.5 15.8433V10.01C17.5 9.34695 17.2366 8.71106 16.7678 8.24222C16.2989 7.77338 15.663 7.50999 15 7.50999Z" fill="#1E2238"/>
</svg>
