<svg width="405" height="497" viewBox="0 0 405 497" fill="none" xmlns="http://www.w3.org/2000/svg">
<path d="M238.248 0.947657C115.337 0.70102 15.478 103.304 15.2389 230.152C14.9998 357 114.472 460.003 237.383 460.25C360.294 460.496 460.153 357.893 460.392 231.045C460.631 104.198 361.16 1.19429 238.248 0.947657Z" stroke="#FF7A59"/>
<path d="M324.034 36.7501C201.123 36.5035 101.264 139.107 101.025 265.954C100.785 392.802 200.257 495.805 323.168 496.052C446.079 496.299 545.939 393.695 546.178 266.848C546.417 140 446.945 36.9968 324.034 36.7501Z" stroke="#FF7A59"/>
<path d="M19.2272 276.454L19.6456 290.975L19.6518 291.192L19.4644 291.302L7.04206 298.575L21.6496 298.606L21.8699 298.607L21.9849 298.795L29.6715 311.368L29.2531 296.847L29.2468 296.63L29.4342 296.52L41.8566 289.247L27.2491 289.216L27.0288 289.215L26.9138 289.027L19.2272 276.454Z" fill="#FC7F39" stroke="#FF7A59" stroke-width="0.76"/>
</svg>
