<svg width="405" height="497" viewBox="0 0 405 497" fill="none" xmlns="http://www.w3.org/2000/svg">
<path d="M238.248 0.947627C115.337 0.70099 15.478 103.304 15.2389 230.152C14.9998 356.999 114.472 460.003 237.383 460.25C360.294 460.496 460.153 357.893 460.392 231.045C460.631 104.198 361.16 1.19426 238.248 0.947627Z" stroke="#424453"/>
<path d="M324.034 36.7501C201.123 36.5035 101.264 139.107 101.025 265.954C100.785 392.802 200.257 495.805 323.168 496.052C446.079 496.299 545.939 393.695 546.178 266.848C546.417 140 446.945 36.9968 324.034 36.7501Z" stroke="#424453"/>
<path d="M18.8036 275.038L19.2629 290.976L5.64579 298.949L21.6581 298.983L30.0951 312.784L29.6358 296.846L43.2529 288.873L27.2405 288.839L18.8036 275.038Z" fill="#FC7F39"/>
</svg>
